%FSLAX44Y44*%
%MOMM*%
G71*
G01*
G75*
G04 Layer_Color=32896*
G04:AMPARAMS|DCode=10|XSize=3.5mm|YSize=2.05mm|CornerRadius=0.5125mm|HoleSize=0mm|Usage=FLASHONLY|Rotation=0.000|XOffset=0mm|YOffset=0mm|HoleType=Round|Shape=RoundedRectangle|*
%AMROUNDEDRECTD10*
21,1,3.5000,1.0250,0,0,0.0*
21,1,2.4750,2.0500,0,0,0.0*
1,1,1.0250,1.2375,-0.5125*
1,1,1.0250,-1.2375,-0.5125*
1,1,1.0250,-1.2375,0.5125*
1,1,1.0250,1.2375,0.5125*
%
%ADD10ROUNDEDRECTD10*%
G04:AMPARAMS|DCode=11|XSize=4mm|YSize=2.05mm|CornerRadius=0.5125mm|HoleSize=0mm|Usage=FLASHONLY|Rotation=0.000|XOffset=0mm|YOffset=0mm|HoleType=Round|Shape=RoundedRectangle|*
%AMROUNDEDRECTD11*
21,1,4.0000,1.0250,0,0,0.0*
21,1,2.9750,2.0500,0,0,0.0*
1,1,1.0250,1.4875,-0.5125*
1,1,1.0250,-1.4875,-0.5125*
1,1,1.0250,-1.4875,0.5125*
1,1,1.0250,1.4875,0.5125*
%
%ADD11ROUNDEDRECTD11*%
G04:AMPARAMS|DCode=12|XSize=3.5mm|YSize=2.05mm|CornerRadius=0.5125mm|HoleSize=0mm|Usage=FLASHONLY|Rotation=0.000|XOffset=0mm|YOffset=0mm|HoleType=Round|Shape=RoundedRectangle|*
%AMROUNDEDRECTD12*
21,1,3.5000,1.0250,0,0,0.0*
21,1,2.4750,2.0500,0,0,0.0*
1,1,1.0250,1.2375,-0.5125*
1,1,1.0250,-1.2375,-0.5125*
1,1,1.0250,-1.2375,0.5125*
1,1,1.0250,1.2375,0.5125*
%
%ADD12ROUNDEDRECTD12*%
G04:AMPARAMS|DCode=13|XSize=2.8mm|YSize=0.5mm|CornerRadius=0.125mm|HoleSize=0mm|Usage=FLASHONLY|Rotation=0.000|XOffset=0mm|YOffset=0mm|HoleType=Round|Shape=RoundedRectangle|*
%AMROUNDEDRECTD13*
21,1,2.8000,0.2500,0,0,0.0*
21,1,2.5500,0.5000,0,0,0.0*
1,1,0.2500,1.2750,-0.1250*
1,1,0.2500,-1.2750,-0.1250*
1,1,0.2500,-1.2750,0.1250*
1,1,0.2500,1.2750,0.1250*
%
%ADD13ROUNDEDRECTD13*%
%ADD14R,1.0000X0.7000*%
%ADD15R,0.8500X0.7000*%
%ADD16R,2.1000X1.4000*%
%ADD17R,1.1000X1.7000*%
%ADD18O,1.6000X0.5500*%
%ADD19R,1.1000X2.6000*%
%ADD20R,1.1000X0.6000*%
%ADD21O,0.4500X1.8000*%
%ADD22R,1.0000X2.1500*%
%ADD23R,3.2500X2.1500*%
%ADD24R,2.6000X1.2000*%
%ADD25R,1.2000X2.6000*%
%ADD26R,1.7000X1.1000*%
%ADD27R,0.9500X1.7000*%
%ADD28R,1.3000X1.9000*%
%ADD29C,0.4500*%
%ADD30R,2.6000X1.1000*%
%ADD31R,0.3000X1.9000*%
%ADD32C,0.3600*%
%ADD33R,1.0000X2.4000*%
%ADD34R,3.3000X2.4000*%
G04:AMPARAMS|DCode=35|XSize=3.5mm|YSize=2.05mm|CornerRadius=0.5125mm|HoleSize=0mm|Usage=FLASHONLY|Rotation=270.000|XOffset=0mm|YOffset=0mm|HoleType=Round|Shape=RoundedRectangle|*
%AMROUNDEDRECTD35*
21,1,3.5000,1.0250,0,0,270.0*
21,1,2.4750,2.0500,0,0,270.0*
1,1,1.0250,-0.5125,-1.2375*
1,1,1.0250,-0.5125,1.2375*
1,1,1.0250,0.5125,1.2375*
1,1,1.0250,0.5125,-1.2375*
%
%ADD35ROUNDEDRECTD35*%
G04:AMPARAMS|DCode=36|XSize=4mm|YSize=2.05mm|CornerRadius=0.5125mm|HoleSize=0mm|Usage=FLASHONLY|Rotation=270.000|XOffset=0mm|YOffset=0mm|HoleType=Round|Shape=RoundedRectangle|*
%AMROUNDEDRECTD36*
21,1,4.0000,1.0250,0,0,270.0*
21,1,2.9750,2.0500,0,0,270.0*
1,1,1.0250,-0.5125,-1.4875*
1,1,1.0250,-0.5125,1.4875*
1,1,1.0250,0.5125,1.4875*
1,1,1.0250,0.5125,-1.4875*
%
%ADD36ROUNDEDRECTD36*%
G04:AMPARAMS|DCode=37|XSize=3.5mm|YSize=2.05mm|CornerRadius=0.5125mm|HoleSize=0mm|Usage=FLASHONLY|Rotation=270.000|XOffset=0mm|YOffset=0mm|HoleType=Round|Shape=RoundedRectangle|*
%AMROUNDEDRECTD37*
21,1,3.5000,1.0250,0,0,270.0*
21,1,2.4750,2.0500,0,0,270.0*
1,1,1.0250,-0.5125,-1.2375*
1,1,1.0250,-0.5125,1.2375*
1,1,1.0250,0.5125,1.2375*
1,1,1.0250,0.5125,-1.2375*
%
%ADD37ROUNDEDRECTD37*%
G04:AMPARAMS|DCode=38|XSize=2.8mm|YSize=0.5mm|CornerRadius=0.125mm|HoleSize=0mm|Usage=FLASHONLY|Rotation=270.000|XOffset=0mm|YOffset=0mm|HoleType=Round|Shape=RoundedRectangle|*
%AMROUNDEDRECTD38*
21,1,2.8000,0.2500,0,0,270.0*
21,1,2.5500,0.5000,0,0,270.0*
1,1,0.2500,-0.1250,-1.2750*
1,1,0.2500,-0.1250,1.2750*
1,1,0.2500,0.1250,1.2750*
1,1,0.2500,0.1250,-1.2750*
%
%ADD38ROUNDEDRECTD38*%
%ADD39R,1.8000X2.0000*%
%ADD40R,3.0000X2.5000*%
%ADD41C,0.2000*%
%ADD42C,0.1000*%
%ADD43C,0.2540*%
%ADD44C,0.8000*%
%ADD45C,1.0000*%
%ADD46C,0.5000*%
%ADD47C,1.4000*%
%ADD48C,1.5000*%
%ADD49R,1.5000X1.5000*%
%ADD50C,0.9000*%
%ADD51C,4.7600*%
%ADD52R,1.6900X1.6900*%
%ADD53C,1.6900*%
%ADD54R,1.5000X1.5000*%
%ADD55C,1.5240*%
%ADD56C,0.4000*%
%ADD57C,7.0000*%
%ADD58C,1.3000*%
%ADD59C,2.1000*%
%ADD60C,1.0160*%
%ADD61C,1.4080*%
%ADD62C,1.4080*%
%ADD63C,3.7680*%
%ADD64C,1.5980*%
%ADD65C,1.8080*%
%ADD66C,0.7080*%
%ADD67C,5.5080*%
%ADD68C,2.1080*%
%ADD69C,0.4000*%
%ADD70C,0.2500*%
%ADD71C,0.6000*%
%ADD72C,0.2032*%
%ADD73C,0.1500*%
%ADD74C,0.7000*%
G04:AMPARAMS|DCode=75|XSize=3.7032mm|YSize=2.2532mm|CornerRadius=0.6141mm|HoleSize=0mm|Usage=FLASHONLY|Rotation=0.000|XOffset=0mm|YOffset=0mm|HoleType=Round|Shape=RoundedRectangle|*
%AMROUNDEDRECTD75*
21,1,3.7032,1.0250,0,0,0.0*
21,1,2.4750,2.2532,0,0,0.0*
1,1,1.2282,1.2375,-0.5125*
1,1,1.2282,-1.2375,-0.5125*
1,1,1.2282,-1.2375,0.5125*
1,1,1.2282,1.2375,0.5125*
%
%ADD75ROUNDEDRECTD75*%
G04:AMPARAMS|DCode=76|XSize=4.2032mm|YSize=2.2532mm|CornerRadius=0.6141mm|HoleSize=0mm|Usage=FLASHONLY|Rotation=0.000|XOffset=0mm|YOffset=0mm|HoleType=Round|Shape=RoundedRectangle|*
%AMROUNDEDRECTD76*
21,1,4.2032,1.0250,0,0,0.0*
21,1,2.9750,2.2532,0,0,0.0*
1,1,1.2282,1.4875,-0.5125*
1,1,1.2282,-1.4875,-0.5125*
1,1,1.2282,-1.4875,0.5125*
1,1,1.2282,1.4875,0.5125*
%
%ADD76ROUNDEDRECTD76*%
G04:AMPARAMS|DCode=77|XSize=3.7032mm|YSize=2.2532mm|CornerRadius=0.6141mm|HoleSize=0mm|Usage=FLASHONLY|Rotation=0.000|XOffset=0mm|YOffset=0mm|HoleType=Round|Shape=RoundedRectangle|*
%AMROUNDEDRECTD77*
21,1,3.7032,1.0250,0,0,0.0*
21,1,2.4750,2.2532,0,0,0.0*
1,1,1.2282,1.2375,-0.5125*
1,1,1.2282,-1.2375,-0.5125*
1,1,1.2282,-1.2375,0.5125*
1,1,1.2282,1.2375,0.5125*
%
%ADD77ROUNDEDRECTD77*%
G04:AMPARAMS|DCode=78|XSize=3.0032mm|YSize=0.7032mm|CornerRadius=0.2266mm|HoleSize=0mm|Usage=FLASHONLY|Rotation=0.000|XOffset=0mm|YOffset=0mm|HoleType=Round|Shape=RoundedRectangle|*
%AMROUNDEDRECTD78*
21,1,3.0032,0.2500,0,0,0.0*
21,1,2.5500,0.7032,0,0,0.0*
1,1,0.4532,1.2750,-0.1250*
1,1,0.4532,-1.2750,-0.1250*
1,1,0.4532,-1.2750,0.1250*
1,1,0.4532,1.2750,0.1250*
%
%ADD78ROUNDEDRECTD78*%
%ADD79R,1.2032X0.9032*%
%ADD80R,1.0532X0.9032*%
%ADD81R,2.3032X1.6032*%
%ADD82R,1.3032X1.9032*%
%ADD83O,1.8032X0.7532*%
%ADD84R,1.3032X2.8032*%
%ADD85R,1.3032X0.8032*%
%ADD86O,0.6532X2.0032*%
%ADD87R,1.2032X2.3532*%
%ADD88R,3.4532X2.3532*%
%ADD89R,2.8032X1.4032*%
%ADD90R,1.4032X2.8032*%
%ADD91R,1.9032X1.3032*%
%ADD92R,1.1532X1.9032*%
%ADD93R,1.5032X2.1032*%
%ADD94C,0.5700*%
%ADD95R,2.8032X1.3032*%
%ADD96R,0.5032X2.1032*%
%ADD97C,0.4800*%
%ADD98R,1.2032X2.6032*%
%ADD99R,3.5032X2.6032*%
G04:AMPARAMS|DCode=100|XSize=3.7032mm|YSize=2.2532mm|CornerRadius=0.6141mm|HoleSize=0mm|Usage=FLASHONLY|Rotation=270.000|XOffset=0mm|YOffset=0mm|HoleType=Round|Shape=RoundedRectangle|*
%AMROUNDEDRECTD100*
21,1,3.7032,1.0250,0,0,270.0*
21,1,2.4750,2.2532,0,0,270.0*
1,1,1.2282,-0.5125,-1.2375*
1,1,1.2282,-0.5125,1.2375*
1,1,1.2282,0.5125,1.2375*
1,1,1.2282,0.5125,-1.2375*
%
%ADD100ROUNDEDRECTD100*%
G04:AMPARAMS|DCode=101|XSize=4.2032mm|YSize=2.2532mm|CornerRadius=0.6141mm|HoleSize=0mm|Usage=FLASHONLY|Rotation=270.000|XOffset=0mm|YOffset=0mm|HoleType=Round|Shape=RoundedRectangle|*
%AMROUNDEDRECTD101*
21,1,4.2032,1.0250,0,0,270.0*
21,1,2.9750,2.2532,0,0,270.0*
1,1,1.2282,-0.5125,-1.4875*
1,1,1.2282,-0.5125,1.4875*
1,1,1.2282,0.5125,1.4875*
1,1,1.2282,0.5125,-1.4875*
%
%ADD101ROUNDEDRECTD101*%
G04:AMPARAMS|DCode=102|XSize=3.7032mm|YSize=2.2532mm|CornerRadius=0.6141mm|HoleSize=0mm|Usage=FLASHONLY|Rotation=270.000|XOffset=0mm|YOffset=0mm|HoleType=Round|Shape=RoundedRectangle|*
%AMROUNDEDRECTD102*
21,1,3.7032,1.0250,0,0,270.0*
21,1,2.4750,2.2532,0,0,270.0*
1,1,1.2282,-0.5125,-1.2375*
1,1,1.2282,-0.5125,1.2375*
1,1,1.2282,0.5125,1.2375*
1,1,1.2282,0.5125,-1.2375*
%
%ADD102ROUNDEDRECTD102*%
G04:AMPARAMS|DCode=103|XSize=3.0032mm|YSize=0.7032mm|CornerRadius=0.2266mm|HoleSize=0mm|Usage=FLASHONLY|Rotation=270.000|XOffset=0mm|YOffset=0mm|HoleType=Round|Shape=RoundedRectangle|*
%AMROUNDEDRECTD103*
21,1,3.0032,0.2500,0,0,270.0*
21,1,2.5500,0.7032,0,0,270.0*
1,1,0.4532,-0.1250,-1.2750*
1,1,0.4532,-0.1250,1.2750*
1,1,0.4532,0.1250,1.2750*
1,1,0.4532,0.1250,-1.2750*
%
%ADD103ROUNDEDRECTD103*%
%ADD104R,2.0032X2.2032*%
%ADD105R,3.2032X2.7032*%
%ADD106C,1.7032*%
%ADD107R,1.7032X1.7032*%
%ADD108C,1.1032*%
%ADD109C,4.9632*%
%ADD110R,1.8932X1.8932*%
%ADD111C,1.8932*%
%ADD112R,1.7032X1.7032*%
%ADD113C,1.7272*%
%ADD114C,0.6032*%
%ADD115C,7.2032*%
%ADD116C,1.5032*%
%ADD117C,2.3032*%
D41*
X1396920Y1116060D02*
X1404920D01*
X1396920Y1131060D02*
X1404920D01*
X1331080Y1288780D02*
X1339080D01*
X1331080Y1303780D02*
X1339080D01*
X1318850Y1247900D02*
X1326850D01*
X1318850Y1232900D02*
X1326850D01*
X1342310Y1116060D02*
X1350310D01*
X1342310Y1131060D02*
X1350310D01*
X1450260Y1116060D02*
X1458260D01*
X1450260Y1131060D02*
X1458260D01*
X1503600Y1116060D02*
X1511600D01*
X1503600Y1131060D02*
X1511600D01*
X1386960Y1288780D02*
X1394960D01*
X1386960Y1303780D02*
X1394960D01*
X1442840Y1288780D02*
X1450840D01*
X1442840Y1303780D02*
X1450840D01*
X1498720Y1288780D02*
X1506720D01*
X1498720Y1303780D02*
X1506720D01*
X1499190Y1237980D02*
X1507190D01*
X1499190Y1252980D02*
X1507190D01*
X1317580Y1177020D02*
X1325580D01*
X1317580Y1192020D02*
X1325580D01*
X1300110Y1119560D02*
Y1127560D01*
X1315110Y1119560D02*
Y1127560D01*
X1496650Y1170670D02*
X1504650D01*
X1496650Y1185670D02*
X1504650D01*
X1328510Y1923870D02*
X1336510D01*
X1328510Y1908870D02*
X1336510D01*
X1328510Y1865450D02*
X1336510D01*
X1328510Y1850450D02*
X1336510D01*
X1328510Y1792030D02*
X1336510D01*
X1328510Y1807030D02*
X1336510D01*
X1328510Y1733610D02*
X1336510D01*
X1328510Y1748610D02*
X1336510D01*
X1261200Y1732340D02*
X1269200D01*
X1261200Y1747340D02*
X1269200D01*
X1649420Y1782830D02*
Y1790830D01*
X1634420Y1782830D02*
Y1790830D01*
Y1864110D02*
Y1872110D01*
X1649420Y1864110D02*
Y1872110D01*
X1631880Y1939040D02*
Y1947040D01*
X1646880Y1939040D02*
Y1947040D01*
X1261200Y1790760D02*
X1269200D01*
X1261200Y1805760D02*
X1269200D01*
X1262310Y1880620D02*
Y1888620D01*
X1277310Y1880620D02*
Y1888620D01*
X1264850Y1954280D02*
Y1962280D01*
X1279850Y1954280D02*
Y1962280D01*
X1592200Y1652090D02*
X1600200D01*
X1592200Y1637090D02*
X1600200D01*
X1587190Y1939840D02*
Y1947840D01*
X1572190Y1939840D02*
Y1947840D01*
X1528770Y1939840D02*
Y1947840D01*
X1513770Y1939840D02*
Y1947840D01*
X1455350Y1939840D02*
Y1947840D01*
X1470350Y1939840D02*
Y1947840D01*
X1388040Y1939040D02*
Y1947040D01*
X1403040Y1939040D02*
Y1947040D01*
X1330580Y1964750D02*
X1338580D01*
X1330580Y1979750D02*
X1338580D01*
X1588390Y1887040D02*
X1596390D01*
X1588390Y1872040D02*
X1596390D01*
X1591400Y1811080D02*
X1599400D01*
X1591400Y1826080D02*
X1599400D01*
X1591400Y1752660D02*
X1599400D01*
X1591400Y1767660D02*
X1599400D01*
X1591400Y1694240D02*
X1599400D01*
X1591400Y1709240D02*
X1599400D01*
X1486860Y1669330D02*
Y1677330D01*
X1471860Y1669330D02*
Y1677330D01*
X1428440Y1669330D02*
Y1677330D01*
X1413440Y1669330D02*
Y1677330D01*
X1355020Y1669330D02*
Y1677330D01*
X1370020Y1669330D02*
Y1677330D01*
X1296600Y1669330D02*
Y1677330D01*
X1311600Y1669330D02*
Y1677330D01*
D43*
X1327217Y1714258D02*
X1329756Y1716797D01*
X1334835D01*
X1337374Y1714258D01*
Y1704101D01*
X1334835Y1701562D01*
X1329756D01*
X1327217Y1704101D01*
X1311982Y1716797D02*
X1317061Y1714258D01*
X1322139Y1709180D01*
Y1704101D01*
X1319600Y1701562D01*
X1314521D01*
X1311982Y1704101D01*
Y1706640D01*
X1314521Y1709180D01*
X1322139D01*
X1306904Y1714258D02*
X1304365Y1716797D01*
X1299286D01*
X1296747Y1714258D01*
Y1704101D01*
X1299286Y1701562D01*
X1304365D01*
X1306904Y1704101D01*
Y1714258D01*
X1385637D02*
X1388177Y1716797D01*
X1393255D01*
X1395794Y1714258D01*
Y1704101D01*
X1393255Y1701562D01*
X1388177D01*
X1385637Y1704101D01*
X1370402Y1716797D02*
X1380559D01*
Y1709180D01*
X1375481Y1711719D01*
X1372941D01*
X1370402Y1709180D01*
Y1704101D01*
X1372941Y1701562D01*
X1378020D01*
X1380559Y1704101D01*
X1365324D02*
X1362785Y1701562D01*
X1357706D01*
X1355167Y1704101D01*
Y1714258D01*
X1357706Y1716797D01*
X1362785D01*
X1365324Y1714258D01*
Y1711719D01*
X1362785Y1709180D01*
X1355167D01*
X1444057Y1714182D02*
X1446596Y1716721D01*
X1451675D01*
X1454214Y1714182D01*
Y1704025D01*
X1451675Y1701486D01*
X1446596D01*
X1444057Y1704025D01*
X1428822Y1716721D02*
X1438979D01*
Y1709104D01*
X1433901Y1711643D01*
X1431361D01*
X1428822Y1709104D01*
Y1704025D01*
X1431361Y1701486D01*
X1436440D01*
X1438979Y1704025D01*
X1423744Y1714182D02*
X1421205Y1716721D01*
X1416126D01*
X1413587Y1714182D01*
Y1711643D01*
X1416126Y1709104D01*
X1413587Y1706564D01*
Y1704025D01*
X1416126Y1701486D01*
X1421205D01*
X1423744Y1704025D01*
Y1706564D01*
X1421205Y1709104D01*
X1423744Y1711643D01*
Y1714182D01*
X1421205Y1709104D02*
X1416126D01*
X1502477Y1714182D02*
X1505016Y1716721D01*
X1510095D01*
X1512634Y1714182D01*
Y1704025D01*
X1510095Y1701486D01*
X1505016D01*
X1502477Y1704025D01*
X1487242Y1716721D02*
X1497399D01*
Y1709104D01*
X1492321Y1711643D01*
X1489781D01*
X1487242Y1709104D01*
Y1704025D01*
X1489781Y1701486D01*
X1494860D01*
X1497399Y1704025D01*
X1482164Y1716721D02*
X1472007D01*
Y1714182D01*
X1482164Y1704025D01*
Y1701486D01*
X1607887Y1731962D02*
X1610426Y1734501D01*
X1615505D01*
X1618044Y1731962D01*
Y1721805D01*
X1615505Y1719266D01*
X1610426D01*
X1607887Y1721805D01*
X1592652Y1734501D02*
X1602809D01*
Y1726884D01*
X1597731Y1729423D01*
X1595191D01*
X1592652Y1726884D01*
Y1721805D01*
X1595191Y1719266D01*
X1600270D01*
X1602809Y1721805D01*
X1577417Y1734501D02*
X1582496Y1731962D01*
X1587574Y1726884D01*
Y1721805D01*
X1585035Y1719266D01*
X1579956D01*
X1577417Y1721805D01*
Y1724344D01*
X1579956Y1726884D01*
X1587574D01*
X1607887Y1790382D02*
X1610426Y1792921D01*
X1615505D01*
X1618044Y1790382D01*
Y1780225D01*
X1615505Y1777686D01*
X1610426D01*
X1607887Y1780225D01*
X1592652Y1792921D02*
X1602809D01*
Y1785303D01*
X1597731Y1787843D01*
X1595191D01*
X1592652Y1785303D01*
Y1780225D01*
X1595191Y1777686D01*
X1600270D01*
X1602809Y1780225D01*
X1577417Y1792921D02*
X1587574D01*
Y1785303D01*
X1582496Y1787843D01*
X1579956D01*
X1577417Y1785303D01*
Y1780225D01*
X1579956Y1777686D01*
X1585035D01*
X1587574Y1780225D01*
X1607887Y1848802D02*
X1610426Y1851341D01*
X1615505D01*
X1618044Y1848802D01*
Y1838645D01*
X1615505Y1836106D01*
X1610426D01*
X1607887Y1838645D01*
X1592652Y1851341D02*
X1602809D01*
Y1843723D01*
X1597731Y1846263D01*
X1595191D01*
X1592652Y1843723D01*
Y1838645D01*
X1595191Y1836106D01*
X1600270D01*
X1602809Y1838645D01*
X1579956Y1836106D02*
Y1851341D01*
X1587574Y1843723D01*
X1577417D01*
X1604839Y1909762D02*
X1607378Y1912301D01*
X1612457D01*
X1614996Y1909762D01*
Y1899605D01*
X1612457Y1897066D01*
X1607378D01*
X1604839Y1899605D01*
X1589604Y1912301D02*
X1599761D01*
Y1904684D01*
X1594683Y1907223D01*
X1592143D01*
X1589604Y1904684D01*
Y1899605D01*
X1592143Y1897066D01*
X1597222D01*
X1599761Y1899605D01*
X1584526Y1909762D02*
X1581987Y1912301D01*
X1576908D01*
X1574369Y1909762D01*
Y1907223D01*
X1576908Y1904684D01*
X1579447D01*
X1576908D01*
X1574369Y1902144D01*
Y1899605D01*
X1576908Y1897066D01*
X1581987D01*
X1584526Y1899605D01*
X1347029Y2002472D02*
X1349568Y2005011D01*
X1354647D01*
X1357186Y2002472D01*
Y1992315D01*
X1354647Y1989776D01*
X1349568D01*
X1347029Y1992315D01*
X1331794Y2005011D02*
X1341951D01*
Y1997393D01*
X1336873Y1999933D01*
X1334333D01*
X1331794Y1997393D01*
Y1992315D01*
X1334333Y1989776D01*
X1339412D01*
X1341951Y1992315D01*
X1316559Y1989776D02*
X1326716D01*
X1316559Y1999933D01*
Y2002472D01*
X1319098Y2005011D01*
X1324177D01*
X1326716Y2002472D01*
X1413577Y1983930D02*
X1416116Y1986469D01*
X1421195D01*
X1423734Y1983930D01*
Y1973773D01*
X1421195Y1971234D01*
X1416116D01*
X1413577Y1973773D01*
X1398342Y1986469D02*
X1408499D01*
Y1978851D01*
X1403421Y1981391D01*
X1400881D01*
X1398342Y1978851D01*
Y1973773D01*
X1400881Y1971234D01*
X1405960D01*
X1408499Y1973773D01*
X1393264Y1971234D02*
X1388185D01*
X1390725D01*
Y1986469D01*
X1393264Y1983930D01*
X1485967Y1984768D02*
X1488506Y1987307D01*
X1493585D01*
X1496124Y1984768D01*
Y1974611D01*
X1493585Y1972072D01*
X1488506D01*
X1485967Y1974611D01*
X1470732Y1987307D02*
X1480889D01*
Y1979689D01*
X1475811Y1982229D01*
X1473271D01*
X1470732Y1979689D01*
Y1974611D01*
X1473271Y1972072D01*
X1478350D01*
X1480889Y1974611D01*
X1465654Y1984768D02*
X1463115Y1987307D01*
X1458036D01*
X1455497Y1984768D01*
Y1974611D01*
X1458036Y1972072D01*
X1463115D01*
X1465654Y1974611D01*
Y1984768D01*
X1544387Y1984692D02*
X1546926Y1987231D01*
X1552005D01*
X1554544Y1984692D01*
Y1974535D01*
X1552005Y1971996D01*
X1546926D01*
X1544387Y1974535D01*
X1531691Y1971996D02*
Y1987231D01*
X1539309Y1979613D01*
X1529152D01*
X1524074Y1974535D02*
X1521535Y1971996D01*
X1516456D01*
X1513917Y1974535D01*
Y1984692D01*
X1516456Y1987231D01*
X1521535D01*
X1524074Y1984692D01*
Y1982153D01*
X1521535Y1979613D01*
X1513917D01*
X1602807Y1984692D02*
X1605346Y1987231D01*
X1610425D01*
X1612964Y1984692D01*
Y1974535D01*
X1610425Y1971996D01*
X1605346D01*
X1602807Y1974535D01*
X1590111Y1971996D02*
Y1987231D01*
X1597729Y1979613D01*
X1587572D01*
X1582494Y1984692D02*
X1579955Y1987231D01*
X1574876D01*
X1572337Y1984692D01*
Y1982153D01*
X1574876Y1979613D01*
X1572337Y1977074D01*
Y1974535D01*
X1574876Y1971996D01*
X1579955D01*
X1582494Y1974535D01*
Y1977074D01*
X1579955Y1979613D01*
X1582494Y1982153D01*
Y1984692D01*
X1579955Y1979613D02*
X1574876D01*
X1608649Y1674812D02*
X1611188Y1677351D01*
X1616267D01*
X1618806Y1674812D01*
Y1664655D01*
X1616267Y1662116D01*
X1611188D01*
X1608649Y1664655D01*
X1595953Y1662116D02*
Y1677351D01*
X1603571Y1669733D01*
X1593414D01*
X1588336Y1677351D02*
X1578179D01*
Y1674812D01*
X1588336Y1664655D01*
Y1662116D01*
X1295467Y1999208D02*
X1298006Y2001747D01*
X1303085D01*
X1305624Y1999208D01*
Y1989051D01*
X1303085Y1986512D01*
X1298006D01*
X1295467Y1989051D01*
X1282771Y1986512D02*
Y2001747D01*
X1290389Y1994129D01*
X1280232D01*
X1264997Y2001747D02*
X1270076Y1999208D01*
X1275154Y1994129D01*
Y1989051D01*
X1272615Y1986512D01*
X1267536D01*
X1264997Y1989051D01*
Y1991590D01*
X1267536Y1994129D01*
X1275154D01*
X1292927Y1925548D02*
X1295466Y1928087D01*
X1300545D01*
X1303084Y1925548D01*
Y1915391D01*
X1300545Y1912852D01*
X1295466D01*
X1292927Y1915391D01*
X1280231Y1912852D02*
Y1928087D01*
X1287849Y1920470D01*
X1277692D01*
X1262457Y1928087D02*
X1272614D01*
Y1920470D01*
X1267535Y1923009D01*
X1264996D01*
X1262457Y1920470D01*
Y1915391D01*
X1264996Y1912852D01*
X1270075D01*
X1272614Y1915391D01*
X1277687Y1828482D02*
X1280226Y1831021D01*
X1285305D01*
X1287844Y1828482D01*
Y1818325D01*
X1285305Y1815786D01*
X1280226D01*
X1277687Y1818325D01*
X1264991Y1815786D02*
Y1831021D01*
X1272609Y1823403D01*
X1262452D01*
X1249756Y1815786D02*
Y1831021D01*
X1257374Y1823403D01*
X1247217D01*
X1662497Y1983968D02*
X1665036Y1986507D01*
X1670115D01*
X1672654Y1983968D01*
Y1973811D01*
X1670115Y1971272D01*
X1665036D01*
X1662497Y1973811D01*
X1649801Y1971272D02*
Y1986507D01*
X1657419Y1978889D01*
X1647262D01*
X1642184Y1983968D02*
X1639645Y1986507D01*
X1634566D01*
X1632027Y1983968D01*
Y1981429D01*
X1634566Y1978889D01*
X1637106D01*
X1634566D01*
X1632027Y1976350D01*
Y1973811D01*
X1634566Y1971272D01*
X1639645D01*
X1642184Y1973811D01*
X1665037Y1909038D02*
X1667576Y1911577D01*
X1672655D01*
X1675194Y1909038D01*
Y1898881D01*
X1672655Y1896342D01*
X1667576D01*
X1665037Y1898881D01*
X1652341Y1896342D02*
Y1911577D01*
X1659959Y1903960D01*
X1649802D01*
X1634567Y1896342D02*
X1644724D01*
X1634567Y1906499D01*
Y1909038D01*
X1637106Y1911577D01*
X1642185D01*
X1644724Y1909038D01*
X1659957Y1827720D02*
X1662496Y1830259D01*
X1667575D01*
X1670114Y1827720D01*
Y1817563D01*
X1667575Y1815024D01*
X1662496D01*
X1659957Y1817563D01*
X1647261Y1815024D02*
Y1830259D01*
X1654879Y1822641D01*
X1644722D01*
X1639644Y1815024D02*
X1634565D01*
X1637105D01*
Y1830259D01*
X1639644Y1827720D01*
X1277687Y1770062D02*
X1280226Y1772601D01*
X1285305D01*
X1287844Y1770062D01*
Y1759905D01*
X1285305Y1757366D01*
X1280226D01*
X1277687Y1759905D01*
X1264991Y1757366D02*
Y1772601D01*
X1272609Y1764984D01*
X1262452D01*
X1257374Y1770062D02*
X1254835Y1772601D01*
X1249756D01*
X1247217Y1770062D01*
Y1759905D01*
X1249756Y1757366D01*
X1254835D01*
X1257374Y1759905D01*
Y1770062D01*
X1344997Y1771332D02*
X1347536Y1773871D01*
X1352615D01*
X1355154Y1771332D01*
Y1761175D01*
X1352615Y1758636D01*
X1347536D01*
X1344997Y1761175D01*
X1339919Y1771332D02*
X1337380Y1773871D01*
X1332301D01*
X1329762Y1771332D01*
Y1768793D01*
X1332301Y1766254D01*
X1334841D01*
X1332301D01*
X1329762Y1763714D01*
Y1761175D01*
X1332301Y1758636D01*
X1337380D01*
X1339919Y1761175D01*
X1324684D02*
X1322145Y1758636D01*
X1317066D01*
X1314527Y1761175D01*
Y1771332D01*
X1317066Y1773871D01*
X1322145D01*
X1324684Y1771332D01*
Y1768793D01*
X1322145Y1766254D01*
X1314527D01*
X1344997Y1829752D02*
X1347536Y1832291D01*
X1352615D01*
X1355154Y1829752D01*
Y1819595D01*
X1352615Y1817056D01*
X1347536D01*
X1344997Y1819595D01*
X1339919Y1829752D02*
X1337380Y1832291D01*
X1332301D01*
X1329762Y1829752D01*
Y1827213D01*
X1332301Y1824673D01*
X1334841D01*
X1332301D01*
X1329762Y1822134D01*
Y1819595D01*
X1332301Y1817056D01*
X1337380D01*
X1339919Y1819595D01*
X1324684Y1829752D02*
X1322145Y1832291D01*
X1317066D01*
X1314527Y1829752D01*
Y1827213D01*
X1317066Y1824673D01*
X1314527Y1822134D01*
Y1819595D01*
X1317066Y1817056D01*
X1322145D01*
X1324684Y1819595D01*
Y1822134D01*
X1322145Y1824673D01*
X1324684Y1827213D01*
Y1829752D01*
X1322145Y1824673D02*
X1317066D01*
X1344997Y1888172D02*
X1347536Y1890711D01*
X1352615D01*
X1355154Y1888172D01*
Y1878015D01*
X1352615Y1875476D01*
X1347536D01*
X1344997Y1878015D01*
X1339919Y1888172D02*
X1337380Y1890711D01*
X1332301D01*
X1329762Y1888172D01*
Y1885633D01*
X1332301Y1883094D01*
X1334841D01*
X1332301D01*
X1329762Y1880554D01*
Y1878015D01*
X1332301Y1875476D01*
X1337380D01*
X1339919Y1878015D01*
X1324684Y1890711D02*
X1314527D01*
Y1888172D01*
X1324684Y1878015D01*
Y1875476D01*
X1344997Y1946592D02*
X1347536Y1949131D01*
X1352615D01*
X1355154Y1946592D01*
Y1936435D01*
X1352615Y1933896D01*
X1347536D01*
X1344997Y1936435D01*
X1339919Y1946592D02*
X1337380Y1949131D01*
X1332301D01*
X1329762Y1946592D01*
Y1944053D01*
X1332301Y1941514D01*
X1334841D01*
X1332301D01*
X1329762Y1938974D01*
Y1936435D01*
X1332301Y1933896D01*
X1337380D01*
X1339919Y1936435D01*
X1314527Y1949131D02*
X1319606Y1946592D01*
X1324684Y1941514D01*
Y1936435D01*
X1322145Y1933896D01*
X1317066D01*
X1314527Y1936435D01*
Y1938974D01*
X1317066Y1941514D01*
X1324684D01*
X1330727Y1270622D02*
X1333266Y1273161D01*
X1338345D01*
X1340884Y1270622D01*
Y1260465D01*
X1338345Y1257926D01*
X1333266D01*
X1330727Y1260465D01*
X1315492Y1257926D02*
X1325649D01*
X1315492Y1268083D01*
Y1270622D01*
X1318031Y1273161D01*
X1323110D01*
X1325649Y1270622D01*
X1310414D02*
X1307875Y1273161D01*
X1302796D01*
X1300257Y1270622D01*
Y1260465D01*
X1302796Y1257926D01*
X1307875D01*
X1310414Y1260465D01*
Y1270622D01*
X1511105Y1275702D02*
X1513645Y1278241D01*
X1518723D01*
X1521262Y1275702D01*
Y1265545D01*
X1518723Y1263006D01*
X1513645D01*
X1511105Y1265545D01*
X1506027Y1263006D02*
X1500949D01*
X1503488D01*
Y1278241D01*
X1506027Y1275702D01*
X1493331Y1265545D02*
X1490792Y1263006D01*
X1485714D01*
X1483174Y1265545D01*
Y1275702D01*
X1485714Y1278241D01*
X1490792D01*
X1493331Y1275702D01*
Y1273163D01*
X1490792Y1270623D01*
X1483174D01*
X1329495Y1214742D02*
X1332034Y1217281D01*
X1337113D01*
X1339652Y1214742D01*
Y1204585D01*
X1337113Y1202046D01*
X1332034D01*
X1329495Y1204585D01*
X1324417Y1202046D02*
X1319339D01*
X1321878D01*
Y1217281D01*
X1324417Y1214742D01*
X1311721D02*
X1309182Y1217281D01*
X1304104D01*
X1301564Y1214742D01*
Y1212203D01*
X1304104Y1209663D01*
X1301564Y1207124D01*
Y1204585D01*
X1304104Y1202046D01*
X1309182D01*
X1311721Y1204585D01*
Y1207124D01*
X1309182Y1209663D01*
X1311721Y1212203D01*
Y1214742D01*
X1309182Y1209663D02*
X1304104D01*
X1304819Y1164450D02*
X1307359Y1166989D01*
X1312437D01*
X1314976Y1164450D01*
Y1154293D01*
X1312437Y1151754D01*
X1307359D01*
X1304819Y1154293D01*
X1299741Y1151754D02*
X1294663D01*
X1297202D01*
Y1166989D01*
X1299741Y1164450D01*
X1287045Y1166989D02*
X1276888D01*
Y1164450D01*
X1287045Y1154293D01*
Y1151754D01*
X1454755Y1326502D02*
X1457294Y1329041D01*
X1462373D01*
X1464912Y1326502D01*
Y1316345D01*
X1462373Y1313806D01*
X1457294D01*
X1454755Y1316345D01*
X1449677Y1313806D02*
X1444599D01*
X1447138D01*
Y1329041D01*
X1449677Y1326502D01*
X1426824Y1329041D02*
X1431903Y1326502D01*
X1436981Y1321423D01*
Y1316345D01*
X1434442Y1313806D01*
X1429364D01*
X1426824Y1316345D01*
Y1318884D01*
X1429364Y1321423D01*
X1436981D01*
X1510635Y1326502D02*
X1513174Y1329041D01*
X1518253D01*
X1520792Y1326502D01*
Y1316345D01*
X1518253Y1313806D01*
X1513174D01*
X1510635Y1316345D01*
X1505557Y1313806D02*
X1500479D01*
X1503018D01*
Y1329041D01*
X1505557Y1326502D01*
X1482704Y1329041D02*
X1492861D01*
Y1321423D01*
X1487783Y1323963D01*
X1485244D01*
X1482704Y1321423D01*
Y1316345D01*
X1485244Y1313806D01*
X1490322D01*
X1492861Y1316345D01*
X1398875Y1326502D02*
X1401414Y1329041D01*
X1406493D01*
X1409032Y1326502D01*
Y1316345D01*
X1406493Y1313806D01*
X1401414D01*
X1398875Y1316345D01*
X1393797Y1313806D02*
X1388719D01*
X1391258D01*
Y1329041D01*
X1393797Y1326502D01*
X1373484Y1313806D02*
Y1329041D01*
X1381101Y1321423D01*
X1370944D01*
X1342995Y1326502D02*
X1345535Y1329041D01*
X1350613D01*
X1353152Y1326502D01*
Y1316345D01*
X1350613Y1313806D01*
X1345535D01*
X1342995Y1316345D01*
X1337917Y1313806D02*
X1332839D01*
X1335378D01*
Y1329041D01*
X1337917Y1326502D01*
X1325221D02*
X1322682Y1329041D01*
X1317604D01*
X1315064Y1326502D01*
Y1316345D01*
X1317604Y1313806D01*
X1322682D01*
X1325221Y1316345D01*
Y1326502D01*
X1354149Y1153834D02*
X1356689Y1156373D01*
X1361767D01*
X1364306Y1153834D01*
Y1143677D01*
X1361767Y1141138D01*
X1356689D01*
X1354149Y1143677D01*
X1349071D02*
X1346532Y1141138D01*
X1341453D01*
X1338914Y1143677D01*
Y1153834D01*
X1341453Y1156373D01*
X1346532D01*
X1349071Y1153834D01*
Y1151295D01*
X1346532Y1148755D01*
X1338914D01*
X1408759Y1153834D02*
X1411299Y1156373D01*
X1416377D01*
X1418916Y1153834D01*
Y1143677D01*
X1416377Y1141138D01*
X1411299D01*
X1408759Y1143677D01*
X1403681Y1153834D02*
X1401142Y1156373D01*
X1396063D01*
X1393524Y1153834D01*
Y1151295D01*
X1396063Y1148755D01*
X1393524Y1146216D01*
Y1143677D01*
X1396063Y1141138D01*
X1401142D01*
X1403681Y1143677D01*
Y1146216D01*
X1401142Y1148755D01*
X1403681Y1151295D01*
Y1153834D01*
X1401142Y1148755D02*
X1396063D01*
X1462099Y1153834D02*
X1464639Y1156373D01*
X1469717D01*
X1472256Y1153834D01*
Y1143677D01*
X1469717Y1141138D01*
X1464639D01*
X1462099Y1143677D01*
X1457021Y1153834D02*
X1454482Y1156373D01*
X1449403D01*
X1446864Y1153834D01*
Y1151295D01*
X1449403Y1148755D01*
X1451943D01*
X1449403D01*
X1446864Y1146216D01*
Y1143677D01*
X1449403Y1141138D01*
X1454482D01*
X1457021Y1143677D01*
X1515439Y1153834D02*
X1517979Y1156373D01*
X1523057D01*
X1525596Y1153834D01*
Y1143677D01*
X1523057Y1141138D01*
X1517979D01*
X1515439Y1143677D01*
X1500204Y1141138D02*
X1510361D01*
X1500204Y1151295D01*
Y1153834D01*
X1502743Y1156373D01*
X1507822D01*
X1510361Y1153834D01*
X1508527Y1208392D02*
X1511066Y1210931D01*
X1516145D01*
X1518684Y1208392D01*
Y1198235D01*
X1516145Y1195696D01*
X1511066D01*
X1508527Y1198235D01*
X1503449Y1195696D02*
X1498371D01*
X1500910D01*
Y1210931D01*
X1503449Y1208392D01*
M02*
