%FSLAX44Y44*%
%MOMM*%
G71*
G01*
G75*
G04:AMPARAMS|DCode=10|XSize=3.5mm|YSize=2.05mm|CornerRadius=0.5125mm|HoleSize=0mm|Usage=FLASHONLY|Rotation=0.000|XOffset=0mm|YOffset=0mm|HoleType=Round|Shape=RoundedRectangle|*
%AMROUNDEDRECTD10*
21,1,3.5000,1.0250,0,0,0.0*
21,1,2.4750,2.0500,0,0,0.0*
1,1,1.0250,1.2375,-0.5125*
1,1,1.0250,-1.2375,-0.5125*
1,1,1.0250,-1.2375,0.5125*
1,1,1.0250,1.2375,0.5125*
%
%ADD10ROUNDEDRECTD10*%
G04:AMPARAMS|DCode=11|XSize=4mm|YSize=2.05mm|CornerRadius=0.5125mm|HoleSize=0mm|Usage=FLASHONLY|Rotation=0.000|XOffset=0mm|YOffset=0mm|HoleType=Round|Shape=RoundedRectangle|*
%AMROUNDEDRECTD11*
21,1,4.0000,1.0250,0,0,0.0*
21,1,2.9750,2.0500,0,0,0.0*
1,1,1.0250,1.4875,-0.5125*
1,1,1.0250,-1.4875,-0.5125*
1,1,1.0250,-1.4875,0.5125*
1,1,1.0250,1.4875,0.5125*
%
%ADD11ROUNDEDRECTD11*%
G04:AMPARAMS|DCode=12|XSize=3.5mm|YSize=2.05mm|CornerRadius=0.5125mm|HoleSize=0mm|Usage=FLASHONLY|Rotation=0.000|XOffset=0mm|YOffset=0mm|HoleType=Round|Shape=RoundedRectangle|*
%AMROUNDEDRECTD12*
21,1,3.5000,1.0250,0,0,0.0*
21,1,2.4750,2.0500,0,0,0.0*
1,1,1.0250,1.2375,-0.5125*
1,1,1.0250,-1.2375,-0.5125*
1,1,1.0250,-1.2375,0.5125*
1,1,1.0250,1.2375,0.5125*
%
%ADD12ROUNDEDRECTD12*%
G04:AMPARAMS|DCode=13|XSize=2.8mm|YSize=0.5mm|CornerRadius=0.125mm|HoleSize=0mm|Usage=FLASHONLY|Rotation=0.000|XOffset=0mm|YOffset=0mm|HoleType=Round|Shape=RoundedRectangle|*
%AMROUNDEDRECTD13*
21,1,2.8000,0.2500,0,0,0.0*
21,1,2.5500,0.5000,0,0,0.0*
1,1,0.2500,1.2750,-0.1250*
1,1,0.2500,-1.2750,-0.1250*
1,1,0.2500,-1.2750,0.1250*
1,1,0.2500,1.2750,0.1250*
%
%ADD13ROUNDEDRECTD13*%
%ADD14R,1.0000X0.7000*%
%ADD15R,0.8500X0.7000*%
%ADD16R,2.1000X1.4000*%
%ADD17R,1.1000X1.7000*%
%ADD18O,1.6000X0.5500*%
%ADD19R,1.1000X2.6000*%
%ADD20R,1.1000X0.6000*%
%ADD21O,0.4500X1.8000*%
%ADD22R,1.0000X2.1500*%
%ADD23R,3.2500X2.1500*%
%ADD24R,2.6000X1.2000*%
%ADD25R,1.2000X2.6000*%
%ADD26R,1.7000X1.1000*%
%ADD27R,0.9500X1.7000*%
%ADD28R,1.3000X1.9000*%
%ADD29C,0.4500*%
%ADD30R,2.6000X1.1000*%
%ADD31R,0.3000X1.9000*%
%ADD32C,0.3600*%
%ADD33R,1.0000X2.4000*%
%ADD34R,3.3000X2.4000*%
G04:AMPARAMS|DCode=35|XSize=3.5mm|YSize=2.05mm|CornerRadius=0.5125mm|HoleSize=0mm|Usage=FLASHONLY|Rotation=270.000|XOffset=0mm|YOffset=0mm|HoleType=Round|Shape=RoundedRectangle|*
%AMROUNDEDRECTD35*
21,1,3.5000,1.0250,0,0,270.0*
21,1,2.4750,2.0500,0,0,270.0*
1,1,1.0250,-0.5125,-1.2375*
1,1,1.0250,-0.5125,1.2375*
1,1,1.0250,0.5125,1.2375*
1,1,1.0250,0.5125,-1.2375*
%
%ADD35ROUNDEDRECTD35*%
G04:AMPARAMS|DCode=36|XSize=4mm|YSize=2.05mm|CornerRadius=0.5125mm|HoleSize=0mm|Usage=FLASHONLY|Rotation=270.000|XOffset=0mm|YOffset=0mm|HoleType=Round|Shape=RoundedRectangle|*
%AMROUNDEDRECTD36*
21,1,4.0000,1.0250,0,0,270.0*
21,1,2.9750,2.0500,0,0,270.0*
1,1,1.0250,-0.5125,-1.4875*
1,1,1.0250,-0.5125,1.4875*
1,1,1.0250,0.5125,1.4875*
1,1,1.0250,0.5125,-1.4875*
%
%ADD36ROUNDEDRECTD36*%
G04:AMPARAMS|DCode=37|XSize=3.5mm|YSize=2.05mm|CornerRadius=0.5125mm|HoleSize=0mm|Usage=FLASHONLY|Rotation=270.000|XOffset=0mm|YOffset=0mm|HoleType=Round|Shape=RoundedRectangle|*
%AMROUNDEDRECTD37*
21,1,3.5000,1.0250,0,0,270.0*
21,1,2.4750,2.0500,0,0,270.0*
1,1,1.0250,-0.5125,-1.2375*
1,1,1.0250,-0.5125,1.2375*
1,1,1.0250,0.5125,1.2375*
1,1,1.0250,0.5125,-1.2375*
%
%ADD37ROUNDEDRECTD37*%
G04:AMPARAMS|DCode=38|XSize=2.8mm|YSize=0.5mm|CornerRadius=0.125mm|HoleSize=0mm|Usage=FLASHONLY|Rotation=270.000|XOffset=0mm|YOffset=0mm|HoleType=Round|Shape=RoundedRectangle|*
%AMROUNDEDRECTD38*
21,1,2.8000,0.2500,0,0,270.0*
21,1,2.5500,0.5000,0,0,270.0*
1,1,0.2500,-0.1250,-1.2750*
1,1,0.2500,-0.1250,1.2750*
1,1,0.2500,0.1250,1.2750*
1,1,0.2500,0.1250,-1.2750*
%
%ADD38ROUNDEDRECTD38*%
%ADD39R,1.8000X2.0000*%
%ADD40R,3.0000X2.5000*%
%ADD41C,0.2000*%
%ADD42C,0.1000*%
%ADD43C,0.2540*%
%ADD44C,0.8000*%
%ADD45C,1.0000*%
%ADD46C,0.5000*%
%ADD47C,1.4000*%
%ADD48C,1.5000*%
%ADD49R,1.5000X1.5000*%
%ADD50C,0.9000*%
%ADD51C,4.7600*%
%ADD52R,1.6900X1.6900*%
%ADD53C,1.6900*%
%ADD54R,1.5000X1.5000*%
%ADD55C,1.5240*%
%ADD56C,0.4000*%
%ADD57C,7.0000*%
%ADD58C,1.3000*%
%ADD59C,2.1000*%
%ADD60C,1.0160*%
%ADD61C,1.4080*%
%ADD62C,1.4080*%
%ADD63C,3.7680*%
%ADD64C,1.5980*%
%ADD65C,1.8080*%
%ADD66C,0.7080*%
%ADD67C,5.5080*%
%ADD68C,2.1080*%
%ADD69C,0.4000*%
D10*
X2306450Y1145650D02*
D03*
D11*
X2348950D02*
D03*
Y1244150D02*
D03*
D12*
X2306450D02*
D03*
D13*
X2306700Y1186900D02*
D03*
Y1178900D02*
D03*
Y1202900D02*
D03*
Y1210900D02*
D03*
Y1194900D02*
D03*
D14*
X2159920Y1184420D02*
D03*
Y1174920D02*
D03*
Y1165420D02*
D03*
X2183920D02*
D03*
Y1184420D02*
D03*
D15*
X2177130Y1229530D02*
D03*
X2161630D02*
D03*
X1281250Y929900D02*
D03*
X1265750D02*
D03*
X1391950Y931800D02*
D03*
X1376450D02*
D03*
X2177130Y1272710D02*
D03*
X2161630D02*
D03*
X2241900D02*
D03*
X2226400D02*
D03*
D16*
X2285170Y872490D02*
D03*
X2376170D02*
D03*
Y917490D02*
D03*
X2285170D02*
D03*
X635000Y2166200D02*
D03*
X726000D02*
D03*
Y2211200D02*
D03*
X635000D02*
D03*
D17*
X825030Y2198370D02*
D03*
X798030D02*
D03*
X2055330Y867410D02*
D03*
X2082330D02*
D03*
X2246160Y849630D02*
D03*
X2219160D02*
D03*
X2224240Y801370D02*
D03*
X2251240D02*
D03*
X2078520Y803910D02*
D03*
X2051520D02*
D03*
X2126780Y925830D02*
D03*
X2099780D02*
D03*
X1627900Y955800D02*
D03*
X1600900D02*
D03*
X1198800Y856600D02*
D03*
X1171800D02*
D03*
X1012500Y979700D02*
D03*
X985500D02*
D03*
X1146900Y981700D02*
D03*
X1119900D02*
D03*
X1282680Y1107050D02*
D03*
X1309680D02*
D03*
X1282680Y1242940D02*
D03*
X1309680D02*
D03*
X1587900Y1245700D02*
D03*
X1560900D02*
D03*
X1570900Y1068700D02*
D03*
X1543900D02*
D03*
X1534630Y1573530D02*
D03*
X1561630D02*
D03*
X1503210Y1671480D02*
D03*
X1476210D02*
D03*
X2368080Y1409700D02*
D03*
X2341080D02*
D03*
X2365540Y1350010D02*
D03*
X2338540D02*
D03*
X1681010Y2089150D02*
D03*
X1654010D02*
D03*
D18*
X987940Y1883590D02*
D03*
Y1875590D02*
D03*
Y1867590D02*
D03*
Y1859590D02*
D03*
Y1851590D02*
D03*
Y1843590D02*
D03*
Y1835590D02*
D03*
Y1827590D02*
D03*
Y1819590D02*
D03*
Y1811590D02*
D03*
Y1803590D02*
D03*
Y1795590D02*
D03*
Y1787590D02*
D03*
Y1779590D02*
D03*
Y1771590D02*
D03*
Y1763590D02*
D03*
Y1755590D02*
D03*
Y1747590D02*
D03*
Y1739590D02*
D03*
Y1731590D02*
D03*
Y1723590D02*
D03*
Y1715590D02*
D03*
X1099940Y1883590D02*
D03*
Y1875590D02*
D03*
Y1867590D02*
D03*
Y1859590D02*
D03*
Y1851590D02*
D03*
Y1843590D02*
D03*
Y1835590D02*
D03*
Y1827590D02*
D03*
Y1819590D02*
D03*
Y1811590D02*
D03*
Y1803590D02*
D03*
Y1795590D02*
D03*
Y1787590D02*
D03*
Y1779590D02*
D03*
Y1771590D02*
D03*
Y1763590D02*
D03*
Y1755590D02*
D03*
Y1747590D02*
D03*
Y1739590D02*
D03*
Y1731590D02*
D03*
Y1723590D02*
D03*
Y1715590D02*
D03*
X1925200Y1884860D02*
D03*
Y1876860D02*
D03*
Y1868860D02*
D03*
Y1860860D02*
D03*
Y1852860D02*
D03*
Y1844860D02*
D03*
Y1836860D02*
D03*
Y1828860D02*
D03*
Y1820860D02*
D03*
Y1812860D02*
D03*
Y1804860D02*
D03*
Y1796860D02*
D03*
Y1788860D02*
D03*
Y1780860D02*
D03*
Y1772860D02*
D03*
Y1764860D02*
D03*
Y1756860D02*
D03*
Y1748860D02*
D03*
Y1740860D02*
D03*
Y1732860D02*
D03*
Y1724860D02*
D03*
Y1716860D02*
D03*
X2037200Y1884860D02*
D03*
Y1876860D02*
D03*
Y1868860D02*
D03*
Y1860860D02*
D03*
Y1852860D02*
D03*
Y1844860D02*
D03*
Y1836860D02*
D03*
Y1828860D02*
D03*
Y1820860D02*
D03*
Y1812860D02*
D03*
Y1804860D02*
D03*
Y1796860D02*
D03*
Y1788860D02*
D03*
Y1780860D02*
D03*
Y1772860D02*
D03*
Y1764860D02*
D03*
Y1756860D02*
D03*
Y1748860D02*
D03*
Y1740860D02*
D03*
Y1732860D02*
D03*
Y1724860D02*
D03*
Y1716860D02*
D03*
D19*
X2225730Y1144440D02*
D03*
X2252730D02*
D03*
X2223190Y1070780D02*
D03*
X2250190D02*
D03*
X2253450Y1417320D02*
D03*
X2280450D02*
D03*
X2291880Y1348740D02*
D03*
X2264880D02*
D03*
D20*
X2179070Y1112770D02*
D03*
Y1122770D02*
D03*
X2152070Y1112770D02*
D03*
Y1122770D02*
D03*
D21*
X2126090Y802930D02*
D03*
X2132590D02*
D03*
X2139090D02*
D03*
X2145590D02*
D03*
X2152090D02*
D03*
X2158590D02*
D03*
X2165090D02*
D03*
X2171590D02*
D03*
X2126090Y870930D02*
D03*
X2132590D02*
D03*
X2139090D02*
D03*
X2145590D02*
D03*
X2152090D02*
D03*
X2158590D02*
D03*
X2165090D02*
D03*
X2171590D02*
D03*
D22*
X1538110Y861560D02*
D03*
X1515110D02*
D03*
X1492110D02*
D03*
D23*
X1515110Y797060D02*
D03*
D24*
X1656000Y795050D02*
D03*
Y820550D02*
D03*
D25*
X1647350Y892800D02*
D03*
X1672850D02*
D03*
X1614650Y865100D02*
D03*
X1589150D02*
D03*
X1614650Y800400D02*
D03*
X1589150D02*
D03*
X982750Y857700D02*
D03*
X1008250D02*
D03*
X982750Y800400D02*
D03*
X1008250D02*
D03*
X983850Y920200D02*
D03*
X1009350D02*
D03*
X1175750Y801500D02*
D03*
X1201250D02*
D03*
D26*
X1438600Y897700D02*
D03*
Y870700D02*
D03*
X1437600Y822400D02*
D03*
Y795400D02*
D03*
X1239520Y2214410D02*
D03*
Y2187410D02*
D03*
X1139190Y2211870D02*
D03*
Y2184870D02*
D03*
D27*
X1088600Y979600D02*
D03*
X1061600D02*
D03*
D28*
X1283040Y1196710D02*
D03*
X1228040D02*
D03*
X1283040Y1164710D02*
D03*
X1228040D02*
D03*
D29*
X1374290Y1257540D02*
D03*
X1382290D02*
D03*
X1390290D02*
D03*
X1398290D02*
D03*
X1406290D02*
D03*
X1414290D02*
D03*
X1422290D02*
D03*
X1430290D02*
D03*
X1438290D02*
D03*
X1446290D02*
D03*
X1454290D02*
D03*
X1374290Y1249540D02*
D03*
X1382290D02*
D03*
X1390290D02*
D03*
X1398290D02*
D03*
X1406290D02*
D03*
X1414290D02*
D03*
X1422290D02*
D03*
X1430290D02*
D03*
X1438290D02*
D03*
X1446290D02*
D03*
X1454290D02*
D03*
X1374290Y1241540D02*
D03*
X1382290D02*
D03*
X1390290D02*
D03*
X1398290D02*
D03*
X1406290D02*
D03*
X1414290D02*
D03*
X1422290D02*
D03*
X1430290D02*
D03*
X1438290D02*
D03*
X1446290D02*
D03*
X1454290D02*
D03*
X1374290Y1233540D02*
D03*
X1382290D02*
D03*
X1390290D02*
D03*
X1398290D02*
D03*
X1406290D02*
D03*
X1414290D02*
D03*
X1422290D02*
D03*
X1430290D02*
D03*
X1438290D02*
D03*
X1446290D02*
D03*
X1454290D02*
D03*
X1374290Y1225540D02*
D03*
X1382290D02*
D03*
X1390290D02*
D03*
X1398290D02*
D03*
X1406290D02*
D03*
X1414290D02*
D03*
X1422290D02*
D03*
X1430290D02*
D03*
X1438290D02*
D03*
X1446290D02*
D03*
X1454290D02*
D03*
X1374290Y1217540D02*
D03*
X1382290D02*
D03*
X1390290D02*
D03*
X1398290D02*
D03*
X1406290D02*
D03*
X1414290D02*
D03*
X1422290D02*
D03*
X1430290D02*
D03*
X1438290D02*
D03*
X1446290D02*
D03*
X1454290D02*
D03*
X1374290Y1209540D02*
D03*
X1382290D02*
D03*
X1390290D02*
D03*
X1398290D02*
D03*
X1406290D02*
D03*
X1414290D02*
D03*
X1422290D02*
D03*
X1430290D02*
D03*
X1438290D02*
D03*
X1446290D02*
D03*
X1454290D02*
D03*
X1374290Y1201540D02*
D03*
X1382290D02*
D03*
X1390290D02*
D03*
X1398290D02*
D03*
X1406290D02*
D03*
X1414290D02*
D03*
X1422290D02*
D03*
X1430290D02*
D03*
X1438290D02*
D03*
X1446290D02*
D03*
X1454290D02*
D03*
X1374290Y1193540D02*
D03*
X1382290D02*
D03*
X1390290D02*
D03*
X1398290D02*
D03*
X1406290D02*
D03*
X1414290D02*
D03*
X1422290D02*
D03*
X1430290D02*
D03*
X1438290D02*
D03*
X1446290D02*
D03*
X1454290D02*
D03*
X1374290Y1185540D02*
D03*
X1382290D02*
D03*
X1390290D02*
D03*
X1398290D02*
D03*
X1406290D02*
D03*
X1414290D02*
D03*
X1422290D02*
D03*
X1430290D02*
D03*
X1438290D02*
D03*
X1446290D02*
D03*
X1454290D02*
D03*
X1374290Y1177540D02*
D03*
X1382290D02*
D03*
X1390290D02*
D03*
X1398290D02*
D03*
X1406290D02*
D03*
X1414290D02*
D03*
X1422290D02*
D03*
X1430290D02*
D03*
X1438290D02*
D03*
X1446290D02*
D03*
X1454290D02*
D03*
D30*
X1192530Y2184870D02*
D03*
Y2211870D02*
D03*
X1082040Y2184870D02*
D03*
Y2211870D02*
D03*
D31*
X1516950Y2173670D02*
D03*
X1511950D02*
D03*
X1521950D02*
D03*
X1526950D02*
D03*
X1531950D02*
D03*
X1536950D02*
D03*
X1541950D02*
D03*
X1546950D02*
D03*
X1551950D02*
D03*
X1556950D02*
D03*
X1561950D02*
D03*
X1566950D02*
D03*
X1571950D02*
D03*
X1576950D02*
D03*
X1581950D02*
D03*
X1586950D02*
D03*
X1591950D02*
D03*
X1596950D02*
D03*
X1601950D02*
D03*
D32*
X1402700Y1870300D02*
D03*
X1410700D02*
D03*
X1418700D02*
D03*
X1426700D02*
D03*
X1434700D02*
D03*
X1442700D02*
D03*
X1450700D02*
D03*
X1458700D02*
D03*
X1466700D02*
D03*
X1474700D02*
D03*
X1482700D02*
D03*
X1490700D02*
D03*
X1498700D02*
D03*
X1506700D02*
D03*
X1514700D02*
D03*
X1522700D02*
D03*
X1530700D02*
D03*
X1538700D02*
D03*
X1402700Y1862300D02*
D03*
X1410700D02*
D03*
X1418700D02*
D03*
X1426700D02*
D03*
X1434700D02*
D03*
X1442700D02*
D03*
X1450700D02*
D03*
X1458700D02*
D03*
X1466700D02*
D03*
X1474700D02*
D03*
X1482700D02*
D03*
X1490700D02*
D03*
X1498700D02*
D03*
X1506700D02*
D03*
X1514700D02*
D03*
X1522700D02*
D03*
X1530700D02*
D03*
X1538700D02*
D03*
X1402700Y1854300D02*
D03*
X1410700D02*
D03*
X1418700D02*
D03*
X1426700D02*
D03*
X1434700D02*
D03*
X1442700D02*
D03*
X1450700D02*
D03*
X1458700D02*
D03*
X1466700D02*
D03*
X1474700D02*
D03*
X1482700D02*
D03*
X1490700D02*
D03*
X1498700D02*
D03*
X1506700D02*
D03*
X1514700D02*
D03*
X1522700D02*
D03*
X1530700D02*
D03*
X1538700D02*
D03*
X1402700Y1846300D02*
D03*
X1410700D02*
D03*
X1418700D02*
D03*
X1426700D02*
D03*
X1434700D02*
D03*
X1442700D02*
D03*
X1450700D02*
D03*
X1458700D02*
D03*
X1466700D02*
D03*
X1474700D02*
D03*
X1482700D02*
D03*
X1490700D02*
D03*
X1498700D02*
D03*
X1506700D02*
D03*
X1514700D02*
D03*
X1522700D02*
D03*
X1530700D02*
D03*
X1538700D02*
D03*
X1402700Y1838300D02*
D03*
X1410700D02*
D03*
X1418700D02*
D03*
X1426700D02*
D03*
X1434700D02*
D03*
X1442700D02*
D03*
X1450700D02*
D03*
X1458700D02*
D03*
X1466700D02*
D03*
X1474700D02*
D03*
X1482700D02*
D03*
X1490700D02*
D03*
X1498700D02*
D03*
X1506700D02*
D03*
X1514700D02*
D03*
X1522700D02*
D03*
X1530700D02*
D03*
X1538700D02*
D03*
X1402700Y1830300D02*
D03*
X1410700D02*
D03*
X1418700D02*
D03*
X1426700D02*
D03*
X1434700D02*
D03*
X1442700D02*
D03*
X1450700D02*
D03*
X1458700D02*
D03*
X1466700D02*
D03*
X1474700D02*
D03*
X1482700D02*
D03*
X1490700D02*
D03*
X1498700D02*
D03*
X1506700D02*
D03*
X1514700D02*
D03*
X1522700D02*
D03*
X1530700D02*
D03*
X1538700D02*
D03*
X1402700Y1822300D02*
D03*
X1410700D02*
D03*
X1418700D02*
D03*
X1426700D02*
D03*
X1434700D02*
D03*
X1442700D02*
D03*
X1450700D02*
D03*
X1458700D02*
D03*
X1466700D02*
D03*
X1474700D02*
D03*
X1482700D02*
D03*
X1490700D02*
D03*
X1498700D02*
D03*
X1506700D02*
D03*
X1514700D02*
D03*
X1522700D02*
D03*
X1530700D02*
D03*
X1538700D02*
D03*
X1402700Y1814300D02*
D03*
X1410700D02*
D03*
X1418700D02*
D03*
X1426700D02*
D03*
X1434700D02*
D03*
X1442700D02*
D03*
X1450700D02*
D03*
X1458700D02*
D03*
X1466700D02*
D03*
X1474700D02*
D03*
X1482700D02*
D03*
X1490700D02*
D03*
X1498700D02*
D03*
X1506700D02*
D03*
X1514700D02*
D03*
X1522700D02*
D03*
X1530700D02*
D03*
X1538700D02*
D03*
X1402700Y1806300D02*
D03*
X1410700D02*
D03*
X1418700D02*
D03*
X1426700D02*
D03*
X1434700D02*
D03*
X1442700D02*
D03*
X1450700D02*
D03*
X1458700D02*
D03*
X1466700D02*
D03*
X1474700D02*
D03*
X1482700D02*
D03*
X1490700D02*
D03*
X1498700D02*
D03*
X1506700D02*
D03*
X1514700D02*
D03*
X1522700D02*
D03*
X1530700D02*
D03*
X1538700D02*
D03*
X1402700Y1798300D02*
D03*
X1410700D02*
D03*
X1418700D02*
D03*
X1426700D02*
D03*
X1434700D02*
D03*
X1442700D02*
D03*
X1450700D02*
D03*
X1458700D02*
D03*
X1466700D02*
D03*
X1474700D02*
D03*
X1482700D02*
D03*
X1490700D02*
D03*
X1498700D02*
D03*
X1506700D02*
D03*
X1514700D02*
D03*
X1522700D02*
D03*
X1530700D02*
D03*
X1538700D02*
D03*
X1402700Y1790300D02*
D03*
X1410700D02*
D03*
X1418700D02*
D03*
X1426700D02*
D03*
X1434700D02*
D03*
X1442700D02*
D03*
X1450700D02*
D03*
X1458700D02*
D03*
X1466700D02*
D03*
X1474700D02*
D03*
X1482700D02*
D03*
X1490700D02*
D03*
X1498700D02*
D03*
X1506700D02*
D03*
X1514700D02*
D03*
X1522700D02*
D03*
X1530700D02*
D03*
X1538700D02*
D03*
X1402700Y1782300D02*
D03*
X1410700D02*
D03*
X1418700D02*
D03*
X1426700D02*
D03*
X1434700D02*
D03*
X1442700D02*
D03*
X1450700D02*
D03*
X1458700D02*
D03*
X1466700D02*
D03*
X1474700D02*
D03*
X1482700D02*
D03*
X1490700D02*
D03*
X1498700D02*
D03*
X1506700D02*
D03*
X1514700D02*
D03*
X1522700D02*
D03*
X1530700D02*
D03*
X1538700D02*
D03*
X1402700Y1774300D02*
D03*
X1410700D02*
D03*
X1418700D02*
D03*
X1426700D02*
D03*
X1434700D02*
D03*
X1442700D02*
D03*
X1450700D02*
D03*
X1458700D02*
D03*
X1466700D02*
D03*
X1474700D02*
D03*
X1482700D02*
D03*
X1490700D02*
D03*
X1498700D02*
D03*
X1506700D02*
D03*
X1514700D02*
D03*
X1522700D02*
D03*
X1530700D02*
D03*
X1538700D02*
D03*
X1402700Y1766300D02*
D03*
X1410700D02*
D03*
X1418700D02*
D03*
X1426700D02*
D03*
X1434700D02*
D03*
X1442700D02*
D03*
X1450700D02*
D03*
X1458700D02*
D03*
X1466700D02*
D03*
X1474700D02*
D03*
X1482700D02*
D03*
X1490700D02*
D03*
X1498700D02*
D03*
X1506700D02*
D03*
X1514700D02*
D03*
X1522700D02*
D03*
X1530700D02*
D03*
X1538700D02*
D03*
X1402700Y1758300D02*
D03*
X1410700D02*
D03*
X1418700D02*
D03*
X1426700D02*
D03*
X1434700D02*
D03*
X1442700D02*
D03*
X1450700D02*
D03*
X1458700D02*
D03*
X1466700D02*
D03*
X1474700D02*
D03*
X1482700D02*
D03*
X1490700D02*
D03*
X1498700D02*
D03*
X1506700D02*
D03*
X1514700D02*
D03*
X1522700D02*
D03*
X1530700D02*
D03*
X1538700D02*
D03*
X1402700Y1750300D02*
D03*
X1410700D02*
D03*
X1418700D02*
D03*
X1426700D02*
D03*
X1434700D02*
D03*
X1442700D02*
D03*
X1450700D02*
D03*
X1458700D02*
D03*
X1466700D02*
D03*
X1474700D02*
D03*
X1482700D02*
D03*
X1490700D02*
D03*
X1498700D02*
D03*
X1506700D02*
D03*
X1514700D02*
D03*
X1522700D02*
D03*
X1530700D02*
D03*
X1538700D02*
D03*
X1402700Y1742300D02*
D03*
X1410700D02*
D03*
X1418700D02*
D03*
X1426700D02*
D03*
X1434700D02*
D03*
X1442700D02*
D03*
X1450700D02*
D03*
X1458700D02*
D03*
X1466700D02*
D03*
X1474700D02*
D03*
X1482700D02*
D03*
X1490700D02*
D03*
X1498700D02*
D03*
X1506700D02*
D03*
X1514700D02*
D03*
X1522700D02*
D03*
X1530700D02*
D03*
X1538700D02*
D03*
X1402700Y1734300D02*
D03*
X1410700D02*
D03*
X1418700D02*
D03*
X1426700D02*
D03*
X1434700D02*
D03*
X1442700D02*
D03*
X1450700D02*
D03*
X1458700D02*
D03*
X1466700D02*
D03*
X1474700D02*
D03*
X1482700D02*
D03*
X1490700D02*
D03*
X1498700D02*
D03*
X1506700D02*
D03*
X1514700D02*
D03*
X1522700D02*
D03*
X1530700D02*
D03*
X1538700D02*
D03*
D33*
X1122060Y854060D02*
D03*
X1099060D02*
D03*
X1076060D02*
D03*
D34*
X1099060Y796060D02*
D03*
D35*
X1281200Y857500D02*
D03*
D36*
Y815000D02*
D03*
X1379700D02*
D03*
D37*
Y857500D02*
D03*
D38*
X1322450Y857250D02*
D03*
X1314450D02*
D03*
X1338450D02*
D03*
X1346450D02*
D03*
X1330450D02*
D03*
D39*
X1475740Y1571740D02*
D03*
X1424940D02*
D03*
X1475740Y1613740D02*
D03*
X1424940D02*
D03*
D40*
X1573300Y1128400D02*
D03*
Y1193400D02*
D03*
D48*
X873760Y1576070D02*
D03*
Y1601470D02*
D03*
X899160Y1576070D02*
D03*
Y1601470D02*
D03*
X924560Y1576070D02*
D03*
Y1601470D02*
D03*
X949960Y1576070D02*
D03*
Y1601470D02*
D03*
X975360Y1576070D02*
D03*
Y1601470D02*
D03*
X1000760Y1576070D02*
D03*
Y1601470D02*
D03*
X1026160Y1576070D02*
D03*
Y1601470D02*
D03*
X1051560Y1576070D02*
D03*
Y1601470D02*
D03*
X1076960Y1576070D02*
D03*
Y1601470D02*
D03*
X1102360Y1576070D02*
D03*
Y1601470D02*
D03*
X1127760Y1576070D02*
D03*
Y1601470D02*
D03*
X1153160Y1576070D02*
D03*
Y1601470D02*
D03*
X1178560Y1576070D02*
D03*
Y1601470D02*
D03*
X1203960Y1576070D02*
D03*
Y1601470D02*
D03*
X1229360Y1576070D02*
D03*
Y1601470D02*
D03*
X1254760Y1576070D02*
D03*
Y1601470D02*
D03*
X1280160Y1576070D02*
D03*
Y1601470D02*
D03*
X1305560Y1576070D02*
D03*
Y1601470D02*
D03*
X1330960Y1576070D02*
D03*
X1202690Y1746250D02*
D03*
X1177290D02*
D03*
X1202690Y1771650D02*
D03*
X1177290D02*
D03*
X1202690Y1797050D02*
D03*
X1177290D02*
D03*
X1202690Y1822450D02*
D03*
X1785620Y1842770D02*
D03*
X1811020D02*
D03*
X1785620Y1817370D02*
D03*
X1811020D02*
D03*
X1785620Y1791970D02*
D03*
X1811020D02*
D03*
X1785620Y1766570D02*
D03*
X573700Y2105200D02*
D03*
X568000Y1728600D02*
D03*
X593400D02*
D03*
X618800D02*
D03*
X644200D02*
D03*
X669600D02*
D03*
X695000D02*
D03*
X720400D02*
D03*
X745800D02*
D03*
X771200D02*
D03*
X796600D02*
D03*
X567800Y2033600D02*
D03*
X593200D02*
D03*
X618600D02*
D03*
X644000D02*
D03*
X669400D02*
D03*
X694800D02*
D03*
X720200D02*
D03*
X745600D02*
D03*
X771000D02*
D03*
X796400D02*
D03*
X709700Y2113000D02*
D03*
Y2087600D02*
D03*
X684300Y2113000D02*
D03*
X1379220Y1456690D02*
D03*
Y1431290D02*
D03*
X1353820Y1456690D02*
D03*
Y1431290D02*
D03*
X1328420Y1456690D02*
D03*
Y1431290D02*
D03*
X1303020Y1456690D02*
D03*
Y1431290D02*
D03*
X1277620Y1456690D02*
D03*
Y1431290D02*
D03*
X2014220D02*
D03*
X1988820Y1456690D02*
D03*
Y1431290D02*
D03*
X1963420Y1456690D02*
D03*
Y1431290D02*
D03*
X1938020Y1456690D02*
D03*
Y1431290D02*
D03*
X1912620Y1456690D02*
D03*
Y1431290D02*
D03*
X1887220Y1456690D02*
D03*
Y1431290D02*
D03*
X1861820Y1456690D02*
D03*
Y1431290D02*
D03*
X1836420Y1456690D02*
D03*
Y1431290D02*
D03*
X1811020Y1456690D02*
D03*
Y1431290D02*
D03*
X1785620Y1456690D02*
D03*
Y1431290D02*
D03*
X1760220Y1456690D02*
D03*
Y1431290D02*
D03*
X1734820Y1456690D02*
D03*
Y1431290D02*
D03*
X1709420Y1456690D02*
D03*
Y1431290D02*
D03*
X1684020Y1456690D02*
D03*
Y1431290D02*
D03*
X1658620Y1456690D02*
D03*
Y1431290D02*
D03*
X1633220Y1456690D02*
D03*
Y1431290D02*
D03*
X1607820Y1456690D02*
D03*
Y1431290D02*
D03*
X1582420Y1456690D02*
D03*
Y1431290D02*
D03*
X1557020Y1456690D02*
D03*
Y1431290D02*
D03*
X1531620Y1456690D02*
D03*
Y1431290D02*
D03*
X1506220Y1456690D02*
D03*
Y1431290D02*
D03*
X1480820Y1456690D02*
D03*
Y1431290D02*
D03*
X1455420Y1456690D02*
D03*
Y1431290D02*
D03*
X1430020Y1456690D02*
D03*
Y1431290D02*
D03*
X1404620Y1456690D02*
D03*
Y1431290D02*
D03*
X566300Y960120D02*
D03*
X591700D02*
D03*
X617100D02*
D03*
X642500D02*
D03*
X667900D02*
D03*
X693300D02*
D03*
X718700D02*
D03*
X744100D02*
D03*
X769500D02*
D03*
X794900D02*
D03*
X566300Y1265100D02*
D03*
X591700D02*
D03*
X617100D02*
D03*
X642500D02*
D03*
X667900D02*
D03*
X693300D02*
D03*
X718700D02*
D03*
X744100D02*
D03*
X769500D02*
D03*
X794900D02*
D03*
X744220Y836930D02*
D03*
X769620D02*
D03*
X744220Y811530D02*
D03*
X631190Y826770D02*
D03*
X1324610Y2070100D02*
D03*
Y2044700D02*
D03*
X1299210Y2070100D02*
D03*
Y2044700D02*
D03*
X1273810Y2070100D02*
D03*
Y2044700D02*
D03*
X1248410Y2070100D02*
D03*
Y2044700D02*
D03*
X1223010Y2070100D02*
D03*
Y2044700D02*
D03*
X1197610Y2070100D02*
D03*
Y2044700D02*
D03*
X1172210Y2070100D02*
D03*
Y2044700D02*
D03*
X1146810Y2070100D02*
D03*
Y2044700D02*
D03*
X1121410Y2070100D02*
D03*
Y2044700D02*
D03*
X1096010Y2070100D02*
D03*
Y2044700D02*
D03*
X1070610Y2070100D02*
D03*
Y2044700D02*
D03*
X1045210Y2070100D02*
D03*
Y2044700D02*
D03*
X1019810Y2070100D02*
D03*
Y2044700D02*
D03*
X994410Y2070100D02*
D03*
Y2044700D02*
D03*
X969010Y2070100D02*
D03*
Y2044700D02*
D03*
X943610Y2070100D02*
D03*
X1753870Y2028190D02*
D03*
Y2053590D02*
D03*
X1779270Y2028190D02*
D03*
Y2053590D02*
D03*
X1804670Y2028190D02*
D03*
Y2053590D02*
D03*
X1830070Y2028190D02*
D03*
Y2053590D02*
D03*
X1855470Y2028190D02*
D03*
Y2053590D02*
D03*
X1880870Y2028190D02*
D03*
Y2053590D02*
D03*
X1906270Y2028190D02*
D03*
Y2053590D02*
D03*
X1931670Y2028190D02*
D03*
Y2053590D02*
D03*
X1957070Y2028190D02*
D03*
Y2053590D02*
D03*
X1982470Y2028190D02*
D03*
Y2053590D02*
D03*
X2007870Y2028190D02*
D03*
Y2053590D02*
D03*
X2033270Y2028190D02*
D03*
Y2053590D02*
D03*
X2058670Y2028190D02*
D03*
Y2053590D02*
D03*
X2084070Y2028190D02*
D03*
Y2053590D02*
D03*
X2109470Y2028190D02*
D03*
Y2053590D02*
D03*
X2134870Y2028190D02*
D03*
X2152650Y1597660D02*
D03*
Y1572260D02*
D03*
X2127250Y1597660D02*
D03*
Y1572260D02*
D03*
X2101850Y1597660D02*
D03*
Y1572260D02*
D03*
X2076450Y1597660D02*
D03*
Y1572260D02*
D03*
X2051050Y1597660D02*
D03*
Y1572260D02*
D03*
X2025650Y1597660D02*
D03*
Y1572260D02*
D03*
X2000250Y1597660D02*
D03*
Y1572260D02*
D03*
X1974850Y1597660D02*
D03*
Y1572260D02*
D03*
X1949450Y1597660D02*
D03*
Y1572260D02*
D03*
X1924050Y1597660D02*
D03*
Y1572260D02*
D03*
X1898650Y1597660D02*
D03*
Y1572260D02*
D03*
X1873250Y1597660D02*
D03*
Y1572260D02*
D03*
X1847850Y1597660D02*
D03*
Y1572260D02*
D03*
X1822450Y1597660D02*
D03*
Y1572260D02*
D03*
X1797050Y1597660D02*
D03*
Y1572260D02*
D03*
X1771650Y1597660D02*
D03*
Y1572260D02*
D03*
X1746250Y1597660D02*
D03*
Y1572260D02*
D03*
X1720850Y1597660D02*
D03*
Y1572260D02*
D03*
X1695450Y1597660D02*
D03*
X1917700Y1040130D02*
D03*
X1892300Y1065530D02*
D03*
Y1040130D02*
D03*
X1866900Y1065530D02*
D03*
Y1040130D02*
D03*
X1841500Y1065530D02*
D03*
Y1040130D02*
D03*
X1816100Y1065530D02*
D03*
Y1040130D02*
D03*
X1790700Y1065530D02*
D03*
Y1040130D02*
D03*
X1765300Y1065530D02*
D03*
Y1040130D02*
D03*
X1739900Y1065530D02*
D03*
Y1040130D02*
D03*
X1517100Y931000D02*
D03*
X1491700D02*
D03*
X1323100Y986000D02*
D03*
X1297700D02*
D03*
X1098000Y924400D02*
D03*
X1072600D02*
D03*
X1860550Y1268730D02*
D03*
Y1243330D02*
D03*
X1835150Y1268730D02*
D03*
Y1243330D02*
D03*
X1809750Y1268730D02*
D03*
Y1243330D02*
D03*
X1784350Y1268730D02*
D03*
X2363470Y976630D02*
D03*
X2338070Y1002030D02*
D03*
Y976630D02*
D03*
X2312670Y1002030D02*
D03*
Y976630D02*
D03*
X2287270Y1002030D02*
D03*
Y976630D02*
D03*
X2261870Y1002030D02*
D03*
Y976630D02*
D03*
X2236470Y1002030D02*
D03*
Y976630D02*
D03*
X2211070Y1002030D02*
D03*
Y976630D02*
D03*
X2185670Y1002030D02*
D03*
Y976630D02*
D03*
X2160270Y1002030D02*
D03*
Y976630D02*
D03*
X2134870Y1002030D02*
D03*
Y976630D02*
D03*
X2009140Y2178050D02*
D03*
Y2203450D02*
D03*
X2034540Y2178050D02*
D03*
Y2203450D02*
D03*
X2059940Y2178050D02*
D03*
Y2203450D02*
D03*
X2085340Y2178050D02*
D03*
Y2203450D02*
D03*
X2110740Y2178050D02*
D03*
X1413510Y2085340D02*
D03*
X1438910Y2059940D02*
D03*
Y2085340D02*
D03*
X1464310Y2059940D02*
D03*
Y2085340D02*
D03*
X1489710Y2059940D02*
D03*
Y2085340D02*
D03*
X1515110Y2059940D02*
D03*
Y2085340D02*
D03*
X1540510Y2059940D02*
D03*
Y2085340D02*
D03*
X1565910Y2059940D02*
D03*
Y2085340D02*
D03*
X1591310Y2059940D02*
D03*
Y2085340D02*
D03*
X1918970Y2205990D02*
D03*
X1854200Y2193290D02*
D03*
X1879600D02*
D03*
X1854200Y2167890D02*
D03*
X1809750Y2205990D02*
D03*
X1766570Y2180590D02*
D03*
Y2205990D02*
D03*
X1535240Y1669990D02*
D03*
X2269490Y1482090D02*
D03*
Y1507490D02*
D03*
X2294890Y1482090D02*
D03*
Y1507490D02*
D03*
X2320290Y1482090D02*
D03*
Y1507490D02*
D03*
X2345690Y1482090D02*
D03*
X750570Y1432560D02*
D03*
Y1457960D02*
D03*
X775970Y1432560D02*
D03*
Y1457960D02*
D03*
X801370Y1432560D02*
D03*
Y1457960D02*
D03*
X826770Y1432560D02*
D03*
Y1457960D02*
D03*
X852170Y1432560D02*
D03*
Y1457960D02*
D03*
X877570Y1432560D02*
D03*
Y1457960D02*
D03*
X902970Y1432560D02*
D03*
Y1457960D02*
D03*
X928370Y1432560D02*
D03*
Y1457960D02*
D03*
X953770Y1432560D02*
D03*
Y1457960D02*
D03*
X979170Y1432560D02*
D03*
Y1457960D02*
D03*
X1004570Y1432560D02*
D03*
Y1457960D02*
D03*
X1029970Y1432560D02*
D03*
Y1457960D02*
D03*
X1055370Y1432560D02*
D03*
Y1457960D02*
D03*
X1080770Y1432560D02*
D03*
Y1457960D02*
D03*
X1106170Y1432560D02*
D03*
Y1457960D02*
D03*
X1131570Y1432560D02*
D03*
D49*
X1330960Y1601470D02*
D03*
X548300Y2105200D02*
D03*
X542600Y1728600D02*
D03*
X542400Y2033600D02*
D03*
X684300Y2087600D02*
D03*
X2014220Y1456690D02*
D03*
X540900Y960120D02*
D03*
Y1265100D02*
D03*
X943610Y2044700D02*
D03*
X2134870Y2053590D02*
D03*
X1695450Y1572260D02*
D03*
X1917700Y1065530D02*
D03*
X1542500Y931000D02*
D03*
X1348500Y986000D02*
D03*
X1123400Y924400D02*
D03*
X1784350Y1243330D02*
D03*
X2363470Y1002030D02*
D03*
X2110740Y2203450D02*
D03*
X1413510Y2059940D02*
D03*
X2345690Y1507490D02*
D03*
X1131570Y1457960D02*
D03*
D50*
X2329950Y1172900D02*
D03*
Y1216900D02*
D03*
X1308450Y834000D02*
D03*
X1352450D02*
D03*
D51*
X1740680Y933200D02*
D03*
X1990580D02*
D03*
D52*
X1921030Y947400D02*
D03*
D53*
X1907180Y919000D02*
D03*
X1893330Y947400D02*
D03*
X1879480Y919000D02*
D03*
X1865630Y947400D02*
D03*
X1851780Y919000D02*
D03*
X1837930Y947400D02*
D03*
X1824080Y919000D02*
D03*
X1810230Y947400D02*
D03*
D54*
X1177290Y1822450D02*
D03*
X1811020Y1766570D02*
D03*
X769620Y811530D02*
D03*
X631190Y801370D02*
D03*
X1918970Y2180590D02*
D03*
X1879600Y2167890D02*
D03*
X1809750Y2180590D02*
D03*
X1766570Y2155190D02*
D03*
X1535240Y1644590D02*
D03*
D55*
X1631950Y2185670D02*
D03*
X1486950D02*
D03*
X1637950Y2234670D02*
D03*
X1480950D02*
D03*
M02*
