%FSLAX44Y44*%
%MOMM*%
G71*
G01*
G75*
G04 Layer_Physical_Order=4*
G04 Layer_Color=6736896*
G04:AMPARAMS|DCode=10|XSize=3.5mm|YSize=2.05mm|CornerRadius=0.5125mm|HoleSize=0mm|Usage=FLASHONLY|Rotation=0.000|XOffset=0mm|YOffset=0mm|HoleType=Round|Shape=RoundedRectangle|*
%AMROUNDEDRECTD10*
21,1,3.5000,1.0250,0,0,0.0*
21,1,2.4750,2.0500,0,0,0.0*
1,1,1.0250,1.2375,-0.5125*
1,1,1.0250,-1.2375,-0.5125*
1,1,1.0250,-1.2375,0.5125*
1,1,1.0250,1.2375,0.5125*
%
%ADD10ROUNDEDRECTD10*%
G04:AMPARAMS|DCode=11|XSize=4mm|YSize=2.05mm|CornerRadius=0.5125mm|HoleSize=0mm|Usage=FLASHONLY|Rotation=0.000|XOffset=0mm|YOffset=0mm|HoleType=Round|Shape=RoundedRectangle|*
%AMROUNDEDRECTD11*
21,1,4.0000,1.0250,0,0,0.0*
21,1,2.9750,2.0500,0,0,0.0*
1,1,1.0250,1.4875,-0.5125*
1,1,1.0250,-1.4875,-0.5125*
1,1,1.0250,-1.4875,0.5125*
1,1,1.0250,1.4875,0.5125*
%
%ADD11ROUNDEDRECTD11*%
G04:AMPARAMS|DCode=12|XSize=3.5mm|YSize=2.05mm|CornerRadius=0.5125mm|HoleSize=0mm|Usage=FLASHONLY|Rotation=0.000|XOffset=0mm|YOffset=0mm|HoleType=Round|Shape=RoundedRectangle|*
%AMROUNDEDRECTD12*
21,1,3.5000,1.0250,0,0,0.0*
21,1,2.4750,2.0500,0,0,0.0*
1,1,1.0250,1.2375,-0.5125*
1,1,1.0250,-1.2375,-0.5125*
1,1,1.0250,-1.2375,0.5125*
1,1,1.0250,1.2375,0.5125*
%
%ADD12ROUNDEDRECTD12*%
G04:AMPARAMS|DCode=13|XSize=2.8mm|YSize=0.5mm|CornerRadius=0.125mm|HoleSize=0mm|Usage=FLASHONLY|Rotation=0.000|XOffset=0mm|YOffset=0mm|HoleType=Round|Shape=RoundedRectangle|*
%AMROUNDEDRECTD13*
21,1,2.8000,0.2500,0,0,0.0*
21,1,2.5500,0.5000,0,0,0.0*
1,1,0.2500,1.2750,-0.1250*
1,1,0.2500,-1.2750,-0.1250*
1,1,0.2500,-1.2750,0.1250*
1,1,0.2500,1.2750,0.1250*
%
%ADD13ROUNDEDRECTD13*%
%ADD14R,1.0000X0.7000*%
%ADD15R,0.8500X0.7000*%
%ADD16R,2.1000X1.4000*%
%ADD17R,1.1000X1.7000*%
%ADD18O,1.6000X0.5500*%
%ADD19R,1.1000X2.6000*%
%ADD20R,1.1000X0.6000*%
%ADD21O,0.4500X1.8000*%
%ADD22R,1.0000X2.1500*%
%ADD23R,3.2500X2.1500*%
%ADD24R,2.6000X1.2000*%
%ADD25R,1.2000X2.6000*%
%ADD26R,1.7000X1.1000*%
%ADD27R,0.9500X1.7000*%
%ADD28R,1.3000X1.9000*%
%ADD29C,0.4500*%
%ADD30R,2.6000X1.1000*%
%ADD31R,0.3000X1.9000*%
%ADD32C,0.3600*%
%ADD33R,1.0000X2.4000*%
%ADD34R,3.3000X2.4000*%
G04:AMPARAMS|DCode=35|XSize=3.5mm|YSize=2.05mm|CornerRadius=0.5125mm|HoleSize=0mm|Usage=FLASHONLY|Rotation=270.000|XOffset=0mm|YOffset=0mm|HoleType=Round|Shape=RoundedRectangle|*
%AMROUNDEDRECTD35*
21,1,3.5000,1.0250,0,0,270.0*
21,1,2.4750,2.0500,0,0,270.0*
1,1,1.0250,-0.5125,-1.2375*
1,1,1.0250,-0.5125,1.2375*
1,1,1.0250,0.5125,1.2375*
1,1,1.0250,0.5125,-1.2375*
%
%ADD35ROUNDEDRECTD35*%
G04:AMPARAMS|DCode=36|XSize=4mm|YSize=2.05mm|CornerRadius=0.5125mm|HoleSize=0mm|Usage=FLASHONLY|Rotation=270.000|XOffset=0mm|YOffset=0mm|HoleType=Round|Shape=RoundedRectangle|*
%AMROUNDEDRECTD36*
21,1,4.0000,1.0250,0,0,270.0*
21,1,2.9750,2.0500,0,0,270.0*
1,1,1.0250,-0.5125,-1.4875*
1,1,1.0250,-0.5125,1.4875*
1,1,1.0250,0.5125,1.4875*
1,1,1.0250,0.5125,-1.4875*
%
%ADD36ROUNDEDRECTD36*%
G04:AMPARAMS|DCode=37|XSize=3.5mm|YSize=2.05mm|CornerRadius=0.5125mm|HoleSize=0mm|Usage=FLASHONLY|Rotation=270.000|XOffset=0mm|YOffset=0mm|HoleType=Round|Shape=RoundedRectangle|*
%AMROUNDEDRECTD37*
21,1,3.5000,1.0250,0,0,270.0*
21,1,2.4750,2.0500,0,0,270.0*
1,1,1.0250,-0.5125,-1.2375*
1,1,1.0250,-0.5125,1.2375*
1,1,1.0250,0.5125,1.2375*
1,1,1.0250,0.5125,-1.2375*
%
%ADD37ROUNDEDRECTD37*%
G04:AMPARAMS|DCode=38|XSize=2.8mm|YSize=0.5mm|CornerRadius=0.125mm|HoleSize=0mm|Usage=FLASHONLY|Rotation=270.000|XOffset=0mm|YOffset=0mm|HoleType=Round|Shape=RoundedRectangle|*
%AMROUNDEDRECTD38*
21,1,2.8000,0.2500,0,0,270.0*
21,1,2.5500,0.5000,0,0,270.0*
1,1,0.2500,-0.1250,-1.2750*
1,1,0.2500,-0.1250,1.2750*
1,1,0.2500,0.1250,1.2750*
1,1,0.2500,0.1250,-1.2750*
%
%ADD38ROUNDEDRECTD38*%
%ADD39R,1.8000X2.0000*%
%ADD40R,3.0000X2.5000*%
%ADD41C,0.2000*%
%ADD42C,0.1000*%
%ADD43C,0.2540*%
%ADD44C,0.8000*%
%ADD45C,1.0000*%
%ADD46C,0.5000*%
%ADD47C,1.4000*%
%ADD48C,1.5000*%
%ADD49R,1.5000X1.5000*%
%ADD50C,0.9000*%
%ADD51C,4.7600*%
%ADD52R,1.6900X1.6900*%
%ADD53C,1.6900*%
%ADD54R,1.5000X1.5000*%
%ADD55C,1.5240*%
%ADD56C,0.4000*%
%ADD57C,7.0000*%
%ADD58C,1.3000*%
%ADD59C,2.1000*%
%ADD60C,1.0160*%
%ADD61C,1.4080*%
%ADD62C,1.4080*%
%ADD63C,3.7680*%
%ADD64C,1.5980*%
%ADD65C,1.8080*%
%ADD66C,0.7080*%
%ADD67C,5.5080*%
%ADD68C,2.1080*%
D42*
X1910600Y1828800D02*
Y1835138D01*
X1890014Y1855724D02*
X1910600Y1835138D01*
X1913100Y1790300D02*
Y1791998D01*
X1839214Y1865884D02*
X1913100Y1791998D01*
X1566194Y1814800D02*
X1686306Y1694688D01*
X1553750Y1814800D02*
X1566194D01*
X1553272Y1814322D02*
X1553750Y1814800D01*
X1517396Y1814322D02*
X1553272D01*
X1430020Y1171520D02*
Y1193292D01*
X1429400Y1170900D02*
X1430020Y1171520D01*
X1454718Y1754318D02*
X1465997Y1743039D01*
Y1726477D02*
Y1743039D01*
Y1726477D02*
X1471422Y1721052D01*
X1475232Y1751076D02*
X1479296Y1747012D01*
X1477076Y1758000D02*
X1488374D01*
X1494790Y1751584D01*
X1478788Y1754212D02*
X1483000Y1750000D01*
X1475232Y1751076D02*
Y1756156D01*
X1477076Y1758000D01*
X1469136Y1765808D02*
X1487802D01*
X1467104Y1763776D02*
X1469136Y1765808D01*
X1467104Y1758442D02*
Y1763776D01*
X1478788Y1778254D02*
X1483050Y1782516D01*
X1467104Y1758442D02*
X1470660Y1754886D01*
X1483000Y1734172D02*
Y1750000D01*
X1502664Y1778254D02*
X1515110Y1765808D01*
X1504079Y1782516D02*
X1506563Y1780032D01*
X1483050Y1782516D02*
X1504079D01*
X1500850Y1749750D02*
X1504114D01*
X1490416Y1760184D02*
X1500850Y1749750D01*
X1490416Y1760184D02*
Y1763194D01*
X1487802Y1765808D02*
X1490416Y1763194D01*
X1486320Y1625487D02*
Y1730852D01*
X1483000Y1734172D02*
X1486320Y1730852D01*
X1506164Y1746036D02*
X1509506Y1742694D01*
X1506164Y1746036D02*
Y1747700D01*
X1504114Y1749750D02*
X1506164Y1747700D01*
X1509506Y1742694D02*
X1532128D01*
X1502664Y1746250D02*
X1506220Y1742694D01*
X1471168Y1730248D02*
X1475884Y1725532D01*
X1506220Y1734708D02*
Y1742694D01*
X1494790Y1739138D02*
X1505712Y1728216D01*
X1506563Y1777437D02*
X1525813Y1758188D01*
X1517705Y1769364D02*
X1534668D01*
X1508900Y1778169D02*
X1517705Y1769364D01*
X1312392Y1774698D02*
X1424940D01*
X1410462Y1767078D02*
X1413764Y1770380D01*
X1418590Y1766316D02*
X1422654Y1770380D01*
X1401826Y1790192D02*
X1442976D01*
X1426210Y1781810D02*
X1430782Y1786382D01*
X1426210Y1775968D02*
Y1781810D01*
X1390198Y1193632D02*
X1394206Y1189624D01*
X1390198Y1193632D02*
Y1318712D01*
X1277620Y1431290D02*
X1390198Y1318712D01*
X1382014Y1185672D02*
X1386078Y1181608D01*
X1382014Y1185672D02*
Y1303782D01*
X1268476Y1417320D02*
X1382014Y1303782D01*
X1268476Y1417320D02*
Y1438656D01*
X1271524Y1441704D01*
X1292606D01*
X1303020Y1431290D01*
X1430020D02*
X1467886Y1393424D01*
Y1215156D02*
Y1393424D01*
X1458280Y1205550D02*
X1467886Y1215156D01*
X1542664Y1858264D02*
X1754124D01*
X1771650Y1840738D01*
Y1597660D02*
Y1840738D01*
X1539494Y1750314D02*
X1552194Y1737614D01*
X1516380Y1750314D02*
X1539494D01*
X1515110Y1751584D02*
X1516380Y1750314D01*
X1515110Y1751584D02*
Y1765808D01*
X1418590Y1663700D02*
Y1766316D01*
X1330960Y1576070D02*
X1418590Y1663700D01*
X1410462Y1720342D02*
Y1767078D01*
X1380744Y1690624D02*
X1410462Y1720342D01*
X1319784Y1690624D02*
X1380744D01*
X1315720Y1686560D02*
X1319784Y1690624D01*
X1315720Y1586230D02*
Y1686560D01*
X1305560Y1576070D02*
X1315720Y1586230D01*
X1313434Y2086864D02*
X1315466Y2084832D01*
Y1951990D02*
Y2084832D01*
Y1951990D02*
X1388872Y1878584D01*
Y1818386D02*
Y1878584D01*
X1424940Y1774698D02*
X1426210Y1775968D01*
X1181354Y1905736D02*
X1312392Y1774698D01*
X1181354Y1905736D02*
Y2060956D01*
X1172210Y2070100D02*
X1181354Y2060956D01*
X1414697Y1818303D02*
X1418844Y1822450D01*
Y1877172D01*
X1417122Y1878894D02*
X1418844Y1877172D01*
X1417122Y1878894D02*
Y1942790D01*
X1346200Y2013712D02*
X1417122Y1942790D01*
X1346200Y2013712D02*
Y2062511D01*
X1318036Y2090674D02*
X1346200Y2062511D01*
X1268984Y2090674D02*
X1318036D01*
X1248410Y2070100D02*
X1268984Y2090674D01*
X801370Y1432560D02*
X979678Y1254252D01*
X1454658Y1533652D02*
Y1746250D01*
Y1533652D02*
X1531620Y1456690D01*
X1471422Y1542288D02*
Y1721052D01*
Y1542288D02*
X1557020Y1456690D01*
X1532128Y1742694D02*
X1541526Y1733296D01*
X1593850D01*
X1599946Y1727200D01*
Y1633220D02*
Y1727200D01*
Y1633220D02*
X1734820Y1498346D01*
Y1456690D02*
Y1498346D01*
X1506220Y1734708D02*
X1509212Y1731716D01*
Y1670618D02*
Y1731716D01*
Y1670618D02*
X1535240Y1644590D01*
X1508900Y1778169D02*
Y1784516D01*
X1506728Y1786688D02*
X1508900Y1784516D01*
X1506728Y1786688D02*
Y1881886D01*
X1348370Y2040244D02*
X1506728Y1881886D01*
X1348370Y2040244D02*
Y2064119D01*
X1227619Y2184870D02*
X1348370Y2064119D01*
X1223264Y2184870D02*
X1227619D01*
X1167440Y1739590D02*
X1305560Y1601470D01*
X1136904Y1739590D02*
X1167440D01*
X1110996Y1715590D02*
X1221232Y1605354D01*
Y1601470D02*
Y1605354D01*
Y1601470D02*
X1229360D01*
X1914144Y1868860D02*
X1962150Y1820854D01*
Y1584960D02*
Y1820854D01*
Y1584960D02*
X1974850Y1572260D01*
X2110994Y1588516D02*
X2127250Y1572260D01*
X2110994Y1588516D02*
Y1648516D01*
X2018636Y1740874D02*
X2110994Y1648516D01*
X2018636Y1740874D02*
Y1856893D01*
X2022602Y1860860D01*
X943610Y1937258D02*
Y2044700D01*
Y1937258D02*
X1068832Y1812036D01*
Y1763590D02*
Y1812036D01*
X2026158Y1788922D02*
X2052320D01*
X2067814Y1804416D01*
Y2044446D01*
X2058670Y2053590D02*
X2067814Y2044446D01*
X1080770Y1787652D02*
X1088898D01*
X1075690Y1792732D02*
X1080770Y1787652D01*
X1075690Y1792732D02*
Y1861058D01*
X1067308Y1869440D02*
X1075690Y1861058D01*
X1067308Y1869440D02*
Y1877822D01*
X1065784Y1879346D02*
X1067308Y1877822D01*
X1058672Y1879346D02*
X1065784D01*
X1026160Y1911858D02*
X1058672Y1879346D01*
X1026160Y1911858D02*
Y2038350D01*
X1019810Y2044700D02*
X1026160Y2038350D01*
X1890014Y1855724D02*
Y2044446D01*
X1880870Y2053590D02*
X1890014Y2044446D01*
X1770126D02*
X1779270Y2053590D01*
X1770126Y1926590D02*
Y2044446D01*
Y1926590D02*
X1914144Y1782572D01*
X1110996Y1837944D02*
X1177290Y1771650D01*
X1110996Y1837944D02*
Y1839722D01*
X1408379Y1165976D02*
X1410379Y1167975D01*
X1392566Y1165976D02*
X1408379D01*
X1390142Y1168400D02*
X1392566Y1165976D01*
X1390142Y1168400D02*
Y1190791D01*
X1386332Y1194601D02*
X1390142Y1190791D01*
X1386332Y1194601D02*
Y1197582D01*
X1410232Y1189458D02*
X1414018Y1185672D01*
Y1166368D02*
Y1185672D01*
X1409954Y1162304D02*
X1414018Y1166368D01*
X1362202Y1162304D02*
X1409954D01*
X1286256Y1238250D02*
X1362202Y1162304D01*
X720150Y1238250D02*
X1286256D01*
X693300Y1265100D02*
X720150Y1238250D01*
X1454150Y1146302D02*
Y1260602D01*
X1456182Y1262634D01*
X1841500Y1040130D02*
X1905254Y976376D01*
X2085796D01*
X2152090Y910082D01*
X1771142Y1307338D02*
X1809750Y1268730D01*
X1771142Y1307338D02*
Y1477858D01*
X1516380Y1278636D02*
X1628394D01*
X1841500Y1065530D01*
X1494790Y1739138D02*
Y1751584D01*
X1484320Y1580190D02*
X1607820Y1456690D01*
X1484320Y1580190D02*
Y1724152D01*
X1482940Y1725532D02*
X1484320Y1724152D01*
X1475884Y1725532D02*
X1482940D01*
X1446276Y1440434D02*
X1455420Y1431290D01*
X1398016Y1440434D02*
X1446276D01*
X1395476Y1437894D02*
X1398016Y1440434D01*
X1395476Y1418844D02*
Y1437894D01*
Y1418844D02*
X1420114Y1394206D01*
Y1235710D02*
Y1394206D01*
Y1235710D02*
X1426210Y1229614D01*
X1418590Y1141730D02*
X1570990Y989330D01*
X1418590Y1141730D02*
Y1178560D01*
X1422146Y1182116D01*
Y1217422D01*
X1434338Y1229614D01*
X1425702Y1281176D02*
Y1323594D01*
Y1281176D02*
X1430782Y1276096D01*
Y1257554D02*
Y1276096D01*
Y1257554D02*
X1438656Y1249680D01*
Y1193810D02*
Y1249680D01*
X1434338Y1189492D02*
X1438656Y1193810D01*
X1450340Y1767078D02*
X1453642Y1770380D01*
X1450340Y1477010D02*
Y1767078D01*
X1430020Y1456690D02*
X1450340Y1477010D01*
X1353820Y1431290D02*
X1393698Y1391412D01*
Y1281877D02*
Y1391412D01*
Y1281877D02*
X1406708Y1268868D01*
Y1209122D02*
Y1268868D01*
Y1209122D02*
X1418336Y1197494D01*
X1711706Y1588516D02*
X1720850Y1597660D01*
X1690624Y1588516D02*
X1711706D01*
X1686306Y1592834D02*
X1690624Y1588516D01*
X1686306Y1592834D02*
Y1694688D01*
X1515110Y1816608D02*
X1517396Y1814322D01*
X1515110Y1816608D02*
Y1836928D01*
X1516634Y1838452D01*
X1522730D01*
X1526794Y1834388D01*
X1907180Y919000D02*
Y957580D01*
X1904132Y960628D02*
X1907180Y957580D01*
X1844802Y960628D02*
X1904132D01*
X1765300Y1040130D02*
X1844802Y960628D01*
X2134908Y814832D02*
X2152142D01*
X2129320Y820420D02*
X2134908Y814832D01*
X1430020Y1193292D02*
X1434338Y1197610D01*
X1830070Y2053590D02*
X1839214Y2044446D01*
Y1865884D02*
Y2044446D01*
X1838960Y1764030D02*
X1910080D01*
X1811020Y1791970D02*
X1838960Y1764030D01*
X1245108Y1611122D02*
X1254760Y1601470D01*
X1221994Y1611122D02*
X1245108D01*
X1109472Y1723644D02*
X1221994Y1611122D01*
X1109472Y1723644D02*
Y1736090D01*
X1115060Y1741678D01*
Y1751584D01*
X1109726Y1756918D02*
X1115060Y1751584D01*
X1104392Y1756918D02*
X1109726D01*
X1088898Y1741424D02*
X1104392Y1756918D01*
X1150040Y1731590D02*
X1280160Y1601470D01*
X1113028Y1731590D02*
X1150040D01*
X1107186Y1743272D02*
X1111504Y1747590D01*
X1107186Y1699006D02*
Y1743272D01*
Y1699006D02*
X1117854Y1688338D01*
Y1572768D02*
Y1688338D01*
Y1572768D02*
X1123696Y1566926D01*
X1314704D01*
X1320546Y1572768D01*
Y1591056D01*
X1330960Y1601470D01*
X1187740Y1808450D02*
Y1841464D01*
X1060450Y1968754D02*
X1187740Y1841464D01*
X1060450Y1968754D02*
Y2054860D01*
X1045210Y2070100D02*
X1060450Y2054860D01*
X1273810Y2070100D02*
X1285748Y2058162D01*
Y1808480D02*
Y2058162D01*
Y1808480D02*
X1290396Y1803832D01*
X1388186D01*
X1401826Y1790192D01*
X1442976D02*
X1446784Y1786384D01*
X1695450Y1597660D02*
Y1805940D01*
X1690624Y1810766D02*
X1695450Y1805940D01*
X1576324Y1810766D02*
X1690624D01*
X1556766Y1830324D02*
X1576324Y1810766D01*
X1522730Y1830324D02*
X1556766D01*
X1518666Y1834388D02*
X1522730Y1830324D01*
X1492132Y1648578D02*
X1684020Y1456690D01*
X1480820Y1571498D02*
Y1720000D01*
Y1571498D02*
X1582420Y1469898D01*
Y1456690D02*
Y1469898D01*
X1486320Y1625487D02*
X1553672Y1558136D01*
X1557174D01*
X1658620Y1456690D01*
X1299210Y2070100D02*
X1311446Y2057864D01*
Y1811484D02*
Y2057864D01*
Y1811484D02*
X1316736Y1806194D01*
X1426718D01*
X1438656Y1794256D01*
X1760220Y1456690D02*
Y1478788D01*
X1681226Y1557782D02*
X1760220Y1478788D01*
X1681226Y1557782D02*
Y1640840D01*
X1602740Y1719326D02*
X1681226Y1640840D01*
X1602740Y1719326D02*
Y1752600D01*
X1597152Y1758188D02*
X1602740Y1752600D01*
X1525813Y1758188D02*
X1597152D01*
X1506563Y1777437D02*
Y1780032D01*
X1693164Y1359916D02*
X1784350Y1268730D01*
X1693164Y1359916D02*
Y1529588D01*
X1518666Y1704086D02*
X1693164Y1529588D01*
X1518666Y1704086D02*
Y1738334D01*
X1324610Y2070100D02*
X1338072Y2056638D01*
Y1993138D02*
Y2056638D01*
Y1993138D02*
X1410400Y1920810D01*
Y1830600D02*
Y1920810D01*
Y1830600D02*
X1414740Y1826260D01*
X977900Y1854708D02*
X1029208Y1803400D01*
Y1674622D02*
Y1803400D01*
Y1674622D02*
X1102360Y1601470D01*
X1832102Y1562608D02*
Y1719326D01*
Y1562608D02*
X1938020Y1456690D01*
X1446784Y1549654D02*
Y1738384D01*
X1353820Y1456690D02*
X1446784Y1549654D01*
X1235964Y1419352D02*
X1378204Y1277112D01*
X1260602Y1363218D02*
X1370330Y1253490D01*
X1023112Y1363218D02*
X1260602D01*
X953770Y1432560D02*
X1023112Y1363218D01*
X826770Y1432560D02*
X999832Y1259498D01*
X1230122Y1415288D02*
X1378204Y1267206D01*
Y1253490D02*
Y1267206D01*
X1374140Y1249680D02*
X1378204Y1245616D01*
X1374140Y1249680D02*
Y1254760D01*
X1366774Y1262126D02*
X1374140Y1254760D01*
X1366774Y1262126D02*
Y1272032D01*
X1271016Y1367790D02*
X1366774Y1272032D01*
X1043940Y1367790D02*
X1271016D01*
X979170Y1432560D02*
X1043940Y1367790D01*
X1450340Y1205484D02*
Y1208532D01*
X1446784Y1212088D02*
X1450340Y1208532D01*
X1446784Y1212088D02*
Y1255522D01*
X1433322Y1268984D02*
X1446784Y1255522D01*
X1433322Y1268984D02*
Y1402588D01*
X1404620Y1431290D02*
X1433322Y1402588D01*
X1995170Y2040890D02*
X2007870Y2053590D01*
X1995170Y1911096D02*
Y2040890D01*
Y1911096D02*
X2026158Y1880108D01*
Y1830578D02*
Y1880108D01*
X1897126Y1853946D02*
X1914212Y1836860D01*
X1897126Y1853946D02*
Y2036064D01*
X1901952Y2040890D01*
X1918970D01*
X1931670Y2053590D01*
X2036064Y1825052D02*
X2048256Y1812860D01*
X2036064Y1825052D02*
Y1880870D01*
X2024126Y1892808D02*
X2036064Y1880870D01*
X2024126Y1892808D02*
Y2044446D01*
X2033270Y2053590D01*
X1073658Y1783274D02*
X1085342Y1771590D01*
X1073658Y1783274D02*
Y1855724D01*
X969010Y1960372D02*
X1073658Y1855724D01*
X969010Y1960372D02*
Y2044700D01*
X973328Y1880108D02*
X976884Y1883664D01*
X973328Y1830832D02*
Y1880108D01*
Y1830832D02*
X989076Y1815084D01*
Y1613154D02*
Y1815084D01*
Y1613154D02*
X1000760Y1601470D01*
X1534668Y1858264D02*
X1538732Y1854200D01*
X1553718D01*
X1595120Y1812798D01*
X1741932D01*
X1746250Y1808480D01*
Y1597660D02*
Y1808480D01*
D48*
X1000760Y1601470D02*
D03*
X1102360D02*
D03*
X1229360D02*
D03*
X1254760D02*
D03*
X1280160D02*
D03*
X1305560Y1576070D02*
D03*
Y1601470D02*
D03*
X1330960Y1576070D02*
D03*
X1177290Y1771650D02*
D03*
X1811020Y1791970D02*
D03*
X1353820Y1456690D02*
D03*
Y1431290D02*
D03*
X1303020D02*
D03*
X1277620D02*
D03*
X1938020Y1456690D02*
D03*
X1760220D02*
D03*
X1734820D02*
D03*
X1684020D02*
D03*
X1658620D02*
D03*
X1607820D02*
D03*
X1582420D02*
D03*
X1557020D02*
D03*
X1531620D02*
D03*
X1455420Y1431290D02*
D03*
X1430020Y1456690D02*
D03*
Y1431290D02*
D03*
X1404620D02*
D03*
X693300Y1265100D02*
D03*
X1324610Y2070100D02*
D03*
X1299210D02*
D03*
X1273810D02*
D03*
X1248410D02*
D03*
X1172210D02*
D03*
X1045210D02*
D03*
X1019810Y2044700D02*
D03*
X969010D02*
D03*
X1779270Y2053590D02*
D03*
X1830070D02*
D03*
X1880870D02*
D03*
X1931670D02*
D03*
X2007870D02*
D03*
X2033270D02*
D03*
X2058670D02*
D03*
X2127250Y1572260D02*
D03*
X1974850D02*
D03*
X1771650Y1597660D02*
D03*
X1746250D02*
D03*
X1720850D02*
D03*
X1695450D02*
D03*
X1841500Y1065530D02*
D03*
Y1040130D02*
D03*
X1765300D02*
D03*
X1809750Y1268730D02*
D03*
X1784350D02*
D03*
X801370Y1432560D02*
D03*
X826770D02*
D03*
X953770D02*
D03*
X979170D02*
D03*
D49*
X1330960Y1601470D02*
D03*
X943610Y2044700D02*
D03*
D53*
X1907180Y919000D02*
D03*
D54*
X1535240Y1644590D02*
D03*
D56*
X1910600Y1828800D02*
D03*
X1913100Y1790300D02*
D03*
X1429400Y1170900D02*
D03*
X1479296Y1747012D02*
D03*
X1478788Y1754212D02*
D03*
Y1778254D02*
D03*
X1470660Y1754886D02*
D03*
X1502664Y1778254D02*
D03*
Y1746250D02*
D03*
X1471168Y1730248D02*
D03*
X1505712Y1728216D02*
D03*
X1413764Y1770380D02*
D03*
X1422654D02*
D03*
X1394206Y1189624D02*
D03*
X1386078Y1181608D02*
D03*
X1458280Y1205550D02*
D03*
X1542664Y1858264D02*
D03*
X1552194Y1737614D02*
D03*
X1313434Y2086864D02*
D03*
X1388872Y1818386D02*
D03*
X1430782Y1786382D02*
D03*
X1414697Y1818303D02*
D03*
X979678Y1254252D02*
D03*
X1454658Y1746250D02*
D03*
X1454718Y1754318D02*
D03*
X1534668Y1769364D02*
D03*
X1223264Y2184870D02*
D03*
X1136904Y1739590D02*
D03*
X1110996Y1715590D02*
D03*
X1914144Y1868860D02*
D03*
X2022602Y1860860D02*
D03*
X1068832Y1763590D02*
D03*
X2026158Y1788922D02*
D03*
X1088898Y1787652D02*
D03*
X1914144Y1782572D02*
D03*
X1110996Y1839722D02*
D03*
X1410379Y1167975D02*
D03*
X1386332Y1197582D02*
D03*
X1410232Y1189458D02*
D03*
X1454150Y1146302D02*
D03*
X1456182Y1262634D02*
D03*
X2152090Y910082D02*
D03*
X1771142Y1477858D02*
D03*
X1516380Y1278636D02*
D03*
X1426210Y1229614D02*
D03*
X1570990Y989330D02*
D03*
X1434338Y1229614D02*
D03*
X1425702Y1323594D02*
D03*
X1434338Y1189492D02*
D03*
X1453642Y1770380D02*
D03*
X1418336Y1197494D02*
D03*
X1526794Y1834388D02*
D03*
X2152142Y814832D02*
D03*
X2129320Y820420D02*
D03*
X1434338Y1197610D02*
D03*
X1910080Y1764030D02*
D03*
X1088898Y1741424D02*
D03*
X1113028Y1731590D02*
D03*
X1111504Y1747590D02*
D03*
X1187740Y1808450D02*
D03*
X1446784Y1786384D02*
D03*
X1518666Y1834388D02*
D03*
X1492132Y1648578D02*
D03*
X1480820Y1720000D02*
D03*
X1438656Y1794256D02*
D03*
X1518666Y1738334D02*
D03*
X1414740Y1826260D02*
D03*
X977900Y1854708D02*
D03*
X1832102Y1719326D02*
D03*
X1446784Y1738384D02*
D03*
X1378204Y1277112D02*
D03*
X1235964Y1419352D02*
D03*
X1370330Y1253490D02*
D03*
X999832Y1259498D02*
D03*
X1230122Y1415288D02*
D03*
X1378204Y1253490D02*
D03*
Y1245616D02*
D03*
X1450340Y1205484D02*
D03*
X2026158Y1830578D02*
D03*
X1914212Y1836860D02*
D03*
X2048256Y1812860D02*
D03*
X1085342Y1771590D02*
D03*
X976884Y1883664D02*
D03*
X1534668Y1858264D02*
D03*
M02*
