%FSLAX44Y44*%
%MOMM*%
G71*
G01*
G75*
G04 Layer_Color=2752767*
G04:AMPARAMS|DCode=10|XSize=3.5mm|YSize=2.05mm|CornerRadius=0.5125mm|HoleSize=0mm|Usage=FLASHONLY|Rotation=0.000|XOffset=0mm|YOffset=0mm|HoleType=Round|Shape=RoundedRectangle|*
%AMROUNDEDRECTD10*
21,1,3.5000,1.0250,0,0,0.0*
21,1,2.4750,2.0500,0,0,0.0*
1,1,1.0250,1.2375,-0.5125*
1,1,1.0250,-1.2375,-0.5125*
1,1,1.0250,-1.2375,0.5125*
1,1,1.0250,1.2375,0.5125*
%
%ADD10ROUNDEDRECTD10*%
G04:AMPARAMS|DCode=11|XSize=4mm|YSize=2.05mm|CornerRadius=0.5125mm|HoleSize=0mm|Usage=FLASHONLY|Rotation=0.000|XOffset=0mm|YOffset=0mm|HoleType=Round|Shape=RoundedRectangle|*
%AMROUNDEDRECTD11*
21,1,4.0000,1.0250,0,0,0.0*
21,1,2.9750,2.0500,0,0,0.0*
1,1,1.0250,1.4875,-0.5125*
1,1,1.0250,-1.4875,-0.5125*
1,1,1.0250,-1.4875,0.5125*
1,1,1.0250,1.4875,0.5125*
%
%ADD11ROUNDEDRECTD11*%
G04:AMPARAMS|DCode=12|XSize=3.5mm|YSize=2.05mm|CornerRadius=0.5125mm|HoleSize=0mm|Usage=FLASHONLY|Rotation=0.000|XOffset=0mm|YOffset=0mm|HoleType=Round|Shape=RoundedRectangle|*
%AMROUNDEDRECTD12*
21,1,3.5000,1.0250,0,0,0.0*
21,1,2.4750,2.0500,0,0,0.0*
1,1,1.0250,1.2375,-0.5125*
1,1,1.0250,-1.2375,-0.5125*
1,1,1.0250,-1.2375,0.5125*
1,1,1.0250,1.2375,0.5125*
%
%ADD12ROUNDEDRECTD12*%
G04:AMPARAMS|DCode=13|XSize=2.8mm|YSize=0.5mm|CornerRadius=0.125mm|HoleSize=0mm|Usage=FLASHONLY|Rotation=0.000|XOffset=0mm|YOffset=0mm|HoleType=Round|Shape=RoundedRectangle|*
%AMROUNDEDRECTD13*
21,1,2.8000,0.2500,0,0,0.0*
21,1,2.5500,0.5000,0,0,0.0*
1,1,0.2500,1.2750,-0.1250*
1,1,0.2500,-1.2750,-0.1250*
1,1,0.2500,-1.2750,0.1250*
1,1,0.2500,1.2750,0.1250*
%
%ADD13ROUNDEDRECTD13*%
%ADD14R,1.0000X0.7000*%
%ADD15R,0.8500X0.7000*%
%ADD16R,2.1000X1.4000*%
%ADD17R,1.1000X1.7000*%
%ADD18O,1.6000X0.5500*%
%ADD19R,1.1000X2.6000*%
%ADD20R,1.1000X0.6000*%
%ADD21O,0.4500X1.8000*%
%ADD22R,1.0000X2.1500*%
%ADD23R,3.2500X2.1500*%
%ADD24R,2.6000X1.2000*%
%ADD25R,1.2000X2.6000*%
%ADD26R,1.7000X1.1000*%
%ADD27R,0.9500X1.7000*%
%ADD28R,1.3000X1.9000*%
%ADD29C,0.4500*%
%ADD30R,2.6000X1.1000*%
%ADD31R,0.3000X1.9000*%
%ADD32C,0.3600*%
%ADD33R,1.0000X2.4000*%
%ADD34R,3.3000X2.4000*%
G04:AMPARAMS|DCode=35|XSize=3.5mm|YSize=2.05mm|CornerRadius=0.5125mm|HoleSize=0mm|Usage=FLASHONLY|Rotation=270.000|XOffset=0mm|YOffset=0mm|HoleType=Round|Shape=RoundedRectangle|*
%AMROUNDEDRECTD35*
21,1,3.5000,1.0250,0,0,270.0*
21,1,2.4750,2.0500,0,0,270.0*
1,1,1.0250,-0.5125,-1.2375*
1,1,1.0250,-0.5125,1.2375*
1,1,1.0250,0.5125,1.2375*
1,1,1.0250,0.5125,-1.2375*
%
%ADD35ROUNDEDRECTD35*%
G04:AMPARAMS|DCode=36|XSize=4mm|YSize=2.05mm|CornerRadius=0.5125mm|HoleSize=0mm|Usage=FLASHONLY|Rotation=270.000|XOffset=0mm|YOffset=0mm|HoleType=Round|Shape=RoundedRectangle|*
%AMROUNDEDRECTD36*
21,1,4.0000,1.0250,0,0,270.0*
21,1,2.9750,2.0500,0,0,270.0*
1,1,1.0250,-0.5125,-1.4875*
1,1,1.0250,-0.5125,1.4875*
1,1,1.0250,0.5125,1.4875*
1,1,1.0250,0.5125,-1.4875*
%
%ADD36ROUNDEDRECTD36*%
G04:AMPARAMS|DCode=37|XSize=3.5mm|YSize=2.05mm|CornerRadius=0.5125mm|HoleSize=0mm|Usage=FLASHONLY|Rotation=270.000|XOffset=0mm|YOffset=0mm|HoleType=Round|Shape=RoundedRectangle|*
%AMROUNDEDRECTD37*
21,1,3.5000,1.0250,0,0,270.0*
21,1,2.4750,2.0500,0,0,270.0*
1,1,1.0250,-0.5125,-1.2375*
1,1,1.0250,-0.5125,1.2375*
1,1,1.0250,0.5125,1.2375*
1,1,1.0250,0.5125,-1.2375*
%
%ADD37ROUNDEDRECTD37*%
G04:AMPARAMS|DCode=38|XSize=2.8mm|YSize=0.5mm|CornerRadius=0.125mm|HoleSize=0mm|Usage=FLASHONLY|Rotation=270.000|XOffset=0mm|YOffset=0mm|HoleType=Round|Shape=RoundedRectangle|*
%AMROUNDEDRECTD38*
21,1,2.8000,0.2500,0,0,270.0*
21,1,2.5500,0.5000,0,0,270.0*
1,1,0.2500,-0.1250,-1.2750*
1,1,0.2500,-0.1250,1.2750*
1,1,0.2500,0.1250,1.2750*
1,1,0.2500,0.1250,-1.2750*
%
%ADD38ROUNDEDRECTD38*%
%ADD39R,1.8000X2.0000*%
%ADD40R,3.0000X2.5000*%
%ADD41C,0.2000*%
%ADD42C,0.1000*%
%ADD43C,0.2540*%
%ADD44C,0.8000*%
%ADD45C,1.0000*%
%ADD46C,0.5000*%
%ADD47C,1.4000*%
%ADD48C,1.5000*%
%ADD49R,1.5000X1.5000*%
%ADD50C,0.9000*%
%ADD51C,4.7600*%
%ADD52R,1.6900X1.6900*%
%ADD53C,1.6900*%
%ADD54R,1.5000X1.5000*%
%ADD55C,1.5240*%
%ADD56C,0.4000*%
%ADD57C,7.0000*%
%ADD58C,1.3000*%
%ADD59C,2.1000*%
%ADD60C,1.0160*%
%ADD61C,1.4080*%
%ADD62C,1.4080*%
%ADD63C,3.7680*%
%ADD64C,1.5980*%
%ADD65C,1.8080*%
%ADD66C,0.7080*%
%ADD67C,5.5080*%
%ADD68C,2.1080*%
%ADD69C,0.4000*%
%ADD70C,0.2500*%
%ADD71C,0.6000*%
%ADD72C,0.2032*%
%ADD73C,0.1500*%
%ADD74C,0.7000*%
G04:AMPARAMS|DCode=75|XSize=3.7032mm|YSize=2.2532mm|CornerRadius=0.6141mm|HoleSize=0mm|Usage=FLASHONLY|Rotation=0.000|XOffset=0mm|YOffset=0mm|HoleType=Round|Shape=RoundedRectangle|*
%AMROUNDEDRECTD75*
21,1,3.7032,1.0250,0,0,0.0*
21,1,2.4750,2.2532,0,0,0.0*
1,1,1.2282,1.2375,-0.5125*
1,1,1.2282,-1.2375,-0.5125*
1,1,1.2282,-1.2375,0.5125*
1,1,1.2282,1.2375,0.5125*
%
%ADD75ROUNDEDRECTD75*%
G04:AMPARAMS|DCode=76|XSize=4.2032mm|YSize=2.2532mm|CornerRadius=0.6141mm|HoleSize=0mm|Usage=FLASHONLY|Rotation=0.000|XOffset=0mm|YOffset=0mm|HoleType=Round|Shape=RoundedRectangle|*
%AMROUNDEDRECTD76*
21,1,4.2032,1.0250,0,0,0.0*
21,1,2.9750,2.2532,0,0,0.0*
1,1,1.2282,1.4875,-0.5125*
1,1,1.2282,-1.4875,-0.5125*
1,1,1.2282,-1.4875,0.5125*
1,1,1.2282,1.4875,0.5125*
%
%ADD76ROUNDEDRECTD76*%
G04:AMPARAMS|DCode=77|XSize=3.7032mm|YSize=2.2532mm|CornerRadius=0.6141mm|HoleSize=0mm|Usage=FLASHONLY|Rotation=0.000|XOffset=0mm|YOffset=0mm|HoleType=Round|Shape=RoundedRectangle|*
%AMROUNDEDRECTD77*
21,1,3.7032,1.0250,0,0,0.0*
21,1,2.4750,2.2532,0,0,0.0*
1,1,1.2282,1.2375,-0.5125*
1,1,1.2282,-1.2375,-0.5125*
1,1,1.2282,-1.2375,0.5125*
1,1,1.2282,1.2375,0.5125*
%
%ADD77ROUNDEDRECTD77*%
G04:AMPARAMS|DCode=78|XSize=3.0032mm|YSize=0.7032mm|CornerRadius=0.2266mm|HoleSize=0mm|Usage=FLASHONLY|Rotation=0.000|XOffset=0mm|YOffset=0mm|HoleType=Round|Shape=RoundedRectangle|*
%AMROUNDEDRECTD78*
21,1,3.0032,0.2500,0,0,0.0*
21,1,2.5500,0.7032,0,0,0.0*
1,1,0.4532,1.2750,-0.1250*
1,1,0.4532,-1.2750,-0.1250*
1,1,0.4532,-1.2750,0.1250*
1,1,0.4532,1.2750,0.1250*
%
%ADD78ROUNDEDRECTD78*%
%ADD79R,1.2032X0.9032*%
%ADD80R,1.0532X0.9032*%
%ADD81R,2.3032X1.6032*%
%ADD82R,1.3032X1.9032*%
%ADD83O,1.8032X0.7532*%
%ADD84R,1.3032X2.8032*%
%ADD85R,1.3032X0.8032*%
%ADD86O,0.6532X2.0032*%
%ADD87R,1.2032X2.3532*%
%ADD88R,3.4532X2.3532*%
%ADD89R,2.8032X1.4032*%
%ADD90R,1.4032X2.8032*%
%ADD91R,1.9032X1.3032*%
%ADD92R,1.1532X1.9032*%
%ADD93R,1.5032X2.1032*%
%ADD94C,0.5700*%
%ADD95R,2.8032X1.3032*%
%ADD96R,0.5032X2.1032*%
%ADD97C,0.4800*%
%ADD98R,1.2032X2.6032*%
%ADD99R,3.5032X2.6032*%
G04:AMPARAMS|DCode=100|XSize=3.7032mm|YSize=2.2532mm|CornerRadius=0.6141mm|HoleSize=0mm|Usage=FLASHONLY|Rotation=270.000|XOffset=0mm|YOffset=0mm|HoleType=Round|Shape=RoundedRectangle|*
%AMROUNDEDRECTD100*
21,1,3.7032,1.0250,0,0,270.0*
21,1,2.4750,2.2532,0,0,270.0*
1,1,1.2282,-0.5125,-1.2375*
1,1,1.2282,-0.5125,1.2375*
1,1,1.2282,0.5125,1.2375*
1,1,1.2282,0.5125,-1.2375*
%
%ADD100ROUNDEDRECTD100*%
G04:AMPARAMS|DCode=101|XSize=4.2032mm|YSize=2.2532mm|CornerRadius=0.6141mm|HoleSize=0mm|Usage=FLASHONLY|Rotation=270.000|XOffset=0mm|YOffset=0mm|HoleType=Round|Shape=RoundedRectangle|*
%AMROUNDEDRECTD101*
21,1,4.2032,1.0250,0,0,270.0*
21,1,2.9750,2.2532,0,0,270.0*
1,1,1.2282,-0.5125,-1.4875*
1,1,1.2282,-0.5125,1.4875*
1,1,1.2282,0.5125,1.4875*
1,1,1.2282,0.5125,-1.4875*
%
%ADD101ROUNDEDRECTD101*%
G04:AMPARAMS|DCode=102|XSize=3.7032mm|YSize=2.2532mm|CornerRadius=0.6141mm|HoleSize=0mm|Usage=FLASHONLY|Rotation=270.000|XOffset=0mm|YOffset=0mm|HoleType=Round|Shape=RoundedRectangle|*
%AMROUNDEDRECTD102*
21,1,3.7032,1.0250,0,0,270.0*
21,1,2.4750,2.2532,0,0,270.0*
1,1,1.2282,-0.5125,-1.2375*
1,1,1.2282,-0.5125,1.2375*
1,1,1.2282,0.5125,1.2375*
1,1,1.2282,0.5125,-1.2375*
%
%ADD102ROUNDEDRECTD102*%
G04:AMPARAMS|DCode=103|XSize=3.0032mm|YSize=0.7032mm|CornerRadius=0.2266mm|HoleSize=0mm|Usage=FLASHONLY|Rotation=270.000|XOffset=0mm|YOffset=0mm|HoleType=Round|Shape=RoundedRectangle|*
%AMROUNDEDRECTD103*
21,1,3.0032,0.2500,0,0,270.0*
21,1,2.5500,0.7032,0,0,270.0*
1,1,0.4532,-0.1250,-1.2750*
1,1,0.4532,-0.1250,1.2750*
1,1,0.4532,0.1250,1.2750*
1,1,0.4532,0.1250,-1.2750*
%
%ADD103ROUNDEDRECTD103*%
%ADD104R,2.0032X2.2032*%
%ADD105R,3.2032X2.7032*%
%ADD106C,1.7032*%
%ADD107R,1.7032X1.7032*%
%ADD108C,1.1032*%
%ADD109C,4.9632*%
%ADD110R,1.8932X1.8932*%
%ADD111C,1.8932*%
%ADD112R,1.7032X1.7032*%
%ADD113C,1.7272*%
%ADD114C,0.6032*%
%ADD115C,7.2032*%
%ADD116C,1.5032*%
%ADD117C,2.3032*%
%ADD118C,0.3000*%
%ADD119C,0.0500*%
%ADD120C,0.1270*%
%ADD121C,0.1693*%
D120*
X868680Y1570990D02*
Y1581150D01*
X878840D01*
Y1570990D01*
X868680D01*
Y1596390D02*
Y1606550D01*
X878840D01*
Y1596390D01*
X868680D01*
X894080Y1570990D02*
Y1581150D01*
X904240D01*
Y1570990D01*
X894080D01*
Y1596390D02*
Y1606550D01*
X904240D01*
Y1596390D01*
X894080D01*
X919480Y1570990D02*
Y1581150D01*
X929640D01*
Y1570990D01*
X919480D01*
Y1596390D02*
Y1606550D01*
X929640D01*
Y1596390D01*
X919480D01*
X944880Y1570990D02*
Y1581150D01*
X955040D01*
Y1570990D01*
X944880D01*
Y1596390D02*
Y1606550D01*
X955040D01*
Y1596390D01*
X944880D01*
X970280Y1570990D02*
Y1581150D01*
X980440D01*
Y1570990D01*
X970280D01*
Y1596390D02*
Y1606550D01*
X980440D01*
Y1596390D01*
X970280D01*
X995680Y1570990D02*
Y1581150D01*
X1005840D01*
Y1570990D01*
X995680D01*
Y1596390D02*
Y1606550D01*
X1005840D01*
Y1596390D01*
X995680D01*
X1021080Y1570990D02*
Y1581150D01*
X1031240D01*
Y1570990D01*
X1021080D01*
Y1596390D02*
Y1606550D01*
X1031240D01*
Y1596390D01*
X1021080D01*
X1046480Y1570990D02*
Y1581150D01*
X1056640D01*
Y1570990D01*
X1046480D01*
Y1596390D02*
Y1606550D01*
X1056640D01*
Y1596390D01*
X1046480D01*
X1071880Y1570990D02*
Y1581150D01*
X1082040D01*
Y1570990D01*
X1071880D01*
Y1596390D02*
Y1606550D01*
X1082040D01*
Y1596390D01*
X1071880D01*
X1097280Y1570990D02*
Y1581150D01*
X1107440D01*
Y1570990D01*
X1097280D01*
Y1596390D02*
Y1606550D01*
X1107440D01*
Y1596390D01*
X1097280D01*
X1122680Y1570990D02*
Y1581150D01*
X1132840D01*
Y1570990D01*
X1122680D01*
Y1596390D02*
Y1606550D01*
X1132840D01*
Y1596390D01*
X1122680D01*
X1148080Y1570990D02*
Y1581150D01*
X1158240D01*
Y1570990D01*
X1148080D01*
Y1596390D02*
Y1606550D01*
X1158240D01*
Y1596390D01*
X1148080D01*
X1173480Y1570990D02*
Y1581150D01*
X1183640D01*
Y1570990D01*
X1173480D01*
Y1596390D02*
Y1606550D01*
X1183640D01*
Y1596390D01*
X1173480D01*
X1198880Y1570990D02*
Y1581150D01*
X1209040D01*
Y1570990D01*
X1198880D01*
Y1596390D02*
Y1606550D01*
X1209040D01*
Y1596390D01*
X1198880D01*
X1224280Y1570990D02*
Y1581150D01*
X1234440D01*
Y1570990D01*
X1224280D01*
Y1596390D02*
Y1606550D01*
X1234440D01*
Y1596390D01*
X1224280D01*
X1249680Y1570990D02*
Y1581150D01*
X1259840D01*
Y1570990D01*
X1249680D01*
Y1596390D02*
Y1606550D01*
X1259840D01*
Y1596390D01*
X1249680D01*
X1275080Y1570990D02*
Y1581150D01*
X1285240D01*
Y1570990D01*
X1275080D01*
Y1596390D02*
Y1606550D01*
X1285240D01*
Y1596390D01*
X1275080D01*
X1300480Y1570990D02*
Y1581150D01*
X1310640D01*
Y1570990D01*
X1300480D01*
Y1596390D02*
Y1606550D01*
X1310640D01*
Y1596390D01*
X1300480D01*
X1325880Y1570990D02*
Y1581150D01*
X1336040D01*
Y1570990D01*
X1325880D01*
Y1596390D02*
Y1606550D01*
X1336040D01*
Y1596390D01*
X1325880D01*
X1740680Y928120D02*
X1735600Y938280D01*
X1745760D01*
X1740680Y928120D01*
X1990580D02*
X1985500Y938280D01*
X1995660D01*
X1990580Y928120D01*
X1921030Y942320D02*
X1923570Y944860D01*
X1926110D01*
X1923570Y947400D01*
X1926110Y949940D01*
X1923570D01*
X1921030Y952480D01*
X1918490Y949940D01*
X1915950D01*
X1918490Y947400D01*
X1915950Y944860D01*
X1918490D01*
X1921030Y942320D01*
X1907180Y913920D02*
X1909720Y916460D01*
X1912260D01*
X1909720Y919000D01*
X1912260Y921540D01*
X1909720D01*
X1907180Y924080D01*
X1904640Y921540D01*
X1902100D01*
X1904640Y919000D01*
X1902100Y916460D01*
X1904640D01*
X1907180Y913920D01*
X1893330Y942320D02*
X1895870Y944860D01*
X1898410D01*
X1895870Y947400D01*
X1898410Y949940D01*
X1895870D01*
X1893330Y952480D01*
X1890790Y949940D01*
X1888250D01*
X1890790Y947400D01*
X1888250Y944860D01*
X1890790D01*
X1893330Y942320D01*
X1879480Y913920D02*
X1882020Y916460D01*
X1884560D01*
X1882020Y919000D01*
X1884560Y921540D01*
X1882020D01*
X1879480Y924080D01*
X1876940Y921540D01*
X1874400D01*
X1876940Y919000D01*
X1874400Y916460D01*
X1876940D01*
X1879480Y913920D01*
X1865630Y942320D02*
X1868170Y944860D01*
X1870710D01*
X1868170Y947400D01*
X1870710Y949940D01*
X1868170D01*
X1865630Y952480D01*
X1863090Y949940D01*
X1860550D01*
X1863090Y947400D01*
X1860550Y944860D01*
X1863090D01*
X1865630Y942320D01*
X1851780Y913920D02*
X1854320Y916460D01*
X1856860D01*
X1854320Y919000D01*
X1856860Y921540D01*
X1854320D01*
X1851780Y924080D01*
X1849240Y921540D01*
X1846700D01*
X1849240Y919000D01*
X1846700Y916460D01*
X1849240D01*
X1851780Y913920D01*
X1837930Y942320D02*
X1840470Y944860D01*
X1843010D01*
X1840470Y947400D01*
X1843010Y949940D01*
X1840470D01*
X1837930Y952480D01*
X1835390Y949940D01*
X1832850D01*
X1835390Y947400D01*
X1832850Y944860D01*
X1835390D01*
X1837930Y942320D01*
X1824080Y913920D02*
X1826620Y916460D01*
X1829160D01*
X1826620Y919000D01*
X1829160Y921540D01*
X1826620D01*
X1824080Y924080D01*
X1821540Y921540D01*
X1819000D01*
X1821540Y919000D01*
X1819000Y916460D01*
X1821540D01*
X1824080Y913920D01*
X1810230Y942320D02*
X1812770Y944860D01*
X1815310D01*
X1812770Y947400D01*
X1815310Y949940D01*
X1812770D01*
X1810230Y952480D01*
X1807690Y949940D01*
X1805150D01*
X1807690Y947400D01*
X1805150Y944860D01*
X1807690D01*
X1810230Y942320D01*
X1197610Y1741170D02*
Y1751330D01*
X1207770D01*
Y1741170D01*
X1197610D01*
X1172210D02*
Y1751330D01*
X1182370D01*
Y1741170D01*
X1172210D01*
X1197610Y1766570D02*
Y1776730D01*
X1207770D01*
Y1766570D01*
X1197610D01*
X1172210D02*
Y1776730D01*
X1182370D01*
Y1766570D01*
X1172210D01*
X1197610Y1791970D02*
Y1802130D01*
X1207770D01*
Y1791970D01*
X1197610D01*
X1172210D02*
Y1802130D01*
X1182370D01*
Y1791970D01*
X1172210D01*
X1197610Y1817370D02*
Y1827530D01*
X1207770D01*
Y1817370D01*
X1197610D01*
X1172210D02*
Y1827530D01*
X1182370D01*
Y1817370D01*
X1172210D01*
X1780540Y1837690D02*
Y1847850D01*
X1790700D01*
Y1837690D01*
X1780540D01*
X1805940D02*
Y1847850D01*
X1816100D01*
Y1837690D01*
X1805940D01*
X1780540Y1812290D02*
Y1822450D01*
X1790700D01*
Y1812290D01*
X1780540D01*
X1805940D02*
Y1822450D01*
X1816100D01*
Y1812290D01*
X1805940D01*
X1780540Y1786890D02*
Y1797050D01*
X1790700D01*
Y1786890D01*
X1780540D01*
X1805940D02*
Y1797050D01*
X1816100D01*
Y1786890D01*
X1805940D01*
X1780540Y1761490D02*
Y1771650D01*
X1790700D01*
Y1761490D01*
X1780540D01*
X1805940D02*
Y1771650D01*
X1816100D01*
Y1761490D01*
X1805940D01*
X543220Y2100120D02*
Y2110280D01*
X553380D01*
Y2100120D01*
X543220D01*
X568620D02*
Y2110280D01*
X578780D01*
Y2100120D01*
X568620D01*
X537520Y1723520D02*
Y1733680D01*
X547680D01*
Y1723520D01*
X537520D01*
X562920D02*
Y1733680D01*
X573080D01*
Y1723520D01*
X562920D01*
X588320D02*
Y1733680D01*
X598480D01*
Y1723520D01*
X588320D01*
X613720D02*
Y1733680D01*
X623880D01*
Y1723520D01*
X613720D01*
X639120D02*
Y1733680D01*
X649280D01*
Y1723520D01*
X639120D01*
X664520D02*
Y1733680D01*
X674680D01*
Y1723520D01*
X664520D01*
X689920D02*
Y1733680D01*
X700080D01*
Y1723520D01*
X689920D01*
X715320D02*
Y1733680D01*
X725480D01*
Y1723520D01*
X715320D01*
X740720D02*
Y1733680D01*
X750880D01*
Y1723520D01*
X740720D01*
X766120D02*
Y1733680D01*
X776280D01*
Y1723520D01*
X766120D01*
X791520D02*
Y1733680D01*
X801680D01*
Y1723520D01*
X791520D01*
X537320Y2028520D02*
Y2038680D01*
X547480D01*
Y2028520D01*
X537320D01*
X562720D02*
Y2038680D01*
X572880D01*
Y2028520D01*
X562720D01*
X588120D02*
Y2038680D01*
X598280D01*
Y2028520D01*
X588120D01*
X613520D02*
Y2038680D01*
X623680D01*
Y2028520D01*
X613520D01*
X638920D02*
Y2038680D01*
X649080D01*
Y2028520D01*
X638920D01*
X664320D02*
Y2038680D01*
X674480D01*
Y2028520D01*
X664320D01*
X689720D02*
Y2038680D01*
X699880D01*
Y2028520D01*
X689720D01*
X715120D02*
Y2038680D01*
X725280D01*
Y2028520D01*
X715120D01*
X740520D02*
Y2038680D01*
X750680D01*
Y2028520D01*
X740520D01*
X765920D02*
Y2038680D01*
X776080D01*
Y2028520D01*
X765920D01*
X791320D02*
Y2038680D01*
X801480D01*
Y2028520D01*
X791320D01*
X704620Y2107920D02*
Y2118080D01*
X714780D01*
Y2107920D01*
X704620D01*
Y2082520D02*
Y2092680D01*
X714780D01*
Y2082520D01*
X704620D01*
X679220Y2107920D02*
Y2118080D01*
X689380D01*
Y2107920D01*
X679220D01*
Y2082520D02*
Y2092680D01*
X689380D01*
Y2082520D01*
X679220D01*
X1374140Y1451610D02*
Y1461770D01*
X1384300D01*
Y1451610D01*
X1374140D01*
Y1426210D02*
Y1436370D01*
X1384300D01*
Y1426210D01*
X1374140D01*
X1348740Y1451610D02*
Y1461770D01*
X1358900D01*
Y1451610D01*
X1348740D01*
Y1426210D02*
Y1436370D01*
X1358900D01*
Y1426210D01*
X1348740D01*
X1323340Y1451610D02*
Y1461770D01*
X1333500D01*
Y1451610D01*
X1323340D01*
Y1426210D02*
Y1436370D01*
X1333500D01*
Y1426210D01*
X1323340D01*
X1297940Y1451610D02*
Y1461770D01*
X1308100D01*
Y1451610D01*
X1297940D01*
Y1426210D02*
Y1436370D01*
X1308100D01*
Y1426210D01*
X1297940D01*
X1272540Y1451610D02*
Y1461770D01*
X1282700D01*
Y1451610D01*
X1272540D01*
Y1426210D02*
Y1436370D01*
X1282700D01*
Y1426210D01*
X1272540D01*
X2009140Y1451610D02*
Y1461770D01*
X2019300D01*
Y1451610D01*
X2009140D01*
Y1426210D02*
Y1436370D01*
X2019300D01*
Y1426210D01*
X2009140D01*
X1983740Y1451610D02*
Y1461770D01*
X1993900D01*
Y1451610D01*
X1983740D01*
Y1426210D02*
Y1436370D01*
X1993900D01*
Y1426210D01*
X1983740D01*
X1958340Y1451610D02*
Y1461770D01*
X1968500D01*
Y1451610D01*
X1958340D01*
Y1426210D02*
Y1436370D01*
X1968500D01*
Y1426210D01*
X1958340D01*
X1932940Y1451610D02*
Y1461770D01*
X1943100D01*
Y1451610D01*
X1932940D01*
Y1426210D02*
Y1436370D01*
X1943100D01*
Y1426210D01*
X1932940D01*
X1907540Y1451610D02*
Y1461770D01*
X1917700D01*
Y1451610D01*
X1907540D01*
Y1426210D02*
Y1436370D01*
X1917700D01*
Y1426210D01*
X1907540D01*
X1882140Y1451610D02*
Y1461770D01*
X1892300D01*
Y1451610D01*
X1882140D01*
Y1426210D02*
Y1436370D01*
X1892300D01*
Y1426210D01*
X1882140D01*
X1856740Y1451610D02*
Y1461770D01*
X1866900D01*
Y1451610D01*
X1856740D01*
Y1426210D02*
Y1436370D01*
X1866900D01*
Y1426210D01*
X1856740D01*
X1831340Y1451610D02*
Y1461770D01*
X1841500D01*
Y1451610D01*
X1831340D01*
Y1426210D02*
Y1436370D01*
X1841500D01*
Y1426210D01*
X1831340D01*
X1805940Y1451610D02*
Y1461770D01*
X1816100D01*
Y1451610D01*
X1805940D01*
Y1426210D02*
Y1436370D01*
X1816100D01*
Y1426210D01*
X1805940D01*
X1780540Y1451610D02*
Y1461770D01*
X1790700D01*
Y1451610D01*
X1780540D01*
Y1426210D02*
Y1436370D01*
X1790700D01*
Y1426210D01*
X1780540D01*
X1755140Y1451610D02*
Y1461770D01*
X1765300D01*
Y1451610D01*
X1755140D01*
Y1426210D02*
Y1436370D01*
X1765300D01*
Y1426210D01*
X1755140D01*
X1729740Y1451610D02*
Y1461770D01*
X1739900D01*
Y1451610D01*
X1729740D01*
Y1426210D02*
Y1436370D01*
X1739900D01*
Y1426210D01*
X1729740D01*
X1704340Y1451610D02*
Y1461770D01*
X1714500D01*
Y1451610D01*
X1704340D01*
Y1426210D02*
Y1436370D01*
X1714500D01*
Y1426210D01*
X1704340D01*
X1678940Y1451610D02*
Y1461770D01*
X1689100D01*
Y1451610D01*
X1678940D01*
Y1426210D02*
Y1436370D01*
X1689100D01*
Y1426210D01*
X1678940D01*
X1653540Y1451610D02*
Y1461770D01*
X1663700D01*
Y1451610D01*
X1653540D01*
Y1426210D02*
Y1436370D01*
X1663700D01*
Y1426210D01*
X1653540D01*
X1628140Y1451610D02*
Y1461770D01*
X1638300D01*
Y1451610D01*
X1628140D01*
Y1426210D02*
Y1436370D01*
X1638300D01*
Y1426210D01*
X1628140D01*
X1602740Y1451610D02*
Y1461770D01*
X1612900D01*
Y1451610D01*
X1602740D01*
Y1426210D02*
Y1436370D01*
X1612900D01*
Y1426210D01*
X1602740D01*
X1577340Y1451610D02*
Y1461770D01*
X1587500D01*
Y1451610D01*
X1577340D01*
Y1426210D02*
Y1436370D01*
X1587500D01*
Y1426210D01*
X1577340D01*
X1551940Y1451610D02*
Y1461770D01*
X1562100D01*
Y1451610D01*
X1551940D01*
Y1426210D02*
Y1436370D01*
X1562100D01*
Y1426210D01*
X1551940D01*
X1526540Y1451610D02*
Y1461770D01*
X1536700D01*
Y1451610D01*
X1526540D01*
Y1426210D02*
Y1436370D01*
X1536700D01*
Y1426210D01*
X1526540D01*
X1501140Y1451610D02*
Y1461770D01*
X1511300D01*
Y1451610D01*
X1501140D01*
Y1426210D02*
Y1436370D01*
X1511300D01*
Y1426210D01*
X1501140D01*
X1475740Y1451610D02*
Y1461770D01*
X1485900D01*
Y1451610D01*
X1475740D01*
Y1426210D02*
Y1436370D01*
X1485900D01*
Y1426210D01*
X1475740D01*
X1450340Y1451610D02*
Y1461770D01*
X1460500D01*
Y1451610D01*
X1450340D01*
Y1426210D02*
Y1436370D01*
X1460500D01*
Y1426210D01*
X1450340D01*
X1424940Y1451610D02*
Y1461770D01*
X1435100D01*
Y1451610D01*
X1424940D01*
Y1426210D02*
Y1436370D01*
X1435100D01*
Y1426210D01*
X1424940D01*
X1399540Y1451610D02*
Y1461770D01*
X1409700D01*
Y1451610D01*
X1399540D01*
Y1426210D02*
Y1436370D01*
X1409700D01*
Y1426210D01*
X1399540D01*
X535820Y955040D02*
Y965200D01*
X545980D01*
Y955040D01*
X535820D01*
X561220D02*
Y965200D01*
X571380D01*
Y955040D01*
X561220D01*
X586620D02*
Y965200D01*
X596780D01*
Y955040D01*
X586620D01*
X612020D02*
Y965200D01*
X622180D01*
Y955040D01*
X612020D01*
X637420D02*
Y965200D01*
X647580D01*
Y955040D01*
X637420D01*
X662820D02*
Y965200D01*
X672980D01*
Y955040D01*
X662820D01*
X688220D02*
Y965200D01*
X698380D01*
Y955040D01*
X688220D01*
X713620D02*
Y965200D01*
X723780D01*
Y955040D01*
X713620D01*
X739020D02*
Y965200D01*
X749180D01*
Y955040D01*
X739020D01*
X764420D02*
Y965200D01*
X774580D01*
Y955040D01*
X764420D01*
X789820D02*
Y965200D01*
X799980D01*
Y955040D01*
X789820D01*
X535820Y1260020D02*
Y1270180D01*
X545980D01*
Y1260020D01*
X535820D01*
X561220D02*
Y1270180D01*
X571380D01*
Y1260020D01*
X561220D01*
X586620D02*
Y1270180D01*
X596780D01*
Y1260020D01*
X586620D01*
X612020D02*
Y1270180D01*
X622180D01*
Y1260020D01*
X612020D01*
X637420D02*
Y1270180D01*
X647580D01*
Y1260020D01*
X637420D01*
X662820D02*
Y1270180D01*
X672980D01*
Y1260020D01*
X662820D01*
X688220D02*
Y1270180D01*
X698380D01*
Y1260020D01*
X688220D01*
X713620D02*
Y1270180D01*
X723780D01*
Y1260020D01*
X713620D01*
X739020D02*
Y1270180D01*
X749180D01*
Y1260020D01*
X739020D01*
X764420D02*
Y1270180D01*
X774580D01*
Y1260020D01*
X764420D01*
X789820D02*
Y1270180D01*
X799980D01*
Y1260020D01*
X789820D01*
X739140Y831850D02*
Y842010D01*
X749300D01*
Y831850D01*
X739140D01*
X764540D02*
Y842010D01*
X774700D01*
Y831850D01*
X764540D01*
X739140Y806450D02*
Y816610D01*
X749300D01*
Y806450D01*
X739140D01*
X764540D02*
Y816610D01*
X774700D01*
Y806450D01*
X764540D01*
X626110Y796290D02*
Y806450D01*
X636270D01*
Y796290D01*
X626110D01*
Y821690D02*
Y831850D01*
X636270D01*
Y821690D01*
X626110D01*
X1319530Y2065020D02*
Y2075180D01*
X1329690D01*
Y2065020D01*
X1319530D01*
Y2039620D02*
Y2049780D01*
X1329690D01*
Y2039620D01*
X1319530D01*
X1294130Y2065020D02*
Y2075180D01*
X1304290D01*
Y2065020D01*
X1294130D01*
Y2039620D02*
Y2049780D01*
X1304290D01*
Y2039620D01*
X1294130D01*
X1268730Y2065020D02*
Y2075180D01*
X1278890D01*
Y2065020D01*
X1268730D01*
Y2039620D02*
Y2049780D01*
X1278890D01*
Y2039620D01*
X1268730D01*
X1243330Y2065020D02*
Y2075180D01*
X1253490D01*
Y2065020D01*
X1243330D01*
Y2039620D02*
Y2049780D01*
X1253490D01*
Y2039620D01*
X1243330D01*
X1217930Y2065020D02*
Y2075180D01*
X1228090D01*
Y2065020D01*
X1217930D01*
Y2039620D02*
Y2049780D01*
X1228090D01*
Y2039620D01*
X1217930D01*
X1192530Y2065020D02*
Y2075180D01*
X1202690D01*
Y2065020D01*
X1192530D01*
Y2039620D02*
Y2049780D01*
X1202690D01*
Y2039620D01*
X1192530D01*
X1167130Y2065020D02*
Y2075180D01*
X1177290D01*
Y2065020D01*
X1167130D01*
Y2039620D02*
Y2049780D01*
X1177290D01*
Y2039620D01*
X1167130D01*
X1141730Y2065020D02*
Y2075180D01*
X1151890D01*
Y2065020D01*
X1141730D01*
Y2039620D02*
Y2049780D01*
X1151890D01*
Y2039620D01*
X1141730D01*
X1116330Y2065020D02*
Y2075180D01*
X1126490D01*
Y2065020D01*
X1116330D01*
Y2039620D02*
Y2049780D01*
X1126490D01*
Y2039620D01*
X1116330D01*
X1090930Y2065020D02*
Y2075180D01*
X1101090D01*
Y2065020D01*
X1090930D01*
Y2039620D02*
Y2049780D01*
X1101090D01*
Y2039620D01*
X1090930D01*
X1065530Y2065020D02*
Y2075180D01*
X1075690D01*
Y2065020D01*
X1065530D01*
Y2039620D02*
Y2049780D01*
X1075690D01*
Y2039620D01*
X1065530D01*
X1040130Y2065020D02*
Y2075180D01*
X1050290D01*
Y2065020D01*
X1040130D01*
Y2039620D02*
Y2049780D01*
X1050290D01*
Y2039620D01*
X1040130D01*
X1014730Y2065020D02*
Y2075180D01*
X1024890D01*
Y2065020D01*
X1014730D01*
Y2039620D02*
Y2049780D01*
X1024890D01*
Y2039620D01*
X1014730D01*
X989330Y2065020D02*
Y2075180D01*
X999490D01*
Y2065020D01*
X989330D01*
Y2039620D02*
Y2049780D01*
X999490D01*
Y2039620D01*
X989330D01*
X963930Y2065020D02*
Y2075180D01*
X974090D01*
Y2065020D01*
X963930D01*
Y2039620D02*
Y2049780D01*
X974090D01*
Y2039620D01*
X963930D01*
X938530Y2065020D02*
Y2075180D01*
X948690D01*
Y2065020D01*
X938530D01*
Y2039620D02*
Y2049780D01*
X948690D01*
Y2039620D01*
X938530D01*
X1748790Y2023110D02*
Y2033270D01*
X1758950D01*
Y2023110D01*
X1748790D01*
Y2048510D02*
Y2058670D01*
X1758950D01*
Y2048510D01*
X1748790D01*
X1774190Y2023110D02*
Y2033270D01*
X1784350D01*
Y2023110D01*
X1774190D01*
Y2048510D02*
Y2058670D01*
X1784350D01*
Y2048510D01*
X1774190D01*
X1799590Y2023110D02*
Y2033270D01*
X1809750D01*
Y2023110D01*
X1799590D01*
Y2048510D02*
Y2058670D01*
X1809750D01*
Y2048510D01*
X1799590D01*
X1824990Y2023110D02*
Y2033270D01*
X1835150D01*
Y2023110D01*
X1824990D01*
Y2048510D02*
Y2058670D01*
X1835150D01*
Y2048510D01*
X1824990D01*
X1850390Y2023110D02*
Y2033270D01*
X1860550D01*
Y2023110D01*
X1850390D01*
Y2048510D02*
Y2058670D01*
X1860550D01*
Y2048510D01*
X1850390D01*
X1875790Y2023110D02*
Y2033270D01*
X1885950D01*
Y2023110D01*
X1875790D01*
Y2048510D02*
Y2058670D01*
X1885950D01*
Y2048510D01*
X1875790D01*
X1901190Y2023110D02*
Y2033270D01*
X1911350D01*
Y2023110D01*
X1901190D01*
Y2048510D02*
Y2058670D01*
X1911350D01*
Y2048510D01*
X1901190D01*
X1926590Y2023110D02*
Y2033270D01*
X1936750D01*
Y2023110D01*
X1926590D01*
Y2048510D02*
Y2058670D01*
X1936750D01*
Y2048510D01*
X1926590D01*
X1951990Y2023110D02*
Y2033270D01*
X1962150D01*
Y2023110D01*
X1951990D01*
Y2048510D02*
Y2058670D01*
X1962150D01*
Y2048510D01*
X1951990D01*
X1977390Y2023110D02*
Y2033270D01*
X1987550D01*
Y2023110D01*
X1977390D01*
Y2048510D02*
Y2058670D01*
X1987550D01*
Y2048510D01*
X1977390D01*
X2002790Y2023110D02*
Y2033270D01*
X2012950D01*
Y2023110D01*
X2002790D01*
Y2048510D02*
Y2058670D01*
X2012950D01*
Y2048510D01*
X2002790D01*
X2028190Y2023110D02*
Y2033270D01*
X2038350D01*
Y2023110D01*
X2028190D01*
Y2048510D02*
Y2058670D01*
X2038350D01*
Y2048510D01*
X2028190D01*
X2053590Y2023110D02*
Y2033270D01*
X2063750D01*
Y2023110D01*
X2053590D01*
Y2048510D02*
Y2058670D01*
X2063750D01*
Y2048510D01*
X2053590D01*
X2078990Y2023110D02*
Y2033270D01*
X2089150D01*
Y2023110D01*
X2078990D01*
Y2048510D02*
Y2058670D01*
X2089150D01*
Y2048510D01*
X2078990D01*
X2104390Y2023110D02*
Y2033270D01*
X2114550D01*
Y2023110D01*
X2104390D01*
Y2048510D02*
Y2058670D01*
X2114550D01*
Y2048510D01*
X2104390D01*
X2129790Y2023110D02*
Y2033270D01*
X2139950D01*
Y2023110D01*
X2129790D01*
Y2048510D02*
Y2058670D01*
X2139950D01*
Y2048510D01*
X2129790D01*
X2147570Y1592580D02*
Y1602740D01*
X2157730D01*
Y1592580D01*
X2147570D01*
Y1567180D02*
Y1577340D01*
X2157730D01*
Y1567180D01*
X2147570D01*
X2122170Y1592580D02*
Y1602740D01*
X2132330D01*
Y1592580D01*
X2122170D01*
Y1567180D02*
Y1577340D01*
X2132330D01*
Y1567180D01*
X2122170D01*
X2096770Y1592580D02*
Y1602740D01*
X2106930D01*
Y1592580D01*
X2096770D01*
Y1567180D02*
Y1577340D01*
X2106930D01*
Y1567180D01*
X2096770D01*
X2071370Y1592580D02*
Y1602740D01*
X2081530D01*
Y1592580D01*
X2071370D01*
Y1567180D02*
Y1577340D01*
X2081530D01*
Y1567180D01*
X2071370D01*
X2045970Y1592580D02*
Y1602740D01*
X2056130D01*
Y1592580D01*
X2045970D01*
Y1567180D02*
Y1577340D01*
X2056130D01*
Y1567180D01*
X2045970D01*
X2020570Y1592580D02*
Y1602740D01*
X2030730D01*
Y1592580D01*
X2020570D01*
Y1567180D02*
Y1577340D01*
X2030730D01*
Y1567180D01*
X2020570D01*
X1995170Y1592580D02*
Y1602740D01*
X2005330D01*
Y1592580D01*
X1995170D01*
Y1567180D02*
Y1577340D01*
X2005330D01*
Y1567180D01*
X1995170D01*
X1969770Y1592580D02*
Y1602740D01*
X1979930D01*
Y1592580D01*
X1969770D01*
Y1567180D02*
Y1577340D01*
X1979930D01*
Y1567180D01*
X1969770D01*
X1944370Y1592580D02*
Y1602740D01*
X1954530D01*
Y1592580D01*
X1944370D01*
Y1567180D02*
Y1577340D01*
X1954530D01*
Y1567180D01*
X1944370D01*
X1918970Y1592580D02*
Y1602740D01*
X1929130D01*
Y1592580D01*
X1918970D01*
Y1567180D02*
Y1577340D01*
X1929130D01*
Y1567180D01*
X1918970D01*
X1893570Y1592580D02*
Y1602740D01*
X1903730D01*
Y1592580D01*
X1893570D01*
Y1567180D02*
Y1577340D01*
X1903730D01*
Y1567180D01*
X1893570D01*
X1868170Y1592580D02*
Y1602740D01*
X1878330D01*
Y1592580D01*
X1868170D01*
Y1567180D02*
Y1577340D01*
X1878330D01*
Y1567180D01*
X1868170D01*
X1842770Y1592580D02*
Y1602740D01*
X1852930D01*
Y1592580D01*
X1842770D01*
Y1567180D02*
Y1577340D01*
X1852930D01*
Y1567180D01*
X1842770D01*
X1817370Y1592580D02*
Y1602740D01*
X1827530D01*
Y1592580D01*
X1817370D01*
Y1567180D02*
Y1577340D01*
X1827530D01*
Y1567180D01*
X1817370D01*
X1791970Y1592580D02*
Y1602740D01*
X1802130D01*
Y1592580D01*
X1791970D01*
Y1567180D02*
Y1577340D01*
X1802130D01*
Y1567180D01*
X1791970D01*
X1766570Y1592580D02*
Y1602740D01*
X1776730D01*
Y1592580D01*
X1766570D01*
Y1567180D02*
Y1577340D01*
X1776730D01*
Y1567180D01*
X1766570D01*
X1741170Y1592580D02*
Y1602740D01*
X1751330D01*
Y1592580D01*
X1741170D01*
Y1567180D02*
Y1577340D01*
X1751330D01*
Y1567180D01*
X1741170D01*
X1715770Y1592580D02*
Y1602740D01*
X1725930D01*
Y1592580D01*
X1715770D01*
Y1567180D02*
Y1577340D01*
X1725930D01*
Y1567180D01*
X1715770D01*
X1690370Y1592580D02*
Y1602740D01*
X1700530D01*
Y1592580D01*
X1690370D01*
Y1567180D02*
Y1577340D01*
X1700530D01*
Y1567180D01*
X1690370D01*
X1912620Y1060450D02*
Y1070610D01*
X1922780D01*
Y1060450D01*
X1912620D01*
Y1035050D02*
Y1045210D01*
X1922780D01*
Y1035050D01*
X1912620D01*
X1887220Y1060450D02*
Y1070610D01*
X1897380D01*
Y1060450D01*
X1887220D01*
Y1035050D02*
Y1045210D01*
X1897380D01*
Y1035050D01*
X1887220D01*
X1861820Y1060450D02*
Y1070610D01*
X1871980D01*
Y1060450D01*
X1861820D01*
Y1035050D02*
Y1045210D01*
X1871980D01*
Y1035050D01*
X1861820D01*
X1836420Y1060450D02*
Y1070610D01*
X1846580D01*
Y1060450D01*
X1836420D01*
Y1035050D02*
Y1045210D01*
X1846580D01*
Y1035050D01*
X1836420D01*
X1811020Y1060450D02*
Y1070610D01*
X1821180D01*
Y1060450D01*
X1811020D01*
Y1035050D02*
Y1045210D01*
X1821180D01*
Y1035050D01*
X1811020D01*
X1785620Y1060450D02*
Y1070610D01*
X1795780D01*
Y1060450D01*
X1785620D01*
Y1035050D02*
Y1045210D01*
X1795780D01*
Y1035050D01*
X1785620D01*
X1760220Y1060450D02*
Y1070610D01*
X1770380D01*
Y1060450D01*
X1760220D01*
Y1035050D02*
Y1045210D01*
X1770380D01*
Y1035050D01*
X1760220D01*
X1734820Y1060450D02*
Y1070610D01*
X1744980D01*
Y1060450D01*
X1734820D01*
Y1035050D02*
Y1045210D01*
X1744980D01*
Y1035050D01*
X1734820D01*
X1537420Y925920D02*
Y936080D01*
X1547580D01*
Y925920D01*
X1537420D01*
X1512020D02*
Y936080D01*
X1522180D01*
Y925920D01*
X1512020D01*
X1486620D02*
Y936080D01*
X1496780D01*
Y925920D01*
X1486620D01*
X1343420Y980920D02*
Y991080D01*
X1353580D01*
Y980920D01*
X1343420D01*
X1318020D02*
Y991080D01*
X1328180D01*
Y980920D01*
X1318020D01*
X1292620D02*
Y991080D01*
X1302780D01*
Y980920D01*
X1292620D01*
X1118320Y919320D02*
Y929480D01*
X1128480D01*
Y919320D01*
X1118320D01*
X1092920D02*
Y929480D01*
X1103080D01*
Y919320D01*
X1092920D01*
X1067520D02*
Y929480D01*
X1077680D01*
Y919320D01*
X1067520D01*
X1855470Y1263650D02*
Y1273810D01*
X1865630D01*
Y1263650D01*
X1855470D01*
Y1238250D02*
Y1248410D01*
X1865630D01*
Y1238250D01*
X1855470D01*
X1830070Y1263650D02*
Y1273810D01*
X1840230D01*
Y1263650D01*
X1830070D01*
Y1238250D02*
Y1248410D01*
X1840230D01*
Y1238250D01*
X1830070D01*
X1804670Y1263650D02*
Y1273810D01*
X1814830D01*
Y1263650D01*
X1804670D01*
Y1238250D02*
Y1248410D01*
X1814830D01*
Y1238250D01*
X1804670D01*
X1779270Y1263650D02*
Y1273810D01*
X1789430D01*
Y1263650D01*
X1779270D01*
Y1238250D02*
Y1248410D01*
X1789430D01*
Y1238250D01*
X1779270D01*
X2358390Y996950D02*
Y1007110D01*
X2368550D01*
Y996950D01*
X2358390D01*
Y971550D02*
Y981710D01*
X2368550D01*
Y971550D01*
X2358390D01*
X2332990Y996950D02*
Y1007110D01*
X2343150D01*
Y996950D01*
X2332990D01*
Y971550D02*
Y981710D01*
X2343150D01*
Y971550D01*
X2332990D01*
X2307590Y996950D02*
Y1007110D01*
X2317750D01*
Y996950D01*
X2307590D01*
Y971550D02*
Y981710D01*
X2317750D01*
Y971550D01*
X2307590D01*
X2282190Y996950D02*
Y1007110D01*
X2292350D01*
Y996950D01*
X2282190D01*
Y971550D02*
Y981710D01*
X2292350D01*
Y971550D01*
X2282190D01*
X2256790Y996950D02*
Y1007110D01*
X2266950D01*
Y996950D01*
X2256790D01*
Y971550D02*
Y981710D01*
X2266950D01*
Y971550D01*
X2256790D01*
X2231390Y996950D02*
Y1007110D01*
X2241550D01*
Y996950D01*
X2231390D01*
Y971550D02*
Y981710D01*
X2241550D01*
Y971550D01*
X2231390D01*
X2205990Y996950D02*
Y1007110D01*
X2216150D01*
Y996950D01*
X2205990D01*
Y971550D02*
Y981710D01*
X2216150D01*
Y971550D01*
X2205990D01*
X2180590Y996950D02*
Y1007110D01*
X2190750D01*
Y996950D01*
X2180590D01*
Y971550D02*
Y981710D01*
X2190750D01*
Y971550D01*
X2180590D01*
X2155190Y996950D02*
Y1007110D01*
X2165350D01*
Y996950D01*
X2155190D01*
Y971550D02*
Y981710D01*
X2165350D01*
Y971550D01*
X2155190D01*
X2129790Y996950D02*
Y1007110D01*
X2139950D01*
Y996950D01*
X2129790D01*
Y971550D02*
Y981710D01*
X2139950D01*
Y971550D01*
X2129790D01*
X2004060Y2172970D02*
Y2183130D01*
X2014220D01*
Y2172970D01*
X2004060D01*
Y2198370D02*
Y2208530D01*
X2014220D01*
Y2198370D01*
X2004060D01*
X2029460Y2172970D02*
Y2183130D01*
X2039620D01*
Y2172970D01*
X2029460D01*
Y2198370D02*
Y2208530D01*
X2039620D01*
Y2198370D01*
X2029460D01*
X2054860Y2172970D02*
Y2183130D01*
X2065020D01*
Y2172970D01*
X2054860D01*
Y2198370D02*
Y2208530D01*
X2065020D01*
Y2198370D01*
X2054860D01*
X2080260Y2172970D02*
Y2183130D01*
X2090420D01*
Y2172970D01*
X2080260D01*
Y2198370D02*
Y2208530D01*
X2090420D01*
Y2198370D01*
X2080260D01*
X2105660Y2172970D02*
Y2183130D01*
X2115820D01*
Y2172970D01*
X2105660D01*
Y2198370D02*
Y2208530D01*
X2115820D01*
Y2198370D01*
X2105660D01*
X1408430Y2054860D02*
Y2065020D01*
X1418590D01*
Y2054860D01*
X1408430D01*
Y2080260D02*
Y2090420D01*
X1418590D01*
Y2080260D01*
X1408430D01*
X1433830Y2054860D02*
Y2065020D01*
X1443990D01*
Y2054860D01*
X1433830D01*
Y2080260D02*
Y2090420D01*
X1443990D01*
Y2080260D01*
X1433830D01*
X1459230Y2054860D02*
Y2065020D01*
X1469390D01*
Y2054860D01*
X1459230D01*
Y2080260D02*
Y2090420D01*
X1469390D01*
Y2080260D01*
X1459230D01*
X1484630Y2054860D02*
Y2065020D01*
X1494790D01*
Y2054860D01*
X1484630D01*
Y2080260D02*
Y2090420D01*
X1494790D01*
Y2080260D01*
X1484630D01*
X1510030Y2054860D02*
Y2065020D01*
X1520190D01*
Y2054860D01*
X1510030D01*
Y2080260D02*
Y2090420D01*
X1520190D01*
Y2080260D01*
X1510030D01*
X1535430Y2054860D02*
Y2065020D01*
X1545590D01*
Y2054860D01*
X1535430D01*
Y2080260D02*
Y2090420D01*
X1545590D01*
Y2080260D01*
X1535430D01*
X1560830Y2054860D02*
Y2065020D01*
X1570990D01*
Y2054860D01*
X1560830D01*
Y2080260D02*
Y2090420D01*
X1570990D01*
Y2080260D01*
X1560830D01*
X1586230Y2054860D02*
Y2065020D01*
X1596390D01*
Y2054860D01*
X1586230D01*
Y2080260D02*
Y2090420D01*
X1596390D01*
Y2080260D01*
X1586230D01*
X1626870Y2180590D02*
X1629410Y2185670D01*
X1626870Y2190750D01*
X1631950Y2188210D01*
X1637030Y2190750D01*
X1634490Y2185670D01*
X1637030Y2180590D01*
X1631950Y2183130D01*
X1626870Y2180590D01*
X1481870D02*
X1484410Y2185670D01*
X1481870Y2190750D01*
X1486950Y2188210D01*
X1492030Y2190750D01*
X1489490Y2185670D01*
X1492030Y2180590D01*
X1486950Y2183130D01*
X1481870Y2180590D01*
X1632870Y2229590D02*
X1635410Y2234670D01*
X1632870Y2239750D01*
X1637950Y2237210D01*
X1643030Y2239750D01*
X1640490Y2234670D01*
X1643030Y2229590D01*
X1637950Y2232130D01*
X1632870Y2229590D01*
X1475870D02*
X1478410Y2234670D01*
X1475870Y2239750D01*
X1480950Y2237210D01*
X1486030Y2239750D01*
X1483490Y2234670D01*
X1486030Y2229590D01*
X1480950Y2232130D01*
X1475870Y2229590D01*
X1913890Y2175510D02*
Y2185670D01*
X1924050D01*
Y2175510D01*
X1913890D01*
Y2200910D02*
Y2211070D01*
X1924050D01*
Y2200910D01*
X1913890D01*
X1849120Y2188210D02*
Y2198370D01*
X1859280D01*
Y2188210D01*
X1849120D01*
X1874520D02*
Y2198370D01*
X1884680D01*
Y2188210D01*
X1874520D01*
X1849120Y2162810D02*
Y2172970D01*
X1859280D01*
Y2162810D01*
X1849120D01*
X1874520D02*
Y2172970D01*
X1884680D01*
Y2162810D01*
X1874520D01*
X1804670Y2175510D02*
Y2185670D01*
X1814830D01*
Y2175510D01*
X1804670D01*
Y2200910D02*
Y2211070D01*
X1814830D01*
Y2200910D01*
X1804670D01*
X1761490Y2150110D02*
Y2160270D01*
X1771650D01*
Y2150110D01*
X1761490D01*
Y2175510D02*
Y2185670D01*
X1771650D01*
Y2175510D01*
X1761490D01*
Y2200910D02*
Y2211070D01*
X1771650D01*
Y2200910D01*
X1761490D01*
X1530160Y1639510D02*
Y1649670D01*
X1540320D01*
Y1639510D01*
X1530160D01*
Y1664910D02*
Y1675070D01*
X1540320D01*
Y1664910D01*
X1530160D01*
X2264410Y1477010D02*
Y1487170D01*
X2274570D01*
Y1477010D01*
X2264410D01*
Y1502410D02*
Y1512570D01*
X2274570D01*
Y1502410D01*
X2264410D01*
X2289810Y1477010D02*
Y1487170D01*
X2299970D01*
Y1477010D01*
X2289810D01*
Y1502410D02*
Y1512570D01*
X2299970D01*
Y1502410D01*
X2289810D01*
X2315210Y1477010D02*
Y1487170D01*
X2325370D01*
Y1477010D01*
X2315210D01*
Y1502410D02*
Y1512570D01*
X2325370D01*
Y1502410D01*
X2315210D01*
X2340610Y1477010D02*
Y1487170D01*
X2350770D01*
Y1477010D01*
X2340610D01*
Y1502410D02*
Y1512570D01*
X2350770D01*
Y1502410D01*
X2340610D01*
X745490Y1427480D02*
Y1437640D01*
X755650D01*
Y1427480D01*
X745490D01*
Y1452880D02*
Y1463040D01*
X755650D01*
Y1452880D01*
X745490D01*
X770890Y1427480D02*
Y1437640D01*
X781050D01*
Y1427480D01*
X770890D01*
Y1452880D02*
Y1463040D01*
X781050D01*
Y1452880D01*
X770890D01*
X796290Y1427480D02*
Y1437640D01*
X806450D01*
Y1427480D01*
X796290D01*
Y1452880D02*
Y1463040D01*
X806450D01*
Y1452880D01*
X796290D01*
X821690Y1427480D02*
Y1437640D01*
X831850D01*
Y1427480D01*
X821690D01*
Y1452880D02*
Y1463040D01*
X831850D01*
Y1452880D01*
X821690D01*
X847090Y1427480D02*
Y1437640D01*
X857250D01*
Y1427480D01*
X847090D01*
Y1452880D02*
Y1463040D01*
X857250D01*
Y1452880D01*
X847090D01*
X872490Y1427480D02*
Y1437640D01*
X882650D01*
Y1427480D01*
X872490D01*
Y1452880D02*
Y1463040D01*
X882650D01*
Y1452880D01*
X872490D01*
X897890Y1427480D02*
Y1437640D01*
X908050D01*
Y1427480D01*
X897890D01*
Y1452880D02*
Y1463040D01*
X908050D01*
Y1452880D01*
X897890D01*
X923290Y1427480D02*
Y1437640D01*
X933450D01*
Y1427480D01*
X923290D01*
Y1452880D02*
Y1463040D01*
X933450D01*
Y1452880D01*
X923290D01*
X948690Y1427480D02*
Y1437640D01*
X958850D01*
Y1427480D01*
X948690D01*
Y1452880D02*
Y1463040D01*
X958850D01*
Y1452880D01*
X948690D01*
X974090Y1427480D02*
Y1437640D01*
X984250D01*
Y1427480D01*
X974090D01*
Y1452880D02*
Y1463040D01*
X984250D01*
Y1452880D01*
X974090D01*
X999490Y1427480D02*
Y1437640D01*
X1009650D01*
Y1427480D01*
X999490D01*
Y1452880D02*
Y1463040D01*
X1009650D01*
Y1452880D01*
X999490D01*
X1024890Y1427480D02*
Y1437640D01*
X1035050D01*
Y1427480D01*
X1024890D01*
Y1452880D02*
Y1463040D01*
X1035050D01*
Y1452880D01*
X1024890D01*
X1050290Y1427480D02*
Y1437640D01*
X1060450D01*
Y1427480D01*
X1050290D01*
Y1452880D02*
Y1463040D01*
X1060450D01*
Y1452880D01*
X1050290D01*
X1075690Y1427480D02*
Y1437640D01*
X1085850D01*
Y1427480D01*
X1075690D01*
Y1452880D02*
Y1463040D01*
X1085850D01*
Y1452880D01*
X1075690D01*
X1101090Y1427480D02*
Y1437640D01*
X1111250D01*
Y1427480D01*
X1101090D01*
Y1452880D02*
Y1463040D01*
X1111250D01*
Y1452880D01*
X1101090D01*
X1126490Y1427480D02*
Y1437640D01*
X1136650D01*
Y1427480D01*
X1126490D01*
Y1452880D02*
Y1463040D01*
X1136650D01*
Y1452880D01*
X1126490D01*
X1453057Y1799556D02*
Y1797016D01*
X1458137D01*
Y1799556D01*
X1460677D01*
Y1804636D01*
X1458137D01*
Y1807176D01*
X1453057D01*
Y1804636D01*
X1450517D01*
Y1799556D01*
X1453057D01*
X1908060Y1826260D02*
Y1823720D01*
X1913140D01*
Y1826260D01*
X1915680D01*
Y1831340D01*
X1913140D01*
Y1833880D01*
X1908060D01*
Y1831340D01*
X1905520D01*
Y1826260D01*
X1908060D01*
X1910560Y1787760D02*
Y1785220D01*
X1915640D01*
Y1787760D01*
X1918180D01*
Y1792840D01*
X1915640D01*
Y1795380D01*
X1910560D01*
Y1792840D01*
X1908020D01*
Y1787760D01*
X1910560D01*
X1241160Y1828560D02*
Y1826020D01*
X1246240D01*
Y1828560D01*
X1248780D01*
Y1833640D01*
X1246240D01*
Y1836180D01*
X1241160D01*
Y1833640D01*
X1238620D01*
Y1828560D01*
X1241160D01*
X1552660Y1808760D02*
Y1806220D01*
X1557740D01*
Y1808760D01*
X1560280D01*
Y1813840D01*
X1557740D01*
Y1816380D01*
X1552660D01*
Y1813840D01*
X1550120D01*
Y1808760D01*
X1552660D01*
X1497460Y1721160D02*
Y1718620D01*
X1502540D01*
Y1721160D01*
X1505080D01*
Y1726240D01*
X1502540D01*
Y1728780D01*
X1497460D01*
Y1726240D01*
X1494920D01*
Y1721160D01*
X1497460D01*
X1502460Y1158460D02*
Y1155920D01*
X1507540D01*
Y1158460D01*
X1510080D01*
Y1163540D01*
X1507540D01*
Y1166080D01*
X1502460D01*
Y1163540D01*
X1499920D01*
Y1158460D01*
X1502460D01*
X1491960Y1159660D02*
Y1157120D01*
X1497040D01*
Y1159660D01*
X1499580D01*
Y1164740D01*
X1497040D01*
Y1167280D01*
X1491960D01*
Y1164740D01*
X1489420D01*
Y1159660D01*
X1491960D01*
X1426860Y1168360D02*
Y1165820D01*
X1431940D01*
Y1168360D01*
X1434480D01*
Y1173440D01*
X1431940D01*
Y1175980D01*
X1426860D01*
Y1173440D01*
X1424320D01*
Y1168360D01*
X1426860D01*
X1468057Y1744857D02*
Y1742316D01*
X1473137D01*
Y1744857D01*
X1475677D01*
Y1749937D01*
X1473137D01*
Y1752477D01*
X1468057D01*
Y1749937D01*
X1465517D01*
Y1744857D01*
X1468057D01*
X1476756Y1744472D02*
Y1741932D01*
X1481836D01*
Y1744472D01*
X1484376D01*
Y1749552D01*
X1481836D01*
Y1752092D01*
X1476756D01*
Y1749552D01*
X1474216D01*
Y1744472D01*
X1476756D01*
X1466957Y1736257D02*
Y1733716D01*
X1472037D01*
Y1736257D01*
X1474577D01*
Y1741337D01*
X1472037D01*
Y1743876D01*
X1466957D01*
Y1741337D01*
X1464417D01*
Y1736257D01*
X1466957D01*
X1465157Y1705457D02*
Y1702917D01*
X1470237D01*
Y1705457D01*
X1472777D01*
Y1710537D01*
X1470237D01*
Y1713077D01*
X1465157D01*
Y1710537D01*
X1462617D01*
Y1705457D01*
X1465157D01*
X1499957Y1759960D02*
Y1757420D01*
X1505037D01*
Y1759960D01*
X1507577D01*
Y1765040D01*
X1505037D01*
Y1767580D01*
X1499957D01*
Y1765040D01*
X1497417D01*
Y1759960D01*
X1499957D01*
X1484562Y1768162D02*
Y1765622D01*
X1489642D01*
Y1768162D01*
X1492182D01*
Y1773242D01*
X1489642D01*
Y1775782D01*
X1484562D01*
Y1773242D01*
X1482022D01*
Y1768162D01*
X1484562D01*
X1484376Y1759204D02*
Y1756664D01*
X1489456D01*
Y1759204D01*
X1491996D01*
Y1764284D01*
X1489456D01*
Y1766824D01*
X1484376D01*
Y1764284D01*
X1481836D01*
Y1759204D01*
X1484376D01*
X1484751Y1744351D02*
Y1741811D01*
X1489831D01*
Y1744351D01*
X1492371D01*
Y1749431D01*
X1489831D01*
Y1751971D01*
X1484751D01*
Y1749431D01*
X1482211D01*
Y1744351D01*
X1484751D01*
X1476248Y1751672D02*
Y1749132D01*
X1481328D01*
Y1751672D01*
X1483868D01*
Y1756752D01*
X1481328D01*
Y1759292D01*
X1476248D01*
Y1756752D01*
X1473708D01*
Y1751672D01*
X1476248D01*
X1468160Y1759760D02*
Y1757220D01*
X1473240D01*
Y1759760D01*
X1475780D01*
Y1764840D01*
X1473240D01*
Y1767380D01*
X1468160D01*
Y1764840D01*
X1465620D01*
Y1759760D01*
X1468160D01*
X1476160D02*
Y1757220D01*
X1481240D01*
Y1759760D01*
X1483780D01*
Y1764840D01*
X1481240D01*
Y1767380D01*
X1476160D01*
Y1764840D01*
X1473620D01*
Y1759760D01*
X1476160D01*
X1476248Y1767586D02*
Y1765046D01*
X1481328D01*
Y1767586D01*
X1483868D01*
Y1772666D01*
X1481328D01*
Y1775206D01*
X1476248D01*
Y1772666D01*
X1473708D01*
Y1767586D01*
X1476248D01*
Y1775714D02*
Y1773174D01*
X1481328D01*
Y1775714D01*
X1483868D01*
Y1780794D01*
X1481328D01*
Y1783334D01*
X1476248D01*
Y1780794D01*
X1473708D01*
Y1775714D01*
X1476248D01*
X1468120Y1752346D02*
Y1749806D01*
X1473200D01*
Y1752346D01*
X1475740D01*
Y1757426D01*
X1473200D01*
Y1759966D01*
X1468120D01*
Y1757426D01*
X1465580D01*
Y1752346D01*
X1468120D01*
X1500160Y1767760D02*
Y1765220D01*
X1505240D01*
Y1767760D01*
X1507780D01*
Y1772840D01*
X1505240D01*
Y1775380D01*
X1500160D01*
Y1772840D01*
X1497620D01*
Y1767760D01*
X1500160D01*
X1500124Y1775714D02*
Y1773174D01*
X1505204D01*
Y1775714D01*
X1507744D01*
Y1780794D01*
X1505204D01*
Y1783334D01*
X1500124D01*
Y1780794D01*
X1497584D01*
Y1775714D01*
X1500124D01*
X1484160Y1735760D02*
Y1733220D01*
X1489240D01*
Y1735760D01*
X1491780D01*
Y1740840D01*
X1489240D01*
Y1743380D01*
X1484160D01*
Y1740840D01*
X1481620D01*
Y1735760D01*
X1484160D01*
Y1751760D02*
Y1749220D01*
X1489240D01*
Y1751760D01*
X1491780D01*
Y1756840D01*
X1489240D01*
Y1759380D01*
X1484160D01*
Y1756840D01*
X1481620D01*
Y1751760D01*
X1484160D01*
X1500124Y1743710D02*
Y1741170D01*
X1505204D01*
Y1743710D01*
X1507744D01*
Y1748790D01*
X1505204D01*
Y1751330D01*
X1500124D01*
Y1748790D01*
X1497584D01*
Y1743710D01*
X1500124D01*
X1468628Y1727708D02*
Y1725168D01*
X1473708D01*
Y1727708D01*
X1476248D01*
Y1732788D01*
X1473708D01*
Y1735328D01*
X1468628D01*
Y1732788D01*
X1466088D01*
Y1727708D01*
X1468628D01*
X1500124Y1735836D02*
Y1733296D01*
X1505204D01*
Y1735836D01*
X1507744D01*
Y1740916D01*
X1505204D01*
Y1743456D01*
X1500124D01*
Y1740916D01*
X1497584D01*
Y1735836D01*
X1500124D01*
X1508160Y1735760D02*
Y1733220D01*
X1513240D01*
Y1735760D01*
X1515780D01*
Y1740840D01*
X1513240D01*
Y1743380D01*
X1508160D01*
Y1740840D01*
X1505620D01*
Y1735760D01*
X1508160D01*
X1503172Y1725676D02*
Y1723136D01*
X1508252D01*
Y1725676D01*
X1510792D01*
Y1730756D01*
X1508252D01*
Y1733296D01*
X1503172D01*
Y1730756D01*
X1500632D01*
Y1725676D01*
X1503172D01*
X1468160Y1767760D02*
Y1765220D01*
X1473240D01*
Y1767760D01*
X1475780D01*
Y1772840D01*
X1473240D01*
Y1775380D01*
X1468160D01*
Y1772840D01*
X1465620D01*
Y1767760D01*
X1468160D01*
X1508160Y1759760D02*
Y1757220D01*
X1513240D01*
Y1759760D01*
X1515780D01*
Y1764840D01*
X1513240D01*
Y1767380D01*
X1508160D01*
Y1764840D01*
X1505620D01*
Y1759760D01*
X1508160D01*
Y1751760D02*
Y1749220D01*
X1513240D01*
Y1751760D01*
X1515780D01*
Y1756840D01*
X1513240D01*
Y1759380D01*
X1508160D01*
Y1756840D01*
X1505620D01*
Y1751760D01*
X1508160D01*
X1483860Y1775760D02*
Y1773220D01*
X1488940D01*
Y1775760D01*
X1491480D01*
Y1780840D01*
X1488940D01*
Y1783380D01*
X1483860D01*
Y1780840D01*
X1481320D01*
Y1775760D01*
X1483860D01*
X1428242Y1775714D02*
Y1773174D01*
X1433322D01*
Y1775714D01*
X1435862D01*
Y1780794D01*
X1433322D01*
Y1783334D01*
X1428242D01*
Y1780794D01*
X1425702D01*
Y1775714D01*
X1428242D01*
X1381490Y1763760D02*
Y1761220D01*
X1386570D01*
Y1763760D01*
X1389110D01*
Y1768840D01*
X1386570D01*
Y1771380D01*
X1381490D01*
Y1768840D01*
X1378950D01*
Y1763760D01*
X1381490D01*
X1404160Y1775760D02*
Y1773220D01*
X1409240D01*
Y1775760D01*
X1411780D01*
Y1780840D01*
X1409240D01*
Y1783380D01*
X1404160D01*
Y1780840D01*
X1401620D01*
Y1775760D01*
X1404160D01*
X1412240Y1775840D02*
Y1773300D01*
X1417320D01*
Y1775840D01*
X1419860D01*
Y1780920D01*
X1417320D01*
Y1783460D01*
X1412240D01*
Y1780920D01*
X1409700D01*
Y1775840D01*
X1412240D01*
X1404112Y1768602D02*
Y1766062D01*
X1409192D01*
Y1768602D01*
X1411732D01*
Y1773682D01*
X1409192D01*
Y1776222D01*
X1404112D01*
Y1773682D01*
X1401572D01*
Y1768602D01*
X1404112D01*
X1411224Y1767840D02*
Y1765300D01*
X1416304D01*
Y1767840D01*
X1418844D01*
Y1772920D01*
X1416304D01*
Y1775460D01*
X1411224D01*
Y1772920D01*
X1408684D01*
Y1767840D01*
X1411224D01*
X1420114D02*
Y1765300D01*
X1425194D01*
Y1767840D01*
X1427734D01*
Y1772920D01*
X1425194D01*
Y1775460D01*
X1420114D01*
Y1772920D01*
X1417574D01*
Y1767840D01*
X1420114D01*
X1420160Y1775760D02*
Y1773220D01*
X1425240D01*
Y1775760D01*
X1427780D01*
Y1780840D01*
X1425240D01*
Y1783380D01*
X1420160D01*
Y1780840D01*
X1417620D01*
Y1775760D01*
X1420160D01*
X1420242Y1783842D02*
Y1781302D01*
X1425322D01*
Y1783842D01*
X1427862D01*
Y1788922D01*
X1425322D01*
Y1791462D01*
X1420242D01*
Y1788922D01*
X1417702D01*
Y1783842D01*
X1420242D01*
X1428242Y1767078D02*
Y1764538D01*
X1433322D01*
Y1767078D01*
X1435862D01*
Y1772158D01*
X1433322D01*
Y1774698D01*
X1428242D01*
Y1772158D01*
X1425702D01*
Y1767078D01*
X1428242D01*
X1391666Y1187084D02*
Y1184544D01*
X1396746D01*
Y1187084D01*
X1399286D01*
Y1192164D01*
X1396746D01*
Y1194704D01*
X1391666D01*
Y1192164D01*
X1389126D01*
Y1187084D01*
X1391666D01*
X1383538Y1179068D02*
Y1176528D01*
X1388618D01*
Y1179068D01*
X1391158D01*
Y1184148D01*
X1388618D01*
Y1186688D01*
X1383538D01*
Y1184148D01*
X1380998D01*
Y1179068D01*
X1383538D01*
X1455740Y1203010D02*
Y1200470D01*
X1460820D01*
Y1203010D01*
X1463360D01*
Y1208090D01*
X1460820D01*
Y1210630D01*
X1455740D01*
Y1208090D01*
X1453200D01*
Y1203010D01*
X1455740D01*
X1447749Y1234999D02*
Y1232459D01*
X1452829D01*
Y1234999D01*
X1455369D01*
Y1240079D01*
X1452829D01*
Y1242619D01*
X1447749D01*
Y1240079D01*
X1445209D01*
Y1234999D01*
X1447749D01*
X1367790Y1211072D02*
Y1208532D01*
X1372870D01*
Y1211072D01*
X1375410D01*
Y1216152D01*
X1372870D01*
Y1218692D01*
X1367790D01*
Y1216152D01*
X1365250D01*
Y1211072D01*
X1367790D01*
X1362202Y1204468D02*
Y1201928D01*
X1367282D01*
Y1204468D01*
X1369822D01*
Y1209548D01*
X1367282D01*
Y1212088D01*
X1362202D01*
Y1209548D01*
X1359662D01*
Y1204468D01*
X1362202D01*
X1846072Y1188212D02*
Y1185672D01*
X1851152D01*
Y1188212D01*
X1853692D01*
Y1193292D01*
X1851152D01*
Y1195832D01*
X1846072D01*
Y1193292D01*
X1843532D01*
Y1188212D01*
X1846072D01*
X1311656Y1198626D02*
Y1196086D01*
X1316736D01*
Y1198626D01*
X1319276D01*
Y1203706D01*
X1316736D01*
Y1206246D01*
X1311656D01*
Y1203706D01*
X1309116D01*
Y1198626D01*
X1311656D01*
X1516126Y1743710D02*
Y1741170D01*
X1521206D01*
Y1743710D01*
X1523746D01*
Y1748790D01*
X1521206D01*
Y1751330D01*
X1516126D01*
Y1748790D01*
X1513586D01*
Y1743710D01*
X1516126D01*
X1524254Y1735836D02*
Y1733296D01*
X1529334D01*
Y1735836D01*
X1531874D01*
Y1740916D01*
X1529334D01*
Y1743456D01*
X1524254D01*
Y1740916D01*
X1521714D01*
Y1735836D01*
X1524254D01*
X1407668Y1234948D02*
Y1232408D01*
X1412748D01*
Y1234948D01*
X1415288D01*
Y1240028D01*
X1412748D01*
Y1242568D01*
X1407668D01*
Y1240028D01*
X1405128D01*
Y1234948D01*
X1407668D01*
X1540124Y1855724D02*
Y1853184D01*
X1545204D01*
Y1855724D01*
X1547744D01*
Y1860804D01*
X1545204D01*
Y1863344D01*
X1540124D01*
Y1860804D01*
X1537584D01*
Y1855724D01*
X1540124D01*
X1507994Y1831594D02*
Y1829054D01*
X1513074D01*
Y1831594D01*
X1515614D01*
Y1836674D01*
X1513074D01*
Y1839214D01*
X1507994D01*
Y1836674D01*
X1505454D01*
Y1831594D01*
X1507994D01*
X1540764Y1807972D02*
Y1805432D01*
X1545844D01*
Y1807972D01*
X1548384D01*
Y1813052D01*
X1545844D01*
Y1815592D01*
X1540764D01*
Y1813052D01*
X1538224D01*
Y1807972D01*
X1540764D01*
X1538986Y1847850D02*
Y1845310D01*
X1544066D01*
Y1847850D01*
X1546606D01*
Y1852930D01*
X1544066D01*
Y1855470D01*
X1538986D01*
Y1852930D01*
X1536446D01*
Y1847850D01*
X1538986D01*
X1492250Y1815846D02*
Y1813306D01*
X1497330D01*
Y1815846D01*
X1499870D01*
Y1820926D01*
X1497330D01*
Y1823466D01*
X1492250D01*
Y1820926D01*
X1489710D01*
Y1815846D01*
X1492250D01*
X1524061Y1839661D02*
Y1837121D01*
X1529141D01*
Y1839661D01*
X1531681D01*
Y1844741D01*
X1529141D01*
Y1847281D01*
X1524061D01*
Y1844741D01*
X1521521D01*
Y1839661D01*
X1524061D01*
X1542154Y1839722D02*
Y1837182D01*
X1547234D01*
Y1839722D01*
X1549774D01*
Y1844802D01*
X1547234D01*
Y1847342D01*
X1542154D01*
Y1844802D01*
X1539614D01*
Y1839722D01*
X1542154D01*
X1546352Y1831848D02*
Y1829308D01*
X1551432D01*
Y1831848D01*
X1553972D01*
Y1836928D01*
X1551432D01*
Y1839468D01*
X1546352D01*
Y1836928D01*
X1543812D01*
Y1831848D01*
X1546352D01*
X1500124Y1815846D02*
Y1813306D01*
X1505204D01*
Y1815846D01*
X1507744D01*
Y1820926D01*
X1505204D01*
Y1823466D01*
X1500124D01*
Y1820926D01*
X1497584D01*
Y1815846D01*
X1500124D01*
X1508252D02*
Y1813306D01*
X1513332D01*
Y1815846D01*
X1515872D01*
Y1820926D01*
X1513332D01*
Y1823466D01*
X1508252D01*
Y1820926D01*
X1505712D01*
Y1815846D01*
X1508252D01*
X1524250Y1815850D02*
Y1813310D01*
X1529330D01*
Y1815850D01*
X1531870D01*
Y1820930D01*
X1529330D01*
Y1823470D01*
X1524250D01*
Y1820930D01*
X1521710D01*
Y1815850D01*
X1524250D01*
X1730260Y2010732D02*
Y2008192D01*
X1735340D01*
Y2010732D01*
X1737880D01*
Y2015812D01*
X1735340D01*
Y2018352D01*
X1730260D01*
Y2015812D01*
X1727720D01*
Y2010732D01*
X1730260D01*
X1608836Y1940560D02*
Y1938020D01*
X1613916D01*
Y1940560D01*
X1616456D01*
Y1945640D01*
X1613916D01*
Y1948180D01*
X1608836D01*
Y1945640D01*
X1606296D01*
Y1940560D01*
X1608836D01*
X1500632Y1807718D02*
Y1805178D01*
X1505712D01*
Y1807718D01*
X1508252D01*
Y1812798D01*
X1505712D01*
Y1815338D01*
X1500632D01*
Y1812798D01*
X1498092D01*
Y1807718D01*
X1500632D01*
X1549654Y1735074D02*
Y1732534D01*
X1554734D01*
Y1735074D01*
X1557274D01*
Y1740154D01*
X1554734D01*
Y1742694D01*
X1549654D01*
Y1740154D01*
X1547114D01*
Y1735074D01*
X1549654D01*
X1516126Y1791716D02*
Y1789176D01*
X1521206D01*
Y1791716D01*
X1523746D01*
Y1796796D01*
X1521206D01*
Y1799336D01*
X1516126D01*
Y1796796D01*
X1513586D01*
Y1791716D01*
X1516126D01*
X1524254Y1791970D02*
Y1789430D01*
X1529334D01*
Y1791970D01*
X1531874D01*
Y1797050D01*
X1529334D01*
Y1799590D01*
X1524254D01*
Y1797050D01*
X1521714D01*
Y1791970D01*
X1524254D01*
X1544320Y1815846D02*
Y1813306D01*
X1549400D01*
Y1815846D01*
X1551940D01*
Y1820926D01*
X1549400D01*
Y1823466D01*
X1544320D01*
Y1820926D01*
X1541780D01*
Y1815846D01*
X1544320D01*
X1391666Y1251084D02*
Y1248544D01*
X1396746D01*
Y1251084D01*
X1399286D01*
Y1256164D01*
X1396746D01*
Y1258704D01*
X1391666D01*
Y1256164D01*
X1389126D01*
Y1251084D01*
X1391666D01*
X1392174Y1735836D02*
Y1733296D01*
X1397254D01*
Y1735836D01*
X1399794D01*
Y1740916D01*
X1397254D01*
Y1743456D01*
X1392174D01*
Y1740916D01*
X1389634D01*
Y1735836D01*
X1392174D01*
X1404112Y1743712D02*
Y1741172D01*
X1409192D01*
Y1743712D01*
X1411732D01*
Y1748792D01*
X1409192D01*
Y1751332D01*
X1404112D01*
Y1748792D01*
X1401572D01*
Y1743712D01*
X1404112D01*
X1358010Y1705610D02*
Y1703070D01*
X1363090D01*
Y1705610D01*
X1365630D01*
Y1710690D01*
X1363090D01*
Y1713230D01*
X1358010D01*
Y1710690D01*
X1355470D01*
Y1705610D01*
X1358010D01*
X1404112Y1759712D02*
Y1757172D01*
X1409192D01*
Y1759712D01*
X1411732D01*
Y1764792D01*
X1409192D01*
Y1767332D01*
X1404112D01*
Y1764792D01*
X1401572D01*
Y1759712D01*
X1404112D01*
X1396238Y1775714D02*
Y1773174D01*
X1401318D01*
Y1775714D01*
X1403858D01*
Y1780794D01*
X1401318D01*
Y1783334D01*
X1396238D01*
Y1780794D01*
X1393698D01*
Y1775714D01*
X1396238D01*
X1404112Y1782826D02*
Y1780286D01*
X1409192D01*
Y1782826D01*
X1411732D01*
Y1787906D01*
X1409192D01*
Y1790446D01*
X1404112D01*
Y1787906D01*
X1401572D01*
Y1782826D01*
X1404112D01*
X1348994Y1783842D02*
Y1781302D01*
X1354074D01*
Y1783842D01*
X1356614D01*
Y1788922D01*
X1354074D01*
Y1791462D01*
X1348994D01*
Y1788922D01*
X1346454D01*
Y1783842D01*
X1348994D01*
X1373124Y1795760D02*
Y1793220D01*
X1378204D01*
Y1795760D01*
X1380744D01*
Y1800840D01*
X1378204D01*
Y1803380D01*
X1373124D01*
Y1800840D01*
X1370584D01*
Y1795760D01*
X1373124D01*
X1412240Y1783842D02*
Y1781302D01*
X1417320D01*
Y1783842D01*
X1419860D01*
Y1788922D01*
X1417320D01*
Y1791462D01*
X1412240D01*
Y1788922D01*
X1409700D01*
Y1783842D01*
X1412240D01*
X1041400Y1813052D02*
Y1810512D01*
X1046480D01*
Y1813052D01*
X1049020D01*
Y1818132D01*
X1046480D01*
Y1820672D01*
X1041400D01*
Y1818132D01*
X1038860D01*
Y1813052D01*
X1041400D01*
X1412240Y1808988D02*
Y1806448D01*
X1417320D01*
Y1808988D01*
X1419860D01*
Y1814068D01*
X1417320D01*
Y1816608D01*
X1412240D01*
Y1814068D01*
X1409700D01*
Y1808988D01*
X1412240D01*
X1404112Y1815846D02*
Y1813306D01*
X1409192D01*
Y1815846D01*
X1411732D01*
Y1820926D01*
X1409192D01*
Y1823466D01*
X1404112D01*
Y1820926D01*
X1401572D01*
Y1815846D01*
X1404112D01*
X1310894Y2084324D02*
Y2081784D01*
X1315974D01*
Y2084324D01*
X1318514D01*
Y2089404D01*
X1315974D01*
Y2091944D01*
X1310894D01*
Y2089404D01*
X1308354D01*
Y2084324D01*
X1310894D01*
X1386332Y1815846D02*
Y1813306D01*
X1391412D01*
Y1815846D01*
X1393952D01*
Y1820926D01*
X1391412D01*
Y1823466D01*
X1386332D01*
Y1820926D01*
X1383792D01*
Y1815846D01*
X1386332D01*
X1428242Y1783842D02*
Y1781302D01*
X1433322D01*
Y1783842D01*
X1435862D01*
Y1788922D01*
X1433322D01*
Y1791462D01*
X1428242D01*
Y1788922D01*
X1425702D01*
Y1783842D01*
X1428242D01*
X1412157Y1815763D02*
Y1813223D01*
X1417237D01*
Y1815763D01*
X1419777D01*
Y1820843D01*
X1417237D01*
Y1823383D01*
X1412157D01*
Y1820843D01*
X1409617D01*
Y1815763D01*
X1412157D01*
X1391666Y1259078D02*
Y1256538D01*
X1396746D01*
Y1259078D01*
X1399286D01*
Y1264158D01*
X1396746D01*
Y1266698D01*
X1391666D01*
Y1264158D01*
X1389126D01*
Y1259078D01*
X1391666D01*
X977138Y1251712D02*
Y1249172D01*
X982218D01*
Y1251712D01*
X984758D01*
Y1256792D01*
X982218D01*
Y1259332D01*
X977138D01*
Y1256792D01*
X974598D01*
Y1251712D01*
X977138D01*
X1383538Y1243076D02*
Y1240536D01*
X1388618D01*
Y1243076D01*
X1391158D01*
Y1248156D01*
X1388618D01*
Y1250696D01*
X1383538D01*
Y1248156D01*
X1380998D01*
Y1243076D01*
X1383538D01*
X1367790Y1234948D02*
Y1232408D01*
X1372870D01*
Y1234948D01*
X1375410D01*
Y1240028D01*
X1372870D01*
Y1242568D01*
X1367790D01*
Y1240028D01*
X1365250D01*
Y1234948D01*
X1367790D01*
X1383676Y1227074D02*
Y1224534D01*
X1388756D01*
Y1227074D01*
X1391296D01*
Y1232154D01*
X1388756D01*
Y1234694D01*
X1383676D01*
Y1232154D01*
X1381136D01*
Y1227074D01*
X1383676D01*
X1375664D02*
Y1224534D01*
X1380744D01*
Y1227074D01*
X1383284D01*
Y1232154D01*
X1380744D01*
Y1234694D01*
X1375664D01*
Y1232154D01*
X1373124D01*
Y1227074D01*
X1375664D01*
X1452118Y1743710D02*
Y1741170D01*
X1457198D01*
Y1743710D01*
X1459738D01*
Y1748790D01*
X1457198D01*
Y1751330D01*
X1452118D01*
Y1748790D01*
X1449578D01*
Y1743710D01*
X1452118D01*
X1452178Y1751778D02*
Y1749238D01*
X1457258D01*
Y1751778D01*
X1459798D01*
Y1756858D01*
X1457258D01*
Y1759398D01*
X1452178D01*
Y1756858D01*
X1449638D01*
Y1751778D01*
X1452178D01*
X1483868Y1467612D02*
Y1465072D01*
X1488948D01*
Y1467612D01*
X1491488D01*
Y1472692D01*
X1488948D01*
Y1475232D01*
X1483868D01*
Y1472692D01*
X1481328D01*
Y1467612D01*
X1483868D01*
X1597660Y1517650D02*
Y1515110D01*
X1602740D01*
Y1517650D01*
X1605280D01*
Y1522730D01*
X1602740D01*
Y1525270D01*
X1597660D01*
Y1522730D01*
X1595120D01*
Y1517650D01*
X1597660D01*
X1412240Y1735840D02*
Y1733300D01*
X1417320D01*
Y1735840D01*
X1419860D01*
Y1740920D01*
X1417320D01*
Y1743460D01*
X1412240D01*
Y1740920D01*
X1409700D01*
Y1735840D01*
X1412240D01*
X1210056Y1480312D02*
Y1477772D01*
X1215136D01*
Y1480312D01*
X1217676D01*
Y1485392D01*
X1215136D01*
Y1487932D01*
X1210056D01*
Y1485392D01*
X1207516D01*
Y1480312D01*
X1210056D01*
X1358640Y1666240D02*
Y1663700D01*
X1363720D01*
Y1666240D01*
X1366260D01*
Y1671320D01*
X1363720D01*
Y1673860D01*
X1358640D01*
Y1671320D01*
X1356100D01*
Y1666240D01*
X1358640D01*
X1420112Y1743712D02*
Y1741172D01*
X1425192D01*
Y1743712D01*
X1427732D01*
Y1748792D01*
X1425192D01*
Y1751332D01*
X1420112D01*
Y1748792D01*
X1417572D01*
Y1743712D01*
X1420112D01*
X1412110Y1743710D02*
Y1741170D01*
X1417190D01*
Y1743710D01*
X1419730D01*
Y1748790D01*
X1417190D01*
Y1751330D01*
X1412110D01*
Y1748790D01*
X1409570D01*
Y1743710D01*
X1412110D01*
X1411731Y1751331D02*
Y1748791D01*
X1416811D01*
Y1751331D01*
X1419351D01*
Y1756411D01*
X1416811D01*
Y1758951D01*
X1411731D01*
Y1756411D01*
X1409191D01*
Y1751331D01*
X1411731D01*
X1427480Y1751838D02*
Y1749298D01*
X1432560D01*
Y1751838D01*
X1435100D01*
Y1756918D01*
X1432560D01*
Y1759458D01*
X1427480D01*
Y1756918D01*
X1424940D01*
Y1751838D01*
X1427480D01*
X1444177Y1743777D02*
Y1741237D01*
X1449257D01*
Y1743777D01*
X1451797D01*
Y1748857D01*
X1449257D01*
Y1751397D01*
X1444177D01*
Y1748857D01*
X1441637D01*
Y1743777D01*
X1444177D01*
X1436116Y1727708D02*
Y1725168D01*
X1441196D01*
Y1727708D01*
X1443736D01*
Y1732788D01*
X1441196D01*
Y1735328D01*
X1436116D01*
Y1732788D01*
X1433576D01*
Y1727708D01*
X1436116D01*
X1622044Y1788668D02*
Y1786128D01*
X1627124D01*
Y1788668D01*
X1629664D01*
Y1793748D01*
X1627124D01*
Y1796288D01*
X1622044D01*
Y1793748D01*
X1619504D01*
Y1788668D01*
X1622044D01*
X1532128Y1766824D02*
Y1764284D01*
X1537208D01*
Y1766824D01*
X1539748D01*
Y1771904D01*
X1537208D01*
Y1774444D01*
X1532128D01*
Y1771904D01*
X1529588D01*
Y1766824D01*
X1532128D01*
X1220724Y2182330D02*
Y2179790D01*
X1225804D01*
Y2182330D01*
X1228344D01*
Y2187410D01*
X1225804D01*
Y2189950D01*
X1220724D01*
Y2187410D01*
X1218184D01*
Y2182330D01*
X1220724D01*
X1532112Y1759712D02*
Y1757172D01*
X1537192D01*
Y1759712D01*
X1539732D01*
Y1764792D01*
X1537192D01*
Y1767332D01*
X1532112D01*
Y1764792D01*
X1529572D01*
Y1759712D01*
X1532112D01*
X1097788Y2182330D02*
Y2179790D01*
X1102868D01*
Y2182330D01*
X1105408D01*
Y2187410D01*
X1102868D01*
Y2189950D01*
X1097788D01*
Y2187410D01*
X1095248D01*
Y2182330D01*
X1097788D01*
X1431036Y1880850D02*
Y1878310D01*
X1436116D01*
Y1880850D01*
X1438656D01*
Y1885930D01*
X1436116D01*
Y1888470D01*
X1431036D01*
Y1885930D01*
X1428496D01*
Y1880850D01*
X1431036D01*
X1452118Y1871726D02*
Y1869186D01*
X1457198D01*
Y1871726D01*
X1459738D01*
Y1876806D01*
X1457198D01*
Y1879346D01*
X1452118D01*
Y1876806D01*
X1449578D01*
Y1871726D01*
X1452118D01*
X1043432Y1788668D02*
Y1786128D01*
X1048512D01*
Y1788668D01*
X1051052D01*
Y1793748D01*
X1048512D01*
Y1796288D01*
X1043432D01*
Y1793748D01*
X1040892D01*
Y1788668D01*
X1043432D01*
X1460158Y1847762D02*
Y1845222D01*
X1465238D01*
Y1847762D01*
X1467778D01*
Y1852842D01*
X1465238D01*
Y1855382D01*
X1460158D01*
Y1852842D01*
X1457618D01*
Y1847762D01*
X1460158D01*
X1468252Y1863852D02*
Y1861312D01*
X1473332D01*
Y1863852D01*
X1475872D01*
Y1868932D01*
X1473332D01*
Y1871472D01*
X1468252D01*
Y1868932D01*
X1465712D01*
Y1863852D01*
X1468252D01*
X1484122Y1846834D02*
Y1844294D01*
X1489202D01*
Y1846834D01*
X1491742D01*
Y1851914D01*
X1489202D01*
Y1854454D01*
X1484122D01*
Y1851914D01*
X1481582D01*
Y1846834D01*
X1484122D01*
X1460754Y1855724D02*
Y1853184D01*
X1465834D01*
Y1855724D01*
X1468374D01*
Y1860804D01*
X1465834D01*
Y1863344D01*
X1460754D01*
Y1860804D01*
X1458214D01*
Y1855724D01*
X1460754D01*
X1436116Y1863852D02*
Y1861312D01*
X1441196D01*
Y1863852D01*
X1443736D01*
Y1868932D01*
X1441196D01*
Y1871472D01*
X1436116D01*
Y1868932D01*
X1433576D01*
Y1863852D01*
X1436116D01*
X1452070Y1847850D02*
Y1845310D01*
X1457150D01*
Y1847850D01*
X1459690D01*
Y1852930D01*
X1457150D01*
Y1855470D01*
X1452070D01*
Y1852930D01*
X1449530D01*
Y1847850D01*
X1452070D01*
X1452118Y1855724D02*
Y1853184D01*
X1457198D01*
Y1855724D01*
X1459738D01*
Y1860804D01*
X1457198D01*
Y1863344D01*
X1452118D01*
Y1860804D01*
X1449578D01*
Y1855724D01*
X1452118D01*
Y1863852D02*
Y1861312D01*
X1457198D01*
Y1863852D01*
X1459738D01*
Y1868932D01*
X1457198D01*
Y1871472D01*
X1452118D01*
Y1868932D01*
X1449578D01*
Y1863852D01*
X1452118D01*
X1399794Y1250950D02*
Y1248410D01*
X1404874D01*
Y1250950D01*
X1407414D01*
Y1256030D01*
X1404874D01*
Y1258570D01*
X1399794D01*
Y1256030D01*
X1397254D01*
Y1250950D01*
X1399794D01*
X1420114Y1871726D02*
Y1869186D01*
X1425194D01*
Y1871726D01*
X1427734D01*
Y1876806D01*
X1425194D01*
Y1879346D01*
X1420114D01*
Y1876806D01*
X1417574D01*
Y1871726D01*
X1420114D01*
X1436070Y1847850D02*
Y1845310D01*
X1441150D01*
Y1847850D01*
X1443690D01*
Y1852930D01*
X1441150D01*
Y1855470D01*
X1436070D01*
Y1852930D01*
X1433530D01*
Y1847850D01*
X1436070D01*
X1436116Y1855216D02*
Y1852676D01*
X1441196D01*
Y1855216D01*
X1443736D01*
Y1860296D01*
X1441196D01*
Y1862836D01*
X1436116D01*
Y1860296D01*
X1433576D01*
Y1855216D01*
X1436116D01*
X1534410Y2149094D02*
Y2146554D01*
X1539490D01*
Y2149094D01*
X1542030D01*
Y2154174D01*
X1539490D01*
Y2156714D01*
X1534410D01*
Y2154174D01*
X1531870D01*
Y2149094D01*
X1534410D01*
X1134364Y1737050D02*
Y1734510D01*
X1139444D01*
Y1737050D01*
X1141984D01*
Y1742130D01*
X1139444D01*
Y1744670D01*
X1134364D01*
Y1742130D01*
X1131824D01*
Y1737050D01*
X1134364D01*
X2045716Y1730248D02*
Y1727708D01*
X2050796D01*
Y1730248D01*
X2053336D01*
Y1735328D01*
X2050796D01*
Y1737868D01*
X2045716D01*
Y1735328D01*
X2043176D01*
Y1730248D01*
X2045716D01*
X2023672Y1722374D02*
Y1719834D01*
X2028752D01*
Y1722374D01*
X2031292D01*
Y1727454D01*
X2028752D01*
Y1729994D01*
X2023672D01*
Y1727454D01*
X2021132D01*
Y1722374D01*
X2023672D01*
X1108456Y1713050D02*
Y1710510D01*
X1113536D01*
Y1713050D01*
X1116076D01*
Y1718130D01*
X1113536D01*
Y1720670D01*
X1108456D01*
Y1718130D01*
X1105916D01*
Y1713050D01*
X1108456D01*
X998474D02*
Y1710510D01*
X1003554D01*
Y1713050D01*
X1006094D01*
Y1718130D01*
X1003554D01*
Y1720670D01*
X998474D01*
Y1718130D01*
X995934D01*
Y1713050D01*
X998474D01*
X970788Y1729050D02*
Y1726510D01*
X975868D01*
Y1729050D01*
X978408D01*
Y1734130D01*
X975868D01*
Y1736670D01*
X970788D01*
Y1734130D01*
X968248D01*
Y1729050D01*
X970788D01*
X1911604Y1866320D02*
Y1863780D01*
X1916684D01*
Y1866320D01*
X1919224D01*
Y1871400D01*
X1916684D01*
Y1873940D01*
X1911604D01*
Y1871400D01*
X1909064D01*
Y1866320D01*
X1911604D01*
X1058148Y1881050D02*
Y1878510D01*
X1063228D01*
Y1881050D01*
X1065768D01*
Y1886130D01*
X1063228D01*
Y1888670D01*
X1058148D01*
Y1886130D01*
X1055608D01*
Y1881050D01*
X1058148D01*
X1073150Y1865050D02*
Y1862510D01*
X1078230D01*
Y1865050D01*
X1080770D01*
Y1870130D01*
X1078230D01*
Y1872670D01*
X1073150D01*
Y1870130D01*
X1070610D01*
Y1865050D01*
X1073150D01*
X2020062Y1858320D02*
Y1855780D01*
X2025142D01*
Y1858320D01*
X2027682D01*
Y1863400D01*
X2025142D01*
Y1865940D01*
X2020062D01*
Y1863400D01*
X2017522D01*
Y1858320D01*
X2020062D01*
X1108456Y1862836D02*
Y1860296D01*
X1113536D01*
Y1862836D01*
X1116076D01*
Y1867916D01*
X1113536D01*
Y1870456D01*
X1108456D01*
Y1867916D01*
X1105916D01*
Y1862836D01*
X1108456D01*
X1066292Y1761050D02*
Y1758510D01*
X1071372D01*
Y1761050D01*
X1073912D01*
Y1766130D01*
X1071372D01*
Y1768670D01*
X1066292D01*
Y1766130D01*
X1063752D01*
Y1761050D01*
X1066292D01*
X2045716Y1778254D02*
Y1775714D01*
X2050796D01*
Y1778254D01*
X2053336D01*
Y1783334D01*
X2050796D01*
Y1785874D01*
X2045716D01*
Y1783334D01*
X2043176D01*
Y1778254D01*
X2045716D01*
X2023618Y1786382D02*
Y1783842D01*
X2028698D01*
Y1786382D01*
X2031238D01*
Y1791462D01*
X2028698D01*
Y1794002D01*
X2023618D01*
Y1791462D01*
X2021078D01*
Y1786382D01*
X2023618D01*
X1086358Y1785112D02*
Y1782572D01*
X1091438D01*
Y1785112D01*
X1093978D01*
Y1790192D01*
X1091438D01*
Y1792732D01*
X1086358D01*
Y1790192D01*
X1083818D01*
Y1785112D01*
X1086358D01*
X1933702Y1826320D02*
Y1823780D01*
X1938782D01*
Y1826320D01*
X1941322D01*
Y1831400D01*
X1938782D01*
Y1833940D01*
X1933702D01*
Y1831400D01*
X1931162D01*
Y1826320D01*
X1933702D01*
X999371Y1804924D02*
Y1802384D01*
X1004451D01*
Y1804924D01*
X1006991D01*
Y1810004D01*
X1004451D01*
Y1812544D01*
X999371D01*
Y1810004D01*
X996831D01*
Y1804924D01*
X999371D01*
X1236472Y1836928D02*
Y1834388D01*
X1241552D01*
Y1836928D01*
X1244092D01*
Y1842008D01*
X1241552D01*
Y1844548D01*
X1236472D01*
Y1842008D01*
X1233932D01*
Y1836928D01*
X1236472D01*
X974592Y1785112D02*
Y1782572D01*
X979672D01*
Y1785112D01*
X982212D01*
Y1790192D01*
X979672D01*
Y1792732D01*
X974592D01*
Y1790192D01*
X972052D01*
Y1785112D01*
X974592D01*
X1188974Y1814068D02*
Y1811528D01*
X1194054D01*
Y1814068D01*
X1196594D01*
Y1819148D01*
X1194054D01*
Y1821688D01*
X1188974D01*
Y1819148D01*
X1186434D01*
Y1814068D01*
X1188974D01*
X996442Y1776984D02*
Y1774444D01*
X1001522D01*
Y1776984D01*
X1004062D01*
Y1782064D01*
X1001522D01*
Y1784604D01*
X996442D01*
Y1782064D01*
X993902D01*
Y1776984D01*
X996442D01*
X1911604Y1780032D02*
Y1777492D01*
X1916684D01*
Y1780032D01*
X1919224D01*
Y1785112D01*
X1916684D01*
Y1787652D01*
X1911604D01*
Y1785112D01*
X1909064D01*
Y1780032D01*
X1911604D01*
X974344Y1753108D02*
Y1750568D01*
X979424D01*
Y1753108D01*
X981964D01*
Y1758188D01*
X979424D01*
Y1760728D01*
X974344D01*
Y1758188D01*
X971804D01*
Y1753108D01*
X974344D01*
X972820Y1745050D02*
Y1742510D01*
X977900D01*
Y1745050D01*
X980440D01*
Y1750130D01*
X977900D01*
Y1752670D01*
X972820D01*
Y1750130D01*
X970280D01*
Y1745050D01*
X972820D01*
X1108456Y1837182D02*
Y1834642D01*
X1113536D01*
Y1837182D01*
X1116076D01*
Y1842262D01*
X1113536D01*
Y1844802D01*
X1108456D01*
Y1842262D01*
X1105916D01*
Y1837182D01*
X1108456D01*
X1439672Y1186942D02*
Y1184402D01*
X1444752D01*
Y1186942D01*
X1447292D01*
Y1192022D01*
X1444752D01*
Y1194562D01*
X1439672D01*
Y1192022D01*
X1437132D01*
Y1186942D01*
X1439672D01*
X1455674Y1179076D02*
Y1176536D01*
X1460754D01*
Y1179076D01*
X1463294D01*
Y1184156D01*
X1460754D01*
Y1186696D01*
X1455674D01*
Y1184156D01*
X1453134D01*
Y1179076D01*
X1455674D01*
X1455810Y1170940D02*
Y1168400D01*
X1460890D01*
Y1170940D01*
X1463430D01*
Y1176020D01*
X1460890D01*
Y1178560D01*
X1455810D01*
Y1176020D01*
X1453270D01*
Y1170940D01*
X1455810D01*
X2289340Y1409954D02*
Y1407414D01*
X2294420D01*
Y1409954D01*
X2296960D01*
Y1415034D01*
X2294420D01*
Y1417574D01*
X2289340D01*
Y1415034D01*
X2286800D01*
Y1409954D01*
X2289340D01*
X1407839Y1165435D02*
Y1162895D01*
X1412919D01*
Y1165435D01*
X1415459D01*
Y1170515D01*
X1412919D01*
Y1173055D01*
X1407839D01*
Y1170515D01*
X1405299D01*
Y1165435D01*
X1407839D01*
X1383792Y1195042D02*
Y1192502D01*
X1388872D01*
Y1195042D01*
X1391412D01*
Y1200122D01*
X1388872D01*
Y1202662D01*
X1383792D01*
Y1200122D01*
X1381252D01*
Y1195042D01*
X1383792D01*
X1447800Y1211072D02*
Y1208532D01*
X1452880D01*
Y1211072D01*
X1455420D01*
Y1216152D01*
X1452880D01*
Y1218692D01*
X1447800D01*
Y1216152D01*
X1445260D01*
Y1211072D01*
X1447800D01*
X1473962Y1222756D02*
Y1220216D01*
X1479042D01*
Y1222756D01*
X1481582D01*
Y1227836D01*
X1479042D01*
Y1230376D01*
X1473962D01*
Y1227836D01*
X1471422D01*
Y1222756D01*
X1473962D01*
X1461650Y1199000D02*
Y1196460D01*
X1466730D01*
Y1199000D01*
X1469270D01*
Y1204080D01*
X1466730D01*
Y1206620D01*
X1461650D01*
Y1204080D01*
X1459110D01*
Y1199000D01*
X1461650D01*
X1371626Y1166876D02*
Y1164336D01*
X1376706D01*
Y1166876D01*
X1379246D01*
Y1171956D01*
X1376706D01*
Y1174496D01*
X1371626D01*
Y1171956D01*
X1369086D01*
Y1166876D01*
X1371626D01*
X1423670Y1272794D02*
Y1270254D01*
X1428750D01*
Y1272794D01*
X1431290D01*
Y1277874D01*
X1428750D01*
Y1280414D01*
X1423670D01*
Y1277874D01*
X1421130D01*
Y1272794D01*
X1423670D01*
X1242568Y1152652D02*
Y1150112D01*
X1247648D01*
Y1152652D01*
X1250188D01*
Y1157732D01*
X1247648D01*
Y1160272D01*
X1242568D01*
Y1157732D01*
X1240028D01*
Y1152652D01*
X1242568D01*
X1391666Y1195070D02*
Y1192530D01*
X1396746D01*
Y1195070D01*
X1399286D01*
Y1200150D01*
X1396746D01*
Y1202690D01*
X1391666D01*
Y1200150D01*
X1389126D01*
Y1195070D01*
X1391666D01*
X1399794Y1187044D02*
Y1184504D01*
X1404874D01*
Y1187044D01*
X1407414D01*
Y1192124D01*
X1404874D01*
Y1194664D01*
X1399794D01*
Y1192124D01*
X1397254D01*
Y1187044D01*
X1399794D01*
X1407692Y1186918D02*
Y1184378D01*
X1412772D01*
Y1186918D01*
X1415312D01*
Y1191998D01*
X1412772D01*
Y1194538D01*
X1407692D01*
Y1191998D01*
X1405152D01*
Y1186918D01*
X1407692D01*
X1383792Y1234948D02*
Y1232408D01*
X1388872D01*
Y1234948D01*
X1391412D01*
Y1240028D01*
X1388872D01*
Y1242568D01*
X1383792D01*
Y1240028D01*
X1381252D01*
Y1234948D01*
X1383792D01*
X1447800Y1195070D02*
Y1192530D01*
X1452880D01*
Y1195070D01*
X1455420D01*
Y1200150D01*
X1452880D01*
Y1202690D01*
X1447800D01*
Y1200150D01*
X1445260D01*
Y1195070D01*
X1447800D01*
X1320546Y1216914D02*
Y1214374D01*
X1325626D01*
Y1216914D01*
X1328166D01*
Y1221994D01*
X1325626D01*
Y1224534D01*
X1320546D01*
Y1221994D01*
X1318006D01*
Y1216914D01*
X1320546D01*
X1594410Y2193290D02*
Y2190750D01*
X1599490D01*
Y2193290D01*
X1602030D01*
Y2198370D01*
X1599490D01*
Y2200910D01*
X1594410D01*
Y2198370D01*
X1591870D01*
Y2193290D01*
X1594410D01*
X1599410Y2152650D02*
Y2150110D01*
X1604490D01*
Y2152650D01*
X1607030D01*
Y2157730D01*
X1604490D01*
Y2160270D01*
X1599410D01*
Y2157730D01*
X1596870D01*
Y2152650D01*
X1599410D01*
X1431798Y1234948D02*
Y1232408D01*
X1436878D01*
Y1234948D01*
X1439418D01*
Y1240028D01*
X1436878D01*
Y1242568D01*
X1431798D01*
Y1240028D01*
X1429258D01*
Y1234948D01*
X1431798D01*
X1439926Y1242822D02*
Y1240282D01*
X1445006D01*
Y1242822D01*
X1447546D01*
Y1247902D01*
X1445006D01*
Y1250442D01*
X1439926D01*
Y1247902D01*
X1437386D01*
Y1242822D01*
X1439926D01*
X1407668Y1179068D02*
Y1176528D01*
X1412748D01*
Y1179068D01*
X1415288D01*
Y1184148D01*
X1412748D01*
Y1186688D01*
X1407668D01*
Y1184148D01*
X1405128D01*
Y1179068D01*
X1407668D01*
X1329944Y1143762D02*
Y1141222D01*
X1335024D01*
Y1143762D01*
X1337564D01*
Y1148842D01*
X1335024D01*
Y1151382D01*
X1329944D01*
Y1148842D01*
X1327404D01*
Y1143762D01*
X1329944D01*
X2051558Y1153160D02*
Y1150620D01*
X2056638D01*
Y1153160D01*
X2059178D01*
Y1158240D01*
X2056638D01*
Y1160780D01*
X2051558D01*
Y1158240D01*
X2049018D01*
Y1153160D01*
X2051558D01*
X1451610Y1143762D02*
Y1141222D01*
X1456690D01*
Y1143762D01*
X1459230D01*
Y1148842D01*
X1456690D01*
Y1151382D01*
X1451610D01*
Y1148842D01*
X1449070D01*
Y1143762D01*
X1451610D01*
X1453642Y1260094D02*
Y1257554D01*
X1458722D01*
Y1260094D01*
X1461262D01*
Y1265174D01*
X1458722D01*
Y1267714D01*
X1453642D01*
Y1265174D01*
X1451102D01*
Y1260094D01*
X1453642D01*
X1339186Y1143762D02*
Y1141222D01*
X1344266D01*
Y1143762D01*
X1346806D01*
Y1148842D01*
X1344266D01*
Y1151382D01*
X1339186D01*
Y1148842D01*
X1336646D01*
Y1143762D01*
X1339186D01*
X1423924Y1264158D02*
Y1261618D01*
X1429004D01*
Y1264158D01*
X1431544D01*
Y1269238D01*
X1429004D01*
Y1271778D01*
X1423924D01*
Y1269238D01*
X1421384D01*
Y1264158D01*
X1423924D01*
X1767838Y2107438D02*
Y2104898D01*
X1772918D01*
Y2107438D01*
X1775458D01*
Y2112518D01*
X1772918D01*
Y2115058D01*
X1767838D01*
Y2112518D01*
X1765298D01*
Y2107438D01*
X1767838D01*
X1813229Y2132584D02*
Y2130044D01*
X1818309D01*
Y2132584D01*
X1820849D01*
Y2137664D01*
X1818309D01*
Y2140204D01*
X1813229D01*
Y2137664D01*
X1810689D01*
Y2132584D01*
X1813229D01*
X1395688Y1856232D02*
Y1853692D01*
X1400768D01*
Y1856232D01*
X1403308D01*
Y1861312D01*
X1400768D01*
Y1863852D01*
X1395688D01*
Y1861312D01*
X1393148D01*
Y1856232D01*
X1395688D01*
X777494Y1902460D02*
Y1899920D01*
X782574D01*
Y1902460D01*
X785114D01*
Y1907540D01*
X782574D01*
Y1910080D01*
X777494D01*
Y1907540D01*
X774954D01*
Y1902460D01*
X777494D01*
X1516126Y1847850D02*
Y1845310D01*
X1521206D01*
Y1847850D01*
X1523746D01*
Y1852930D01*
X1521206D01*
Y1855470D01*
X1516126D01*
Y1852930D01*
X1513586D01*
Y1847850D01*
X1516126D01*
X1444498Y1286556D02*
Y1284016D01*
X1449578D01*
Y1286556D01*
X1452118D01*
Y1291636D01*
X1449578D01*
Y1294176D01*
X1444498D01*
Y1291636D01*
X1441958D01*
Y1286556D01*
X1444498D01*
X2140966Y1120140D02*
Y1117600D01*
X2146046D01*
Y1120140D01*
X2148586D01*
Y1125220D01*
X2146046D01*
Y1127760D01*
X2140966D01*
Y1125220D01*
X2138426D01*
Y1120140D01*
X2140966D01*
X1471676Y1242822D02*
Y1240282D01*
X1476756D01*
Y1242822D01*
X1479296D01*
Y1247902D01*
X1476756D01*
Y1250442D01*
X1471676D01*
Y1247902D01*
X1469136D01*
Y1242822D01*
X1471676D01*
X1461770Y1252728D02*
Y1250188D01*
X1466850D01*
Y1252728D01*
X1469390D01*
Y1257808D01*
X1466850D01*
Y1260348D01*
X1461770D01*
Y1257808D01*
X1459230D01*
Y1252728D01*
X1461770D01*
X2140966Y1110230D02*
Y1107690D01*
X2146046D01*
Y1110230D01*
X2148586D01*
Y1115310D01*
X2146046D01*
Y1117850D01*
X2140966D01*
Y1115310D01*
X2138426D01*
Y1110230D01*
X2140966D01*
X2165858Y788416D02*
Y785876D01*
X2170938D01*
Y788416D01*
X2173478D01*
Y793496D01*
X2170938D01*
Y796036D01*
X2165858D01*
Y793496D01*
X2163318D01*
Y788416D01*
X2165858D01*
X2169050Y856488D02*
Y853948D01*
X2174130D01*
Y856488D01*
X2176670D01*
Y861568D01*
X2174130D01*
Y864108D01*
X2169050D01*
Y861568D01*
X2166510D01*
Y856488D01*
X2169050D01*
X2149550Y907542D02*
Y905002D01*
X2154630D01*
Y907542D01*
X2157170D01*
Y912622D01*
X2154630D01*
Y915162D01*
X2149550D01*
Y912622D01*
X2147010D01*
Y907542D01*
X2149550D01*
X2162550Y855986D02*
Y853446D01*
X2167630D01*
Y855986D01*
X2170170D01*
Y861066D01*
X2167630D01*
Y863606D01*
X2162550D01*
Y861066D01*
X2160010D01*
Y855986D01*
X2162550D01*
X2155952Y856586D02*
Y854046D01*
X2161032D01*
Y856586D01*
X2163572D01*
Y861666D01*
X2161032D01*
Y864206D01*
X2155952D01*
Y861666D01*
X2153412D01*
Y856586D01*
X2155952D01*
X1768602Y1475318D02*
Y1472778D01*
X1773682D01*
Y1475318D01*
X1776222D01*
Y1480398D01*
X1773682D01*
Y1482938D01*
X1768602D01*
Y1480398D01*
X1766062D01*
Y1475318D01*
X1768602D01*
X1403750Y1140206D02*
Y1137666D01*
X1408830D01*
Y1140206D01*
X1411370D01*
Y1145286D01*
X1408830D01*
Y1147826D01*
X1403750D01*
Y1145286D01*
X1401210D01*
Y1140206D01*
X1403750D01*
X1407668Y1260856D02*
Y1258316D01*
X1412748D01*
Y1260856D01*
X1415288D01*
Y1265936D01*
X1412748D01*
Y1268476D01*
X1407668D01*
Y1265936D01*
X1405128D01*
Y1260856D01*
X1407668D01*
X1513840Y1276096D02*
Y1273556D01*
X1518920D01*
Y1276096D01*
X1521460D01*
Y1281176D01*
X1518920D01*
Y1283716D01*
X1513840D01*
Y1281176D01*
X1511300D01*
Y1276096D01*
X1513840D01*
X1465326Y1639824D02*
Y1637284D01*
X1470406D01*
Y1639824D01*
X1472946D01*
Y1644904D01*
X1470406D01*
Y1647444D01*
X1465326D01*
Y1644904D01*
X1462786D01*
Y1639824D01*
X1465326D01*
X1423670Y1227074D02*
Y1224534D01*
X1428750D01*
Y1227074D01*
X1431290D01*
Y1232154D01*
X1428750D01*
Y1234694D01*
X1423670D01*
Y1232154D01*
X1421130D01*
Y1227074D01*
X1423670D01*
X1568450Y986790D02*
Y984250D01*
X1573530D01*
Y986790D01*
X1576070D01*
Y991870D01*
X1573530D01*
Y994410D01*
X1568450D01*
Y991870D01*
X1565910D01*
Y986790D01*
X1568450D01*
X1431798Y1227074D02*
Y1224534D01*
X1436878D01*
Y1227074D01*
X1439418D01*
Y1232154D01*
X1436878D01*
Y1234694D01*
X1431798D01*
Y1232154D01*
X1429258D01*
Y1227074D01*
X1431798D01*
X1423162Y1321054D02*
Y1318514D01*
X1428242D01*
Y1321054D01*
X1430782D01*
Y1326134D01*
X1428242D01*
Y1328674D01*
X1423162D01*
Y1326134D01*
X1420622D01*
Y1321054D01*
X1423162D01*
X1431798Y1186952D02*
Y1184412D01*
X1436878D01*
Y1186952D01*
X1439418D01*
Y1192032D01*
X1436878D01*
Y1194572D01*
X1431798D01*
Y1192032D01*
X1429258D01*
Y1186952D01*
X1431798D01*
X1413256Y1269492D02*
Y1266952D01*
X1418336D01*
Y1269492D01*
X1420876D01*
Y1274572D01*
X1418336D01*
Y1277112D01*
X1413256D01*
Y1274572D01*
X1410716D01*
Y1269492D01*
X1413256D01*
X1399794Y1195070D02*
Y1192530D01*
X1404874D01*
Y1195070D01*
X1407414D01*
Y1200150D01*
X1404874D01*
Y1202690D01*
X1399794D01*
Y1200150D01*
X1397254D01*
Y1195070D01*
X1399794D01*
X2021586Y1737868D02*
Y1735328D01*
X2026666D01*
Y1737868D01*
X2029206D01*
Y1742948D01*
X2026666D01*
Y1745488D01*
X2021586D01*
Y1742948D01*
X2019046D01*
Y1737868D01*
X2021586D01*
X1375664Y1179068D02*
Y1176528D01*
X1380744D01*
Y1179068D01*
X1383284D01*
Y1184148D01*
X1380744D01*
Y1186688D01*
X1375664D01*
Y1184148D01*
X1373124D01*
Y1179068D01*
X1375664D01*
X1508204Y1791716D02*
Y1789176D01*
X1513284D01*
Y1791716D01*
X1515824D01*
Y1796796D01*
X1513284D01*
Y1799336D01*
X1508204D01*
Y1796796D01*
X1505664D01*
Y1791716D01*
X1508204D01*
X1391666Y1211072D02*
Y1208532D01*
X1396746D01*
Y1211072D01*
X1399286D01*
Y1216152D01*
X1396746D01*
Y1218692D01*
X1391666D01*
Y1216152D01*
X1389126D01*
Y1211072D01*
X1391666D01*
X1439926Y1234948D02*
Y1232408D01*
X1445006D01*
Y1234948D01*
X1447546D01*
Y1240028D01*
X1445006D01*
Y1242568D01*
X1439926D01*
Y1240028D01*
X1437386D01*
Y1234948D01*
X1439926D01*
X1451102Y1767840D02*
Y1765300D01*
X1456182D01*
Y1767840D01*
X1458722D01*
Y1772920D01*
X1456182D01*
Y1775460D01*
X1451102D01*
Y1772920D01*
X1448562D01*
Y1767840D01*
X1451102D01*
X1391666Y1227074D02*
Y1224534D01*
X1396746D01*
Y1227074D01*
X1399286D01*
Y1232154D01*
X1396746D01*
Y1234694D01*
X1391666D01*
Y1232154D01*
X1389126D01*
Y1227074D01*
X1391666D01*
X1451356Y1775460D02*
Y1772920D01*
X1456436D01*
Y1775460D01*
X1458976D01*
Y1780540D01*
X1456436D01*
Y1783080D01*
X1451356D01*
Y1780540D01*
X1448816D01*
Y1775460D01*
X1451356D01*
X1444242Y1767842D02*
Y1765302D01*
X1449322D01*
Y1767842D01*
X1451862D01*
Y1772922D01*
X1449322D01*
Y1775462D01*
X1444242D01*
Y1772922D01*
X1441702D01*
Y1767842D01*
X1444242D01*
X1420116Y1792236D02*
Y1789696D01*
X1425196D01*
Y1792236D01*
X1427736D01*
Y1797316D01*
X1425196D01*
Y1799856D01*
X1420116D01*
Y1797316D01*
X1417576D01*
Y1792236D01*
X1420116D01*
X1492250Y1799844D02*
Y1797304D01*
X1497330D01*
Y1799844D01*
X1499870D01*
Y1804924D01*
X1497330D01*
Y1807464D01*
X1492250D01*
Y1804924D01*
X1489710D01*
Y1799844D01*
X1492250D01*
X1383696Y1218946D02*
Y1216406D01*
X1388776D01*
Y1218946D01*
X1391316D01*
Y1224026D01*
X1388776D01*
Y1226566D01*
X1383696D01*
Y1224026D01*
X1381156D01*
Y1218946D01*
X1383696D01*
X1465320Y1690386D02*
Y1687846D01*
X1470400D01*
Y1690386D01*
X1472940D01*
Y1695466D01*
X1470400D01*
Y1698006D01*
X1465320D01*
Y1695466D01*
X1462780D01*
Y1690386D01*
X1465320D01*
X1367536Y1440942D02*
Y1438402D01*
X1372616D01*
Y1440942D01*
X1375156D01*
Y1446022D01*
X1372616D01*
Y1448562D01*
X1367536D01*
Y1446022D01*
X1364996D01*
Y1440942D01*
X1367536D01*
X1516126Y1815846D02*
Y1813306D01*
X1521206D01*
Y1815846D01*
X1523746D01*
Y1820926D01*
X1521206D01*
Y1823466D01*
X1516126D01*
Y1820926D01*
X1513586D01*
Y1815846D01*
X1516126D01*
X1524254Y1807718D02*
Y1805178D01*
X1529334D01*
Y1807718D01*
X1531874D01*
Y1812798D01*
X1529334D01*
Y1815338D01*
X1524254D01*
Y1812798D01*
X1521714D01*
Y1807718D01*
X1524254D01*
X1791970Y1869186D02*
Y1866646D01*
X1797050D01*
Y1869186D01*
X1799590D01*
Y1874266D01*
X1797050D01*
Y1876806D01*
X1791970D01*
Y1874266D01*
X1789430D01*
Y1869186D01*
X1791970D01*
X1500124Y1823720D02*
Y1821180D01*
X1505204D01*
Y1823720D01*
X1507744D01*
Y1828800D01*
X1505204D01*
Y1831340D01*
X1500124D01*
Y1828800D01*
X1497584D01*
Y1823720D01*
X1500124D01*
X1604264Y1605026D02*
Y1602486D01*
X1609344D01*
Y1605026D01*
X1611884D01*
Y1610106D01*
X1609344D01*
Y1612646D01*
X1604264D01*
Y1610106D01*
X1601724D01*
Y1605026D01*
X1604264D01*
X1532128Y1791716D02*
Y1789176D01*
X1537208D01*
Y1791716D01*
X1539748D01*
Y1796796D01*
X1537208D01*
Y1799336D01*
X1532128D01*
Y1796796D01*
X1529588D01*
Y1791716D01*
X1532128D01*
X1407668Y1243076D02*
Y1240536D01*
X1412748D01*
Y1243076D01*
X1415288D01*
Y1248156D01*
X1412748D01*
Y1250696D01*
X1407668D01*
Y1248156D01*
X1405128D01*
Y1243076D01*
X1407668D01*
X1415796Y1194954D02*
Y1192414D01*
X1420876D01*
Y1194954D01*
X1423416D01*
Y1200034D01*
X1420876D01*
Y1202574D01*
X1415796D01*
Y1200034D01*
X1413256D01*
Y1194954D01*
X1415796D01*
X1399794Y1263020D02*
Y1260480D01*
X1404874D01*
Y1263020D01*
X1407414D01*
Y1268100D01*
X1404874D01*
Y1270640D01*
X1399794D01*
Y1268100D01*
X1397254D01*
Y1263020D01*
X1399794D01*
X1383792Y1211072D02*
Y1208532D01*
X1388872D01*
Y1211072D01*
X1391412D01*
Y1216152D01*
X1388872D01*
Y1218692D01*
X1383792D01*
Y1216152D01*
X1381252D01*
Y1211072D01*
X1383792D01*
X1391158Y1266698D02*
Y1264158D01*
X1396238D01*
Y1266698D01*
X1398778D01*
Y1271778D01*
X1396238D01*
Y1274318D01*
X1391158D01*
Y1271778D01*
X1388618D01*
Y1266698D01*
X1391158D01*
X1515110Y1523238D02*
Y1520698D01*
X1520190D01*
Y1523238D01*
X1522730D01*
Y1528318D01*
X1520190D01*
Y1530858D01*
X1515110D01*
Y1528318D01*
X1512570D01*
Y1523238D01*
X1515110D01*
X1391666Y1243076D02*
Y1240536D01*
X1396746D01*
Y1243076D01*
X1399286D01*
Y1248156D01*
X1396746D01*
Y1250696D01*
X1391666D01*
Y1248156D01*
X1389126D01*
Y1243076D01*
X1391666D01*
X1489182Y1231440D02*
Y1228900D01*
X1494262D01*
Y1231440D01*
X1496802D01*
Y1236520D01*
X1494262D01*
Y1239060D01*
X1489182D01*
Y1236520D01*
X1486642D01*
Y1231440D01*
X1489182D01*
X1499522Y1792077D02*
Y1789537D01*
X1504602D01*
Y1792077D01*
X1507142D01*
Y1797157D01*
X1504602D01*
Y1799697D01*
X1499522D01*
Y1797157D01*
X1496982D01*
Y1792077D01*
X1499522D01*
X1524254Y1831848D02*
Y1829308D01*
X1529334D01*
Y1831848D01*
X1531874D01*
Y1836928D01*
X1529334D01*
Y1839468D01*
X1524254D01*
Y1836928D01*
X1521714D01*
Y1831848D01*
X1524254D01*
X1755648Y1558290D02*
Y1555750D01*
X1760728D01*
Y1558290D01*
X1763268D01*
Y1563370D01*
X1760728D01*
Y1565910D01*
X1755648D01*
Y1563370D01*
X1753108D01*
Y1558290D01*
X1755648D01*
X1574504Y1677416D02*
Y1674876D01*
X1579584D01*
Y1677416D01*
X1582124D01*
Y1682496D01*
X1579584D01*
Y1685036D01*
X1574504D01*
Y1682496D01*
X1571964D01*
Y1677416D01*
X1574504D01*
X1532128Y1847850D02*
Y1845310D01*
X1537208D01*
Y1847850D01*
X1539748D01*
Y1852930D01*
X1537208D01*
Y1855470D01*
X1532128D01*
Y1852930D01*
X1529588D01*
Y1847850D01*
X1532128D01*
X1500078Y1783842D02*
Y1781302D01*
X1505158D01*
Y1783842D01*
X1507698D01*
Y1788922D01*
X1505158D01*
Y1791462D01*
X1500078D01*
Y1788922D01*
X1497538D01*
Y1783842D01*
X1500078D01*
X1565650Y1923736D02*
Y1921196D01*
X1570730D01*
Y1923736D01*
X1573270D01*
Y1928816D01*
X1570730D01*
Y1931356D01*
X1565650D01*
Y1928816D01*
X1563110D01*
Y1923736D01*
X1565650D01*
X1524250Y1847850D02*
Y1845310D01*
X1529330D01*
Y1847850D01*
X1531870D01*
Y1852930D01*
X1529330D01*
Y1855470D01*
X1524250D01*
Y1852930D01*
X1521710D01*
Y1847850D01*
X1524250D01*
X1508252Y1823720D02*
Y1821180D01*
X1513332D01*
Y1823720D01*
X1515872D01*
Y1828800D01*
X1513332D01*
Y1831340D01*
X1508252D01*
Y1828800D01*
X1505712D01*
Y1823720D01*
X1508252D01*
X1510284Y1723644D02*
Y1721104D01*
X1515364D01*
Y1723644D01*
X1517904D01*
Y1728724D01*
X1515364D01*
Y1731264D01*
X1510284D01*
Y1728724D01*
X1507744D01*
Y1723644D01*
X1510284D01*
X2136550Y880364D02*
Y877824D01*
X2141630D01*
Y880364D01*
X2144170D01*
Y885444D01*
X2141630D01*
Y887984D01*
X2136550D01*
Y885444D01*
X2134010D01*
Y880364D01*
X2136550D01*
X2272246Y1184360D02*
Y1181820D01*
X2277326D01*
Y1184360D01*
X2279866D01*
Y1189440D01*
X2277326D01*
Y1191980D01*
X2272246D01*
Y1189440D01*
X2269706D01*
Y1184360D01*
X2272246D01*
X2250190Y1162304D02*
Y1159764D01*
X2255270D01*
Y1162304D01*
X2257810D01*
Y1167384D01*
X2255270D01*
Y1169924D01*
X2250190D01*
Y1167384D01*
X2247650D01*
Y1162304D01*
X2250190D01*
X2315718Y1217422D02*
Y1214882D01*
X2320798D01*
Y1217422D01*
X2323338D01*
Y1222502D01*
X2320798D01*
Y1225042D01*
X2315718D01*
Y1222502D01*
X2313178D01*
Y1217422D01*
X2315718D01*
X2174590D02*
Y1214882D01*
X2179670D01*
Y1217422D01*
X2182210D01*
Y1222502D01*
X2179670D01*
Y1225042D01*
X2174590D01*
Y1222502D01*
X2172050D01*
Y1217422D01*
X2174590D01*
X1484648Y1282240D02*
Y1279700D01*
X1489728D01*
Y1282240D01*
X1492268D01*
Y1287320D01*
X1489728D01*
Y1289860D01*
X1484648D01*
Y1287320D01*
X1482108D01*
Y1282240D01*
X1484648D01*
X1367790Y1186942D02*
Y1184402D01*
X1372870D01*
Y1186942D01*
X1375410D01*
Y1192022D01*
X1372870D01*
Y1194562D01*
X1367790D01*
Y1192022D01*
X1365250D01*
Y1186942D01*
X1367790D01*
X1844040Y1175004D02*
Y1172464D01*
X1849120D01*
Y1175004D01*
X1851660D01*
Y1180084D01*
X1849120D01*
Y1182624D01*
X1844040D01*
Y1180084D01*
X1841500D01*
Y1175004D01*
X1844040D01*
X1447800Y1243076D02*
Y1240536D01*
X1452880D01*
Y1243076D01*
X1455420D01*
Y1248156D01*
X1452880D01*
Y1250696D01*
X1447800D01*
Y1248156D01*
X1445260D01*
Y1243076D01*
X1447800D01*
X2149602Y812292D02*
Y809752D01*
X2154682D01*
Y812292D01*
X2157222D01*
Y817372D01*
X2154682D01*
Y819912D01*
X2149602D01*
Y817372D01*
X2147062D01*
Y812292D01*
X2149602D01*
X2126780Y817880D02*
Y815340D01*
X2131860D01*
Y817880D01*
X2134400D01*
Y822960D01*
X2131860D01*
Y825500D01*
X2126780D01*
Y822960D01*
X2124240D01*
Y817880D01*
X2126780D01*
X1345692Y1208532D02*
Y1205992D01*
X1350772D01*
Y1208532D01*
X1353312D01*
Y1213612D01*
X1350772D01*
Y1216152D01*
X1345692D01*
Y1213612D01*
X1343152D01*
Y1208532D01*
X1345692D01*
X1461767Y1188971D02*
Y1186431D01*
X1466847D01*
Y1188971D01*
X1469387D01*
Y1194051D01*
X1466847D01*
Y1196591D01*
X1461767D01*
Y1194051D01*
X1459227D01*
Y1188971D01*
X1461767D01*
X1447800Y1186942D02*
Y1184402D01*
X1452880D01*
Y1186942D01*
X1455420D01*
Y1192022D01*
X1452880D01*
Y1194562D01*
X1447800D01*
Y1192022D01*
X1445260D01*
Y1186942D01*
X1447800D01*
X1399794Y1243076D02*
Y1240536D01*
X1404874D01*
Y1243076D01*
X1407414D01*
Y1248156D01*
X1404874D01*
Y1250696D01*
X1399794D01*
Y1248156D01*
X1397254D01*
Y1243076D01*
X1399794D01*
X1419686Y1168968D02*
Y1166428D01*
X1424766D01*
Y1168968D01*
X1427306D01*
Y1174048D01*
X1424766D01*
Y1176588D01*
X1419686D01*
Y1174048D01*
X1417146D01*
Y1168968D01*
X1419686D01*
X1431798Y1195070D02*
Y1192530D01*
X1436878D01*
Y1195070D01*
X1439418D01*
Y1200150D01*
X1436878D01*
Y1202690D01*
X1431798D01*
Y1200150D01*
X1429258D01*
Y1195070D01*
X1431798D01*
X1375918Y1234948D02*
Y1232408D01*
X1380998D01*
Y1234948D01*
X1383538D01*
Y1240028D01*
X1380998D01*
Y1242568D01*
X1375918D01*
Y1240028D01*
X1373378D01*
Y1234948D01*
X1375918D01*
X1439672Y1195070D02*
Y1192530D01*
X1444752D01*
Y1195070D01*
X1447292D01*
Y1200150D01*
X1444752D01*
Y1202690D01*
X1439672D01*
Y1200150D01*
X1437132D01*
Y1195070D01*
X1439672D01*
X1383690Y1170940D02*
Y1168400D01*
X1388770D01*
Y1170940D01*
X1391310D01*
Y1176020D01*
X1388770D01*
Y1178560D01*
X1383690D01*
Y1176020D01*
X1381150D01*
Y1170940D01*
X1383690D01*
X2250910Y1398740D02*
Y1396200D01*
X2255990D01*
Y1398740D01*
X2258530D01*
Y1403820D01*
X2255990D01*
Y1406360D01*
X2250910D01*
Y1403820D01*
X2248370D01*
Y1398740D01*
X2250910D01*
X1383792Y1186942D02*
Y1184402D01*
X1388872D01*
Y1186942D01*
X1391412D01*
Y1192022D01*
X1388872D01*
Y1194562D01*
X1383792D01*
Y1192022D01*
X1381252D01*
Y1186942D01*
X1383792D01*
X1375664Y1187361D02*
Y1184821D01*
X1380744D01*
Y1187361D01*
X1383284D01*
Y1192441D01*
X1380744D01*
Y1194981D01*
X1375664D01*
Y1192441D01*
X1373124D01*
Y1187361D01*
X1375664D01*
X1391750Y1166936D02*
Y1164396D01*
X1396830D01*
Y1166936D01*
X1399370D01*
Y1172016D01*
X1396830D01*
Y1174556D01*
X1391750D01*
Y1172016D01*
X1389210D01*
Y1166936D01*
X1391750D01*
X1455674Y1242822D02*
Y1240282D01*
X1460754D01*
Y1242822D01*
X1463294D01*
Y1247902D01*
X1460754D01*
Y1250442D01*
X1455674D01*
Y1247902D01*
X1453134D01*
Y1242822D01*
X1455674D01*
X1375664Y1195070D02*
Y1192530D01*
X1380744D01*
Y1195070D01*
X1383284D01*
Y1200150D01*
X1380744D01*
Y1202690D01*
X1375664D01*
Y1200150D01*
X1373124D01*
Y1195070D01*
X1375664D01*
X1910080Y1187196D02*
Y1184656D01*
X1915160D01*
Y1187196D01*
X1917700D01*
Y1192276D01*
X1915160D01*
Y1194816D01*
X1910080D01*
Y1192276D01*
X1907540D01*
Y1187196D01*
X1910080D01*
X2045716Y1842516D02*
Y1839976D01*
X2050796D01*
Y1842516D01*
X2053336D01*
Y1847596D01*
X2050796D01*
Y1850136D01*
X2045716D01*
Y1847596D01*
X2043176D01*
Y1842516D01*
X2045716D01*
X970336Y1793050D02*
Y1790510D01*
X975416D01*
Y1793050D01*
X977956D01*
Y1798130D01*
X975416D01*
Y1800670D01*
X970336D01*
Y1798130D01*
X967796D01*
Y1793050D01*
X970336D01*
X1086358Y1822196D02*
Y1819656D01*
X1091438D01*
Y1822196D01*
X1093978D01*
Y1827276D01*
X1091438D01*
Y1829816D01*
X1086358D01*
Y1827276D01*
X1083818D01*
Y1822196D01*
X1086358D01*
X1484122Y1855724D02*
Y1853184D01*
X1489202D01*
Y1855724D01*
X1491742D01*
Y1860804D01*
X1489202D01*
Y1863344D01*
X1484122D01*
Y1860804D01*
X1481582D01*
Y1855724D01*
X1484122D01*
X1524254Y1775760D02*
Y1773220D01*
X1529334D01*
Y1775760D01*
X1531874D01*
Y1780840D01*
X1529334D01*
Y1783380D01*
X1524254D01*
Y1780840D01*
X1521714D01*
Y1775760D01*
X1524254D01*
X1907540Y1761490D02*
Y1758950D01*
X1912620D01*
Y1761490D01*
X1915160D01*
Y1766570D01*
X1912620D01*
Y1769110D01*
X1907540D01*
Y1766570D01*
X1905000D01*
Y1761490D01*
X1907540D01*
X1933702Y1746250D02*
Y1743710D01*
X1938782D01*
Y1746250D01*
X1941322D01*
Y1751330D01*
X1938782D01*
Y1753870D01*
X1933702D01*
Y1751330D01*
X1931162D01*
Y1746250D01*
X1933702D01*
X2019596Y1796352D02*
Y1793812D01*
X2024676D01*
Y1796352D01*
X2027216D01*
Y1801432D01*
X2024676D01*
Y1803972D01*
X2019596D01*
Y1801432D01*
X2017056D01*
Y1796352D01*
X2019596D01*
X996400Y1796986D02*
Y1794446D01*
X1001480D01*
Y1796986D01*
X1004020D01*
Y1802066D01*
X1001480D01*
Y1804606D01*
X996400D01*
Y1802066D01*
X993860D01*
Y1796986D01*
X996400D01*
X974344Y1721104D02*
Y1718564D01*
X979424D01*
Y1721104D01*
X981964D01*
Y1726184D01*
X979424D01*
Y1728724D01*
X974344D01*
Y1726184D01*
X971804D01*
Y1721104D01*
X974344D01*
X1086358Y1738884D02*
Y1736344D01*
X1091438D01*
Y1738884D01*
X1093978D01*
Y1743964D01*
X1091438D01*
Y1746504D01*
X1086358D01*
Y1743964D01*
X1083818D01*
Y1738884D01*
X1086358D01*
X1110488Y1729050D02*
Y1726510D01*
X1115568D01*
Y1729050D01*
X1118108D01*
Y1734130D01*
X1115568D01*
Y1736670D01*
X1110488D01*
Y1734130D01*
X1107948D01*
Y1729050D01*
X1110488D01*
X1108964Y1745050D02*
Y1742510D01*
X1114044D01*
Y1745050D01*
X1116584D01*
Y1750130D01*
X1114044D01*
Y1752670D01*
X1108964D01*
Y1750130D01*
X1106424D01*
Y1745050D01*
X1108964D01*
X1499870Y1832356D02*
Y1829816D01*
X1504950D01*
Y1832356D01*
X1507490D01*
Y1837436D01*
X1504950D01*
Y1839976D01*
X1499870D01*
Y1837436D01*
X1497330D01*
Y1832356D01*
X1499870D01*
X1080304Y1793050D02*
Y1790510D01*
X1085384D01*
Y1793050D01*
X1087924D01*
Y1798130D01*
X1085384D01*
Y1800670D01*
X1080304D01*
Y1798130D01*
X1077764D01*
Y1793050D01*
X1080304D01*
X1185200Y1805910D02*
Y1803370D01*
X1190280D01*
Y1805910D01*
X1192820D01*
Y1810990D01*
X1190280D01*
Y1813530D01*
X1185200D01*
Y1810990D01*
X1182660D01*
Y1805910D01*
X1185200D01*
X1444244Y1783844D02*
Y1781304D01*
X1449324D01*
Y1783844D01*
X1451864D01*
Y1788924D01*
X1449324D01*
Y1791464D01*
X1444244D01*
Y1788924D01*
X1441704D01*
Y1783844D01*
X1444244D01*
Y1799844D02*
Y1797304D01*
X1449324D01*
Y1799844D01*
X1451864D01*
Y1804924D01*
X1449324D01*
Y1807464D01*
X1444244D01*
Y1804924D01*
X1441704D01*
Y1799844D01*
X1444244D01*
X1428242Y1791716D02*
Y1789176D01*
X1433322D01*
Y1791716D01*
X1435862D01*
Y1796796D01*
X1433322D01*
Y1799336D01*
X1428242D01*
Y1796796D01*
X1425702D01*
Y1791716D01*
X1428242D01*
X1436116Y1807718D02*
Y1805178D01*
X1441196D01*
Y1807718D01*
X1443736D01*
Y1812798D01*
X1441196D01*
Y1815338D01*
X1436116D01*
Y1812798D01*
X1433576D01*
Y1807718D01*
X1436116D01*
X1320546Y1831848D02*
Y1829308D01*
X1325626D01*
Y1831848D01*
X1328166D01*
Y1836928D01*
X1325626D01*
Y1839468D01*
X1320546D01*
Y1836928D01*
X1318006D01*
Y1831848D01*
X1320546D01*
X1436368Y1759968D02*
Y1757428D01*
X1441448D01*
Y1759968D01*
X1443988D01*
Y1765048D01*
X1441448D01*
Y1767588D01*
X1436368D01*
Y1765048D01*
X1433828D01*
Y1759968D01*
X1436368D01*
X1396160Y1721664D02*
Y1719124D01*
X1401240D01*
Y1721664D01*
X1403780D01*
Y1726744D01*
X1401240D01*
Y1729284D01*
X1396160D01*
Y1726744D01*
X1393620D01*
Y1721664D01*
X1396160D01*
X1348480Y1678194D02*
Y1675654D01*
X1353560D01*
Y1678194D01*
X1356100D01*
Y1683274D01*
X1353560D01*
Y1685814D01*
X1348480D01*
Y1683274D01*
X1345940D01*
Y1678194D01*
X1348480D01*
X1436116Y1783842D02*
Y1781302D01*
X1441196D01*
Y1783842D01*
X1443736D01*
Y1788922D01*
X1441196D01*
Y1791462D01*
X1436116D01*
Y1788922D01*
X1433576D01*
Y1783842D01*
X1436116D01*
X1420112Y1759712D02*
Y1757172D01*
X1425192D01*
Y1759712D01*
X1427732D01*
Y1764792D01*
X1425192D01*
Y1767332D01*
X1420112D01*
Y1764792D01*
X1417572D01*
Y1759712D01*
X1420112D01*
X1532128Y1831728D02*
Y1829188D01*
X1537208D01*
Y1831728D01*
X1539748D01*
Y1836808D01*
X1537208D01*
Y1839348D01*
X1532128D01*
Y1836808D01*
X1529588D01*
Y1831728D01*
X1532128D01*
X1730502Y1835658D02*
Y1833118D01*
X1735582D01*
Y1835658D01*
X1738122D01*
Y1840738D01*
X1735582D01*
Y1843278D01*
X1730502D01*
Y1840738D01*
X1727962D01*
Y1835658D01*
X1730502D01*
X1524762Y1823720D02*
Y1821180D01*
X1529842D01*
Y1823720D01*
X1532382D01*
Y1828800D01*
X1529842D01*
Y1831340D01*
X1524762D01*
Y1828800D01*
X1522222D01*
Y1823720D01*
X1524762D01*
X1516104Y1751816D02*
Y1749276D01*
X1521184D01*
Y1751816D01*
X1523724D01*
Y1756896D01*
X1521184D01*
Y1759436D01*
X1516104D01*
Y1756896D01*
X1513564D01*
Y1751816D01*
X1516104D01*
X1124458Y1787144D02*
Y1784604D01*
X1129538D01*
Y1787144D01*
X1132078D01*
Y1792224D01*
X1129538D01*
Y1794764D01*
X1124458D01*
Y1792224D01*
X1121918D01*
Y1787144D01*
X1124458D01*
X974344Y1769110D02*
Y1766570D01*
X979424D01*
Y1769110D01*
X981964D01*
Y1774190D01*
X979424D01*
Y1776730D01*
X974344D01*
Y1774190D01*
X971804D01*
Y1769110D01*
X974344D01*
X1516126Y1831848D02*
Y1829308D01*
X1521206D01*
Y1831848D01*
X1523746D01*
Y1836928D01*
X1521206D01*
Y1839468D01*
X1516126D01*
Y1836928D01*
X1513586D01*
Y1831848D01*
X1516126D01*
X1933702Y1762320D02*
Y1759780D01*
X1938782D01*
Y1762320D01*
X1941322D01*
Y1767400D01*
X1938782D01*
Y1769940D01*
X1933702D01*
Y1767400D01*
X1931162D01*
Y1762320D01*
X1933702D01*
X1574318Y1865500D02*
Y1862960D01*
X1579398D01*
Y1865500D01*
X1581938D01*
Y1870580D01*
X1579398D01*
Y1873120D01*
X1574318D01*
Y1870580D01*
X1571778D01*
Y1865500D01*
X1574318D01*
X1444244Y1751838D02*
Y1749298D01*
X1449324D01*
Y1751838D01*
X1451864D01*
Y1756918D01*
X1449324D01*
Y1759458D01*
X1444244D01*
Y1756918D01*
X1441704D01*
Y1751838D01*
X1444244D01*
X1489592Y1646038D02*
Y1643498D01*
X1494672D01*
Y1646038D01*
X1497212D01*
Y1651118D01*
X1494672D01*
Y1653658D01*
X1489592D01*
Y1651118D01*
X1487052D01*
Y1646038D01*
X1489592D01*
X1057148Y1873050D02*
Y1870510D01*
X1062228D01*
Y1873050D01*
X1064768D01*
Y1878130D01*
X1062228D01*
Y1880670D01*
X1057148D01*
Y1878130D01*
X1054608D01*
Y1873050D01*
X1057148D01*
X1392096Y1871760D02*
Y1869220D01*
X1397176D01*
Y1871760D01*
X1399716D01*
Y1876840D01*
X1397176D01*
Y1879380D01*
X1392096D01*
Y1876840D01*
X1389556D01*
Y1871760D01*
X1392096D01*
X1460754Y1875282D02*
Y1872742D01*
X1465834D01*
Y1875282D01*
X1468374D01*
Y1880362D01*
X1465834D01*
Y1882902D01*
X1460754D01*
Y1880362D01*
X1458214D01*
Y1875282D01*
X1460754D01*
X1418082Y1881886D02*
Y1879346D01*
X1423162D01*
Y1881886D01*
X1425702D01*
Y1886966D01*
X1423162D01*
Y1889506D01*
X1418082D01*
Y1886966D01*
X1415542D01*
Y1881886D01*
X1418082D01*
X1258310Y1946304D02*
Y1943764D01*
X1263390D01*
Y1946304D01*
X1265930D01*
Y1951384D01*
X1263390D01*
Y1953924D01*
X1258310D01*
Y1951384D01*
X1255770D01*
Y1946304D01*
X1258310D01*
X1457800Y1280208D02*
Y1277668D01*
X1462880D01*
Y1280208D01*
X1465420D01*
Y1285288D01*
X1462880D01*
Y1287828D01*
X1457800D01*
Y1285288D01*
X1455260D01*
Y1280208D01*
X1457800D01*
X1444244Y1897126D02*
Y1894586D01*
X1449324D01*
Y1897126D01*
X1451864D01*
Y1902206D01*
X1449324D01*
Y1904746D01*
X1444244D01*
Y1902206D01*
X1441704D01*
Y1897126D01*
X1444244D01*
X1478280Y1717460D02*
Y1714920D01*
X1483360D01*
Y1717460D01*
X1485900D01*
Y1722540D01*
X1483360D01*
Y1725080D01*
X1478280D01*
Y1722540D01*
X1475740D01*
Y1717460D01*
X1478280D01*
X1532170Y1727750D02*
Y1725210D01*
X1537250D01*
Y1727750D01*
X1539790D01*
Y1732830D01*
X1537250D01*
Y1735370D01*
X1532170D01*
Y1732830D01*
X1529630D01*
Y1727750D01*
X1532170D01*
X1436116Y1791716D02*
Y1789176D01*
X1441196D01*
Y1791716D01*
X1443736D01*
Y1796796D01*
X1441196D01*
Y1799336D01*
X1436116D01*
Y1796796D01*
X1433576D01*
Y1791716D01*
X1436116D01*
X1312406Y1900298D02*
Y1897758D01*
X1317486D01*
Y1900298D01*
X1320026D01*
Y1905378D01*
X1317486D01*
Y1907918D01*
X1312406D01*
Y1905378D01*
X1309866D01*
Y1900298D01*
X1312406D01*
X2047494Y1714246D02*
Y1711706D01*
X2052574D01*
Y1714246D01*
X2055114D01*
Y1719326D01*
X2052574D01*
Y1721866D01*
X2047494D01*
Y1719326D01*
X2044954D01*
Y1714246D01*
X2047494D01*
X2045716Y1743964D02*
Y1741424D01*
X2050796D01*
Y1743964D01*
X2053336D01*
Y1749044D01*
X2050796D01*
Y1751584D01*
X2045716D01*
Y1749044D01*
X2043176D01*
Y1743964D01*
X2045716D01*
X1108456Y1762506D02*
Y1759966D01*
X1113536D01*
Y1762506D01*
X1116076D01*
Y1767586D01*
X1113536D01*
Y1770126D01*
X1108456D01*
Y1767586D01*
X1105916D01*
Y1762506D01*
X1108456D01*
X998474Y1757172D02*
Y1754632D01*
X1003554D01*
Y1757172D01*
X1006094D01*
Y1762252D01*
X1003554D01*
Y1764792D01*
X998474D01*
Y1762252D01*
X995934D01*
Y1757172D01*
X998474D01*
X1516126Y1735794D02*
Y1733254D01*
X1521206D01*
Y1735794D01*
X1523746D01*
Y1740874D01*
X1521206D01*
Y1743414D01*
X1516126D01*
Y1740874D01*
X1513586D01*
Y1735794D01*
X1516126D01*
X1540160Y1725728D02*
Y1723188D01*
X1545240D01*
Y1725728D01*
X1547780D01*
Y1730808D01*
X1545240D01*
Y1733348D01*
X1540160D01*
Y1730808D01*
X1537620D01*
Y1725728D01*
X1540160D01*
X1651470Y2075180D02*
Y2072640D01*
X1656550D01*
Y2075180D01*
X1659090D01*
Y2080260D01*
X1656550D01*
Y2082800D01*
X1651470D01*
Y2080260D01*
X1648930D01*
Y2075180D01*
X1651470D01*
X1404112Y1727708D02*
Y1725168D01*
X1409192D01*
Y1727708D01*
X1411732D01*
Y1732788D01*
X1409192D01*
Y1735328D01*
X1404112D01*
Y1732788D01*
X1401572D01*
Y1727708D01*
X1404112D01*
X1482578Y1164130D02*
Y1161590D01*
X1487658D01*
Y1164130D01*
X1490198D01*
Y1169210D01*
X1487658D01*
Y1171750D01*
X1482578D01*
Y1169210D01*
X1480038D01*
Y1164130D01*
X1482578D01*
X1933702Y1714320D02*
Y1711780D01*
X1938782D01*
Y1714320D01*
X1941322D01*
Y1719400D01*
X1938782D01*
Y1721940D01*
X1933702D01*
Y1719400D01*
X1931162D01*
Y1714320D01*
X1933702D01*
X1941068Y1722320D02*
Y1719780D01*
X1946148D01*
Y1722320D01*
X1948688D01*
Y1727400D01*
X1946148D01*
Y1729940D01*
X1941068D01*
Y1727400D01*
X1938528D01*
Y1722320D01*
X1941068D01*
X1258310Y1971272D02*
Y1968732D01*
X1263390D01*
Y1971272D01*
X1265930D01*
Y1976352D01*
X1263390D01*
Y1978892D01*
X1258310D01*
Y1976352D01*
X1255770D01*
Y1971272D01*
X1258310D01*
X1444244Y1855724D02*
Y1853184D01*
X1449324D01*
Y1855724D01*
X1451864D01*
Y1860804D01*
X1449324D01*
Y1863344D01*
X1444244D01*
Y1860804D01*
X1441704D01*
Y1855724D01*
X1444244D01*
X974542Y1817314D02*
Y1814774D01*
X979622D01*
Y1817314D01*
X982162D01*
Y1822394D01*
X979622D01*
Y1824934D01*
X974542D01*
Y1822394D01*
X972002D01*
Y1817314D01*
X974542D01*
X1228344Y1830578D02*
Y1828038D01*
X1233424D01*
Y1830578D01*
X1235964D01*
Y1835658D01*
X1233424D01*
Y1838198D01*
X1228344D01*
Y1835658D01*
X1225804D01*
Y1830578D01*
X1228344D01*
X1412200Y1823720D02*
Y1821180D01*
X1417280D01*
Y1823720D01*
X1419820D01*
Y1828800D01*
X1417280D01*
Y1831340D01*
X1412200D01*
Y1828800D01*
X1409660D01*
Y1823720D01*
X1412200D01*
X1318502Y1843910D02*
Y1841370D01*
X1323582D01*
Y1843910D01*
X1326122D01*
Y1848990D01*
X1323582D01*
Y1851530D01*
X1318502D01*
Y1848990D01*
X1315962D01*
Y1843910D01*
X1318502D01*
X1083310Y1844986D02*
Y1842446D01*
X1088390D01*
Y1844986D01*
X1090930D01*
Y1850066D01*
X1088390D01*
Y1852606D01*
X1083310D01*
Y1850066D01*
X1080770D01*
Y1844986D01*
X1083310D01*
X975360Y1852168D02*
Y1849628D01*
X980440D01*
Y1852168D01*
X982980D01*
Y1857248D01*
X980440D01*
Y1859788D01*
X975360D01*
Y1857248D01*
X972820D01*
Y1852168D01*
X975360D01*
X1540204Y1791716D02*
Y1789176D01*
X1545284D01*
Y1791716D01*
X1547824D01*
Y1796796D01*
X1545284D01*
Y1799336D01*
X1540204D01*
Y1796796D01*
X1537664D01*
Y1791716D01*
X1540204D01*
X1476248Y1783842D02*
Y1781302D01*
X1481328D01*
Y1783842D01*
X1483868D01*
Y1788922D01*
X1481328D01*
Y1791462D01*
X1476248D01*
Y1788922D01*
X1473708D01*
Y1783842D01*
X1476248D01*
X1829562Y1716786D02*
Y1714246D01*
X1834642D01*
Y1716786D01*
X1837182D01*
Y1721866D01*
X1834642D01*
Y1724406D01*
X1829562D01*
Y1721866D01*
X1827022D01*
Y1716786D01*
X1829562D01*
X1428242Y1734566D02*
Y1732026D01*
X1433322D01*
Y1734566D01*
X1435862D01*
Y1739646D01*
X1433322D01*
Y1742186D01*
X1428242D01*
Y1739646D01*
X1425702D01*
Y1734566D01*
X1428242D01*
X1444244Y1759712D02*
Y1757172D01*
X1449324D01*
Y1759712D01*
X1451864D01*
Y1764792D01*
X1449324D01*
Y1767332D01*
X1444244D01*
Y1764792D01*
X1441704D01*
Y1759712D01*
X1444244D01*
X1411526Y1759760D02*
Y1757220D01*
X1416606D01*
Y1759760D01*
X1419146D01*
Y1764840D01*
X1416606D01*
Y1767380D01*
X1411526D01*
Y1764840D01*
X1408986D01*
Y1759760D01*
X1411526D01*
X1436116Y1767840D02*
Y1765300D01*
X1441196D01*
Y1767840D01*
X1443736D01*
Y1772920D01*
X1441196D01*
Y1775460D01*
X1436116D01*
Y1772920D01*
X1433576D01*
Y1767840D01*
X1436116D01*
X1428242Y1743710D02*
Y1741170D01*
X1433322D01*
Y1743710D01*
X1435862D01*
Y1748790D01*
X1433322D01*
Y1751330D01*
X1428242D01*
Y1748790D01*
X1425702D01*
Y1743710D01*
X1428242D01*
X1316856Y1616456D02*
Y1613916D01*
X1321936D01*
Y1616456D01*
X1324476D01*
Y1621536D01*
X1321936D01*
Y1624076D01*
X1316856D01*
Y1621536D01*
X1314316D01*
Y1616456D01*
X1316856D01*
X1555026Y1559490D02*
Y1556950D01*
X1560106D01*
Y1559490D01*
X1562646D01*
Y1564570D01*
X1560106D01*
Y1567110D01*
X1555026D01*
Y1564570D01*
X1552486D01*
Y1559490D01*
X1555026D01*
X1444244Y1735844D02*
Y1733304D01*
X1449324D01*
Y1735844D01*
X1451864D01*
Y1740924D01*
X1449324D01*
Y1743464D01*
X1444244D01*
Y1740924D01*
X1441704D01*
Y1735844D01*
X1444244D01*
X1452115Y1759715D02*
Y1757175D01*
X1457195D01*
Y1759715D01*
X1459735D01*
Y1764795D01*
X1457195D01*
Y1767335D01*
X1452115D01*
Y1764795D01*
X1449575D01*
Y1759715D01*
X1452115D01*
X1407668Y1250950D02*
Y1248410D01*
X1412748D01*
Y1250950D01*
X1415288D01*
Y1256030D01*
X1412748D01*
Y1258570D01*
X1407668D01*
Y1256030D01*
X1405128D01*
Y1250950D01*
X1407668D01*
X1375664Y1274572D02*
Y1272032D01*
X1380744D01*
Y1274572D01*
X1383284D01*
Y1279652D01*
X1380744D01*
Y1282192D01*
X1375664D01*
Y1279652D01*
X1373124D01*
Y1274572D01*
X1375664D01*
X1233424Y1416812D02*
Y1414272D01*
X1238504D01*
Y1416812D01*
X1241044D01*
Y1421892D01*
X1238504D01*
Y1424432D01*
X1233424D01*
Y1421892D01*
X1230884D01*
Y1416812D01*
X1233424D01*
X1383792Y1259078D02*
Y1256538D01*
X1388872D01*
Y1259078D01*
X1391412D01*
Y1264158D01*
X1388872D01*
Y1266698D01*
X1383792D01*
Y1264158D01*
X1381252D01*
Y1259078D01*
X1383792D01*
X1367790Y1250950D02*
Y1248410D01*
X1372870D01*
Y1250950D01*
X1375410D01*
Y1256030D01*
X1372870D01*
Y1258570D01*
X1367790D01*
Y1256030D01*
X1365250D01*
Y1250950D01*
X1367790D01*
X997292Y1256958D02*
Y1254418D01*
X1002372D01*
Y1256958D01*
X1004912D01*
Y1262038D01*
X1002372D01*
Y1264578D01*
X997292D01*
Y1262038D01*
X994752D01*
Y1256958D01*
X997292D01*
X1383792Y1250950D02*
Y1248410D01*
X1388872D01*
Y1250950D01*
X1391412D01*
Y1256030D01*
X1388872D01*
Y1258570D01*
X1383792D01*
Y1256030D01*
X1381252D01*
Y1250950D01*
X1383792D01*
X1026922Y1251458D02*
Y1248918D01*
X1032002D01*
Y1251458D01*
X1034542D01*
Y1256538D01*
X1032002D01*
Y1259078D01*
X1026922D01*
Y1256538D01*
X1024382D01*
Y1251458D01*
X1026922D01*
X1367790Y1243076D02*
Y1240536D01*
X1372870D01*
Y1243076D01*
X1375410D01*
Y1248156D01*
X1372870D01*
Y1250696D01*
X1367790D01*
Y1248156D01*
X1365250D01*
Y1243076D01*
X1367790D01*
Y1263142D02*
Y1260602D01*
X1372870D01*
Y1263142D01*
X1375410D01*
Y1268222D01*
X1372870D01*
Y1270762D01*
X1367790D01*
Y1268222D01*
X1365250D01*
Y1263142D01*
X1367790D01*
X1309172Y1251900D02*
Y1249360D01*
X1314252D01*
Y1251900D01*
X1316792D01*
Y1256980D01*
X1314252D01*
Y1259520D01*
X1309172D01*
Y1256980D01*
X1306632D01*
Y1251900D01*
X1309172D01*
X1227582Y1412748D02*
Y1410208D01*
X1232662D01*
Y1412748D01*
X1235202D01*
Y1417828D01*
X1232662D01*
Y1420368D01*
X1227582D01*
Y1417828D01*
X1225042D01*
Y1412748D01*
X1227582D01*
X1375664Y1250950D02*
Y1248410D01*
X1380744D01*
Y1250950D01*
X1383284D01*
Y1256030D01*
X1380744D01*
Y1258570D01*
X1375664D01*
Y1256030D01*
X1373124D01*
Y1250950D01*
X1375664D01*
Y1243076D02*
Y1240536D01*
X1380744D01*
Y1243076D01*
X1383284D01*
Y1248156D01*
X1380744D01*
Y1250696D01*
X1375664D01*
Y1248156D01*
X1373124D01*
Y1243076D01*
X1375664D01*
X1344008Y1282240D02*
Y1279700D01*
X1349088D01*
Y1282240D01*
X1351628D01*
Y1287320D01*
X1349088D01*
Y1289860D01*
X1344008D01*
Y1287320D01*
X1341468D01*
Y1282240D01*
X1344008D01*
X1575296Y1687700D02*
Y1685160D01*
X1580376D01*
Y1687700D01*
X1582916D01*
Y1692780D01*
X1580376D01*
Y1695320D01*
X1575296D01*
Y1692780D01*
X1572756D01*
Y1687700D01*
X1575296D01*
X1426736Y1282240D02*
Y1279700D01*
X1431816D01*
Y1282240D01*
X1434356D01*
Y1287320D01*
X1431816D01*
Y1289860D01*
X1426736D01*
Y1287320D01*
X1424196D01*
Y1282240D01*
X1426736D01*
X1447800Y1202944D02*
Y1200404D01*
X1452880D01*
Y1202944D01*
X1455420D01*
Y1208024D01*
X1452880D01*
Y1210564D01*
X1447800D01*
Y1208024D01*
X1445260D01*
Y1202944D01*
X1447800D01*
X2023618Y1828038D02*
Y1825498D01*
X2028698D01*
Y1828038D01*
X2031238D01*
Y1833118D01*
X2028698D01*
Y1835658D01*
X2023618D01*
Y1833118D01*
X2021078D01*
Y1828038D01*
X2023618D01*
X1584452Y2158746D02*
Y2156206D01*
X1589532D01*
Y2158746D01*
X1592072D01*
Y2163826D01*
X1589532D01*
Y2166366D01*
X1584452D01*
Y2163826D01*
X1581912D01*
Y2158746D01*
X1584452D01*
X1579372Y2183638D02*
Y2181098D01*
X1584452D01*
Y2183638D01*
X1586992D01*
Y2188718D01*
X1584452D01*
Y2191258D01*
X1579372D01*
Y2188718D01*
X1576832D01*
Y2183638D01*
X1579372D01*
X1569410Y2196846D02*
Y2194306D01*
X1574490D01*
Y2196846D01*
X1577030D01*
Y2201926D01*
X1574490D01*
Y2204466D01*
X1569410D01*
Y2201926D01*
X1566870D01*
Y2196846D01*
X1569410D01*
X1933702Y1778320D02*
Y1775780D01*
X1938782D01*
Y1778320D01*
X1941322D01*
Y1783400D01*
X1938782D01*
Y1785940D01*
X1933702D01*
Y1783400D01*
X1931162D01*
Y1778320D01*
X1933702D01*
Y1810320D02*
Y1807780D01*
X1938782D01*
Y1810320D01*
X1941322D01*
Y1815400D01*
X1938782D01*
Y1817940D01*
X1933702D01*
Y1815400D01*
X1931162D01*
Y1810320D01*
X1933702D01*
X974344Y1833118D02*
Y1830578D01*
X979424D01*
Y1833118D01*
X981964D01*
Y1838198D01*
X979424D01*
Y1840738D01*
X974344D01*
Y1838198D01*
X971804D01*
Y1833118D01*
X974344D01*
X996382Y1824990D02*
Y1822450D01*
X1001462D01*
Y1824990D01*
X1004002D01*
Y1830070D01*
X1001462D01*
Y1832610D01*
X996382D01*
Y1830070D01*
X993842D01*
Y1824990D01*
X996382D01*
X1911672Y1834320D02*
Y1831780D01*
X1916752D01*
Y1834320D01*
X1919292D01*
Y1839400D01*
X1916752D01*
Y1841940D01*
X1911672D01*
Y1839400D01*
X1909132D01*
Y1834320D01*
X1911672D01*
X2045716Y1826260D02*
Y1823720D01*
X2050796D01*
Y1826260D01*
X2053336D01*
Y1831340D01*
X2050796D01*
Y1833880D01*
X2045716D01*
Y1831340D01*
X2043176D01*
Y1826260D01*
X2045716D01*
Y1810320D02*
Y1807780D01*
X2050796D01*
Y1810320D01*
X2053336D01*
Y1815400D01*
X2050796D01*
Y1817940D01*
X2045716D01*
Y1815400D01*
X2043176D01*
Y1810320D01*
X2045716D01*
X1082802Y1769050D02*
Y1766510D01*
X1087882D01*
Y1769050D01*
X1090422D01*
Y1774130D01*
X1087882D01*
Y1776670D01*
X1082802D01*
Y1774130D01*
X1080262D01*
Y1769050D01*
X1082802D01*
X2023618Y1770380D02*
Y1767840D01*
X2028698D01*
Y1770380D01*
X2031238D01*
Y1775460D01*
X2028698D01*
Y1778000D01*
X2023618D01*
Y1775460D01*
X2021078D01*
Y1770380D01*
X2023618D01*
X2045716Y1762252D02*
Y1759712D01*
X2050796D01*
Y1762252D01*
X2053336D01*
Y1767332D01*
X2050796D01*
Y1769872D01*
X2045716D01*
Y1767332D01*
X2043176D01*
Y1762252D01*
X2045716D01*
X974344Y1881124D02*
Y1878584D01*
X979424D01*
Y1881124D01*
X981964D01*
Y1886204D01*
X979424D01*
Y1888744D01*
X974344D01*
Y1886204D01*
X971804D01*
Y1881124D01*
X974344D01*
X1498600Y2183638D02*
Y2181098D01*
X1503680D01*
Y2183638D01*
X1506220D01*
Y2188718D01*
X1503680D01*
Y2191258D01*
X1498600D01*
Y2188718D01*
X1496060D01*
Y2183638D01*
X1498600D01*
X1524410Y2158746D02*
Y2156206D01*
X1529490D01*
Y2158746D01*
X1532030D01*
Y2163826D01*
X1529490D01*
Y2166366D01*
X1524410D01*
Y2163826D01*
X1521870D01*
Y2158746D01*
X1524410D01*
X1420114Y1855724D02*
Y1853184D01*
X1425194D01*
Y1855724D01*
X1427734D01*
Y1860804D01*
X1425194D01*
Y1863344D01*
X1420114D01*
Y1860804D01*
X1417574D01*
Y1855724D01*
X1420114D01*
X1419964Y1863956D02*
Y1861416D01*
X1425044D01*
Y1863956D01*
X1427584D01*
Y1869036D01*
X1425044D01*
Y1871576D01*
X1419964D01*
Y1869036D01*
X1417424D01*
Y1863956D01*
X1419964D01*
X1412240Y1791716D02*
Y1789176D01*
X1417320D01*
Y1791716D01*
X1419860D01*
Y1796796D01*
X1417320D01*
Y1799336D01*
X1412240D01*
Y1796796D01*
X1409700D01*
Y1791716D01*
X1412240D01*
X1251192Y1784220D02*
Y1781680D01*
X1256272D01*
Y1784220D01*
X1258812D01*
Y1789300D01*
X1256272D01*
Y1791840D01*
X1251192D01*
Y1789300D01*
X1248652D01*
Y1784220D01*
X1251192D01*
X1625340Y1927000D02*
Y1924460D01*
X1630420D01*
Y1927000D01*
X1632960D01*
Y1932080D01*
X1630420D01*
Y1934620D01*
X1625340D01*
Y1932080D01*
X1622800D01*
Y1927000D01*
X1625340D01*
X1516126Y1783794D02*
Y1781254D01*
X1521206D01*
Y1783794D01*
X1523746D01*
Y1788874D01*
X1521206D01*
Y1791414D01*
X1516126D01*
Y1788874D01*
X1513586D01*
Y1783794D01*
X1516126D01*
X1532128Y1815846D02*
Y1813306D01*
X1537208D01*
Y1815846D01*
X1539748D01*
Y1820926D01*
X1537208D01*
Y1823466D01*
X1532128D01*
Y1820926D01*
X1529588D01*
Y1815846D01*
X1532128D01*
X1544224Y1871760D02*
Y1869220D01*
X1549304D01*
Y1871760D01*
X1551844D01*
Y1876840D01*
X1549304D01*
Y1879380D01*
X1544224D01*
Y1876840D01*
X1541684D01*
Y1871760D01*
X1544224D01*
X2141474Y856488D02*
Y853948D01*
X2146554D01*
Y856488D01*
X2149094D01*
Y861568D01*
X2146554D01*
Y864108D01*
X2141474D01*
Y861568D01*
X2138934D01*
Y856488D01*
X2141474D01*
X1532128Y1855724D02*
Y1853184D01*
X1537208D01*
Y1855724D01*
X1539748D01*
Y1860804D01*
X1537208D01*
Y1863344D01*
X1532128D01*
Y1860804D01*
X1529588D01*
Y1855724D01*
X1532128D01*
X2123550Y812292D02*
Y809752D01*
X2128630D01*
Y812292D01*
X2131170D01*
Y817372D01*
X2128630D01*
Y819912D01*
X2123550D01*
Y817372D01*
X2121010D01*
Y812292D01*
X2123550D01*
X2225294Y817372D02*
Y814832D01*
X2230374D01*
Y817372D01*
X2232914D01*
Y822452D01*
X2230374D01*
Y824992D01*
X2225294D01*
Y822452D01*
X2222754D01*
Y817372D01*
X2225294D01*
X2162550Y838200D02*
Y835660D01*
X2167630D01*
Y838200D01*
X2170170D01*
Y843280D01*
X2167630D01*
Y845820D01*
X2162550D01*
Y843280D01*
X2160010D01*
Y838200D01*
X2162550D01*
X1579360Y1742056D02*
Y1739516D01*
X1584440D01*
Y1742056D01*
X1586980D01*
Y1747136D01*
X1584440D01*
Y1749676D01*
X1579360D01*
Y1747136D01*
X1576820D01*
Y1742056D01*
X1579360D01*
X2052790Y820420D02*
Y817880D01*
X2057870D01*
Y820420D01*
X2060410D01*
Y825500D01*
X2057870D01*
Y828040D01*
X2052790D01*
Y825500D01*
X2050250D01*
Y820420D01*
X2052790D01*
X2142998Y788416D02*
Y785876D01*
X2148078D01*
Y788416D01*
X2150618D01*
Y793496D01*
X2148078D01*
Y796036D01*
X2142998D01*
Y793496D01*
X2140458D01*
Y788416D01*
X2142998D01*
X2155952D02*
Y785876D01*
X2161032D01*
Y788416D01*
X2163572D01*
Y793496D01*
X2161032D01*
Y796036D01*
X2155952D01*
Y793496D01*
X2153412D01*
Y788416D01*
X2155952D01*
X2178304Y789940D02*
Y787400D01*
X2183384D01*
Y789940D01*
X2185924D01*
Y795020D01*
X2183384D01*
Y797560D01*
X2178304D01*
Y795020D01*
X2175764D01*
Y789940D01*
X2178304D01*
X1524244Y1799844D02*
Y1797304D01*
X1529324D01*
Y1799844D01*
X1531864D01*
Y1804924D01*
X1529324D01*
Y1807464D01*
X1524244D01*
Y1804924D01*
X1521704D01*
Y1799844D01*
X1524244D01*
X2136550Y824484D02*
Y821944D01*
X2141630D01*
Y824484D01*
X2144170D01*
Y829564D01*
X2141630D01*
Y832104D01*
X2136550D01*
Y829564D01*
X2134010D01*
Y824484D01*
X2136550D01*
X2216658Y835660D02*
Y833120D01*
X2221738D01*
Y835660D01*
X2224278D01*
Y840740D01*
X2221738D01*
Y843280D01*
X2216658D01*
Y840740D01*
X2214118D01*
Y835660D01*
X2216658D01*
X1330270Y1109520D02*
Y1106980D01*
X1335350D01*
Y1109520D01*
X1337890D01*
Y1114600D01*
X1335350D01*
Y1117140D01*
X1330270D01*
Y1114600D01*
X1327730D01*
Y1109520D01*
X1330270D01*
X1305540Y1170480D02*
Y1167940D01*
X1310620D01*
Y1170480D01*
X1313160D01*
Y1175560D01*
X1310620D01*
Y1178100D01*
X1305540D01*
Y1175560D01*
X1303000D01*
Y1170480D01*
X1305540D01*
X1423560Y819860D02*
Y817320D01*
X1428640D01*
Y819860D01*
X1431180D01*
Y824940D01*
X1428640D01*
Y827480D01*
X1423560D01*
Y824940D01*
X1421020D01*
Y819860D01*
X1423560D01*
X1306810Y1226360D02*
Y1223820D01*
X1311890D01*
Y1226360D01*
X1314430D01*
Y1231440D01*
X1311890D01*
Y1233980D01*
X1306810D01*
Y1231440D01*
X1304270D01*
Y1226360D01*
X1306810D01*
X1384880Y1109520D02*
Y1106980D01*
X1389960D01*
Y1109520D01*
X1392500D01*
Y1114600D01*
X1389960D01*
Y1117140D01*
X1384880D01*
Y1114600D01*
X1382340D01*
Y1109520D01*
X1384880D01*
X1319040Y1282240D02*
Y1279700D01*
X1324120D01*
Y1282240D01*
X1326660D01*
Y1287320D01*
X1324120D01*
Y1289860D01*
X1319040D01*
Y1287320D01*
X1316500D01*
Y1282240D01*
X1319040D01*
X1391750Y1203000D02*
Y1200460D01*
X1396830D01*
Y1203000D01*
X1399370D01*
Y1208080D01*
X1396830D01*
Y1210620D01*
X1391750D01*
Y1208080D01*
X1389210D01*
Y1203000D01*
X1391750D01*
X1438220Y1109520D02*
Y1106980D01*
X1443300D01*
Y1109520D01*
X1445840D01*
Y1114600D01*
X1443300D01*
Y1117140D01*
X1438220D01*
Y1114600D01*
X1435680D01*
Y1109520D01*
X1438220D01*
X1512570Y872770D02*
Y870230D01*
X1517650D01*
Y872770D01*
X1520190D01*
Y877850D01*
X1517650D01*
Y880390D01*
X1512570D01*
Y877850D01*
X1510030D01*
Y872770D01*
X1512570D01*
X1423750Y1195000D02*
Y1192460D01*
X1428830D01*
Y1195000D01*
X1431370D01*
Y1200080D01*
X1428830D01*
Y1202620D01*
X1423750D01*
Y1200080D01*
X1421210D01*
Y1195000D01*
X1423750D01*
X1399750Y1235000D02*
Y1232460D01*
X1404830D01*
Y1235000D01*
X1407370D01*
Y1240080D01*
X1404830D01*
Y1242620D01*
X1399750D01*
Y1240080D01*
X1397210D01*
Y1235000D01*
X1399750D01*
X1431750Y1179000D02*
Y1176460D01*
X1436830D01*
Y1179000D01*
X1439370D01*
Y1184080D01*
X1436830D01*
Y1186620D01*
X1431750D01*
Y1184080D01*
X1429210D01*
Y1179000D01*
X1431750D01*
X1374920Y1282240D02*
Y1279700D01*
X1380000D01*
Y1282240D01*
X1382540D01*
Y1287320D01*
X1380000D01*
Y1289860D01*
X1374920D01*
Y1287320D01*
X1372380D01*
Y1282240D01*
X1374920D01*
X1439750Y1179000D02*
Y1176460D01*
X1444830D01*
Y1179000D01*
X1447370D01*
Y1184080D01*
X1444830D01*
Y1186620D01*
X1439750D01*
Y1184080D01*
X1437210D01*
Y1179000D01*
X1439750D01*
X1431750Y1203000D02*
Y1200460D01*
X1436830D01*
Y1203000D01*
X1439370D01*
Y1208080D01*
X1436830D01*
Y1210620D01*
X1431750D01*
Y1208080D01*
X1429210D01*
Y1203000D01*
X1431750D01*
X1447750Y1171000D02*
Y1168460D01*
X1452830D01*
Y1171000D01*
X1455370D01*
Y1176080D01*
X1452830D01*
Y1178620D01*
X1447750D01*
Y1176080D01*
X1445210D01*
Y1171000D01*
X1447750D01*
X1431750Y1211000D02*
Y1208460D01*
X1436830D01*
Y1211000D01*
X1439370D01*
Y1216080D01*
X1436830D01*
Y1218620D01*
X1431750D01*
Y1216080D01*
X1429210D01*
Y1211000D01*
X1431750D01*
X1423750Y1235000D02*
Y1232460D01*
X1428830D01*
Y1235000D01*
X1431370D01*
Y1240080D01*
X1428830D01*
Y1242620D01*
X1423750D01*
Y1240080D01*
X1421210D01*
Y1235000D01*
X1423750D01*
X1491560Y1109520D02*
Y1106980D01*
X1496640D01*
Y1109520D01*
X1499180D01*
Y1114600D01*
X1496640D01*
Y1117140D01*
X1491560D01*
Y1114600D01*
X1489020D01*
Y1109520D01*
X1491560D01*
X1455750Y1251000D02*
Y1248460D01*
X1460830D01*
Y1251000D01*
X1463370D01*
Y1256080D01*
X1460830D01*
Y1258620D01*
X1455750D01*
Y1256080D01*
X1453210D01*
Y1251000D01*
X1455750D01*
X1586610Y846560D02*
Y844020D01*
X1591690D01*
Y846560D01*
X1594230D01*
Y851640D01*
X1591690D01*
Y854180D01*
X1586610D01*
Y851640D01*
X1584070D01*
Y846560D01*
X1586610D01*
X1598360Y941760D02*
Y939220D01*
X1603440D01*
Y941760D01*
X1605980D01*
Y946840D01*
X1603440D01*
Y949380D01*
X1598360D01*
Y946840D01*
X1595820D01*
Y941760D01*
X1598360D01*
X1637459Y818010D02*
Y815470D01*
X1642539D01*
Y818010D01*
X1645079D01*
Y823090D01*
X1642539D01*
Y825630D01*
X1637459D01*
Y823090D01*
X1634919D01*
Y818010D01*
X1637459D01*
X1670310Y874260D02*
Y871720D01*
X1675390D01*
Y874260D01*
X1677930D01*
Y879340D01*
X1675390D01*
Y881880D01*
X1670310D01*
Y879340D01*
X1667770D01*
Y874260D01*
X1670310D01*
X1276160Y1725800D02*
Y1723260D01*
X1281240D01*
Y1725800D01*
X1283780D01*
Y1730880D01*
X1281240D01*
Y1733420D01*
X1276160D01*
Y1730880D01*
X1273620D01*
Y1725800D01*
X1276160D01*
X1422400Y1624200D02*
Y1621660D01*
X1427480D01*
Y1624200D01*
X1430020D01*
Y1629281D01*
X1427480D01*
Y1631821D01*
X1422400D01*
Y1629281D01*
X1419860D01*
Y1624200D01*
X1422400D01*
X1316470Y1727070D02*
Y1724530D01*
X1321550D01*
Y1727070D01*
X1324090D01*
Y1732150D01*
X1321550D01*
Y1734690D01*
X1316470D01*
Y1732150D01*
X1313930D01*
Y1727070D01*
X1316470D01*
X1276160Y1784220D02*
Y1781680D01*
X1281240D01*
Y1784220D01*
X1283780D01*
Y1789300D01*
X1281240D01*
Y1791840D01*
X1276160D01*
Y1789300D01*
X1273620D01*
Y1784220D01*
X1276160D01*
X1316470Y1785490D02*
Y1782950D01*
X1321550D01*
Y1785490D01*
X1324090D01*
Y1790570D01*
X1321550D01*
Y1793110D01*
X1316470D01*
Y1790570D01*
X1313930D01*
Y1785490D01*
X1316470D01*
X1420160Y1735760D02*
Y1733220D01*
X1425240D01*
Y1735760D01*
X1427780D01*
Y1740840D01*
X1425240D01*
Y1743380D01*
X1420160D01*
Y1740840D01*
X1417620D01*
Y1735760D01*
X1420160D01*
X1404160Y1751760D02*
Y1749220D01*
X1409240D01*
Y1751760D01*
X1411780D01*
Y1756840D01*
X1409240D01*
Y1759380D01*
X1404160D01*
Y1756840D01*
X1401620D01*
Y1751760D01*
X1404160D01*
X1255770Y1868580D02*
Y1866040D01*
X1260850D01*
Y1868580D01*
X1263390D01*
Y1873660D01*
X1260850D01*
Y1876200D01*
X1255770D01*
Y1873660D01*
X1253230D01*
Y1868580D01*
X1255770D01*
X1436160Y1751760D02*
Y1749220D01*
X1441240D01*
Y1751760D01*
X1443780D01*
Y1756840D01*
X1441240D01*
Y1759380D01*
X1436160D01*
Y1756840D01*
X1433620D01*
Y1751760D01*
X1436160D01*
X1428160Y1759760D02*
Y1757220D01*
X1433240D01*
Y1759760D01*
X1435780D01*
Y1764840D01*
X1433240D01*
Y1767380D01*
X1428160D01*
Y1764840D01*
X1425620D01*
Y1759760D01*
X1428160D01*
X1404160Y1807760D02*
Y1805220D01*
X1409240D01*
Y1807760D01*
X1411780D01*
Y1812840D01*
X1409240D01*
Y1815380D01*
X1404160D01*
Y1812840D01*
X1401620D01*
Y1807760D01*
X1404160D01*
X1428160D02*
Y1805220D01*
X1433240D01*
Y1807760D01*
X1435780D01*
Y1812840D01*
X1433240D01*
Y1815380D01*
X1428160D01*
Y1812840D01*
X1425620D01*
Y1807760D01*
X1428160D01*
X1468160Y1775760D02*
Y1773220D01*
X1473240D01*
Y1775760D01*
X1475780D01*
Y1780840D01*
X1473240D01*
Y1783380D01*
X1468160D01*
Y1780840D01*
X1465620D01*
Y1775760D01*
X1468160D01*
X1444160Y1791760D02*
Y1789220D01*
X1449240D01*
Y1791760D01*
X1451780D01*
Y1796840D01*
X1449240D01*
Y1799380D01*
X1444160D01*
Y1796840D01*
X1441620D01*
Y1791760D01*
X1444160D01*
X1420160Y1823760D02*
Y1821220D01*
X1425240D01*
Y1823760D01*
X1427780D01*
Y1828840D01*
X1425240D01*
Y1831380D01*
X1420160D01*
Y1828840D01*
X1417620D01*
Y1823760D01*
X1420160D01*
X1404160Y1839760D02*
Y1837220D01*
X1409240D01*
Y1839760D01*
X1411780D01*
Y1844840D01*
X1409240D01*
Y1847380D01*
X1404160D01*
Y1844840D01*
X1401620D01*
Y1839760D01*
X1404160D01*
X1607160Y1630550D02*
Y1628010D01*
X1612240D01*
Y1630550D01*
X1614780D01*
Y1635630D01*
X1612240D01*
Y1638170D01*
X1607160D01*
Y1635630D01*
X1604620D01*
Y1630550D01*
X1607160D01*
X1396160Y1863760D02*
Y1861220D01*
X1401240D01*
Y1863760D01*
X1403780D01*
Y1868840D01*
X1401240D01*
Y1871380D01*
X1396160D01*
Y1868840D01*
X1393620D01*
Y1863760D01*
X1396160D01*
X736960Y2163660D02*
Y2161120D01*
X742040D01*
Y2163660D01*
X744580D01*
Y2168740D01*
X742040D01*
Y2171280D01*
X736960D01*
Y2168740D01*
X734420D01*
Y2163660D01*
X736960D01*
X1428160Y1839760D02*
Y1837220D01*
X1433240D01*
Y1839760D01*
X1435780D01*
Y1844840D01*
X1433240D01*
Y1847380D01*
X1428160D01*
Y1844840D01*
X1425620D01*
Y1839760D01*
X1428160D01*
X1532160Y1751760D02*
Y1749220D01*
X1537240D01*
Y1751760D01*
X1539780D01*
Y1756840D01*
X1537240D01*
Y1759380D01*
X1532160D01*
Y1756840D01*
X1529620D01*
Y1751760D01*
X1532160D01*
X1516160Y1775760D02*
Y1773220D01*
X1521240D01*
Y1775760D01*
X1523780D01*
Y1780840D01*
X1521240D01*
Y1783380D01*
X1516160D01*
Y1780840D01*
X1513620D01*
Y1775760D01*
X1516160D01*
X1492160Y1807760D02*
Y1805220D01*
X1497240D01*
Y1807760D01*
X1499780D01*
Y1812840D01*
X1497240D01*
Y1815380D01*
X1492160D01*
Y1812840D01*
X1489620D01*
Y1807760D01*
X1492160D01*
X1476160Y1823760D02*
Y1821220D01*
X1481240D01*
Y1823760D01*
X1483780D01*
Y1828840D01*
X1481240D01*
Y1831380D01*
X1476160D01*
Y1828840D01*
X1473620D01*
Y1823760D01*
X1476160D01*
X1444160Y1847760D02*
Y1845220D01*
X1449240D01*
Y1847760D01*
X1451780D01*
Y1852840D01*
X1449240D01*
Y1855380D01*
X1444160D01*
Y1852840D01*
X1441620D01*
Y1847760D01*
X1444160D01*
X1428160Y1863760D02*
Y1861220D01*
X1433240D01*
Y1863760D01*
X1435780D01*
Y1868840D01*
X1433240D01*
Y1871380D01*
X1428160D01*
Y1868840D01*
X1425620D01*
Y1863760D01*
X1428160D01*
X1460160Y1839760D02*
Y1837220D01*
X1465240D01*
Y1839760D01*
X1467780D01*
Y1844840D01*
X1465240D01*
Y1847380D01*
X1460160D01*
Y1844840D01*
X1457620D01*
Y1839760D01*
X1460160D01*
X1508160Y1807760D02*
Y1805220D01*
X1513240D01*
Y1807760D01*
X1515780D01*
Y1812840D01*
X1513240D01*
Y1815380D01*
X1508160D01*
Y1812840D01*
X1505620D01*
Y1807760D01*
X1508160D01*
X1476160Y1839760D02*
Y1837220D01*
X1481240D01*
Y1839760D01*
X1483780D01*
Y1844840D01*
X1481240D01*
Y1847380D01*
X1476160D01*
Y1844840D01*
X1473620D01*
Y1839760D01*
X1476160D01*
X1606360Y1687700D02*
Y1685160D01*
X1611440D01*
Y1687700D01*
X1613980D01*
Y1692780D01*
X1611440D01*
Y1695320D01*
X1606360D01*
Y1692780D01*
X1603820D01*
Y1687700D01*
X1606360D01*
X1318540Y1958210D02*
Y1955670D01*
X1323620D01*
Y1958210D01*
X1326160D01*
Y1963290D01*
X1323620D01*
Y1965830D01*
X1318540D01*
Y1963290D01*
X1316000D01*
Y1958210D01*
X1318540D01*
X1532160Y1807760D02*
Y1805220D01*
X1537240D01*
Y1807760D01*
X1539780D01*
Y1812840D01*
X1537240D01*
Y1815380D01*
X1532160D01*
Y1812840D01*
X1529620D01*
Y1807760D01*
X1532160D01*
X1516160Y1823760D02*
Y1821220D01*
X1521240D01*
Y1823760D01*
X1523780D01*
Y1828840D01*
X1521240D01*
Y1831380D01*
X1516160D01*
Y1828840D01*
X1513620D01*
Y1823760D01*
X1516160D01*
X736960Y2208660D02*
Y2206120D01*
X742040D01*
Y2208660D01*
X744580D01*
Y2213740D01*
X742040D01*
Y2216280D01*
X736960D01*
Y2213740D01*
X734420D01*
Y2208660D01*
X736960D01*
X1476160Y1863760D02*
Y1861220D01*
X1481240D01*
Y1863760D01*
X1483780D01*
Y1868840D01*
X1481240D01*
Y1871380D01*
X1476160D01*
Y1868840D01*
X1473620D01*
Y1863760D01*
X1476160D01*
X1508160Y1839760D02*
Y1837220D01*
X1513240D01*
Y1839760D01*
X1515780D01*
Y1844840D01*
X1513240D01*
Y1847380D01*
X1508160D01*
Y1844840D01*
X1505620D01*
Y1839760D01*
X1508160D01*
X1500160Y1847760D02*
Y1845220D01*
X1505240D01*
Y1847760D01*
X1507780D01*
Y1852840D01*
X1505240D01*
Y1855380D01*
X1500160D01*
Y1852840D01*
X1497620D01*
Y1847760D01*
X1500160D01*
X1532160Y1839760D02*
Y1837220D01*
X1537240D01*
Y1839760D01*
X1539780D01*
Y1844840D01*
X1537240D01*
Y1847380D01*
X1532160D01*
Y1844840D01*
X1529620D01*
Y1839760D01*
X1532160D01*
X1606360Y1746120D02*
Y1743580D01*
X1611440D01*
Y1746120D01*
X1613980D01*
Y1751200D01*
X1611440D01*
Y1753740D01*
X1606360D01*
Y1751200D01*
X1603820D01*
Y1746120D01*
X1606360D01*
X1381500Y1954000D02*
Y1951460D01*
X1386580D01*
Y1954000D01*
X1389120D01*
Y1959080D01*
X1386580D01*
Y1961620D01*
X1381500D01*
Y1959080D01*
X1378960D01*
Y1954000D01*
X1381500D01*
X1516160Y1863760D02*
Y1861220D01*
X1521240D01*
Y1863760D01*
X1523780D01*
Y1868840D01*
X1521240D01*
Y1871380D01*
X1516160D01*
Y1868840D01*
X1513620D01*
Y1863760D01*
X1516160D01*
X1532160D02*
Y1861220D01*
X1537240D01*
Y1863760D01*
X1539780D01*
Y1868840D01*
X1537240D01*
Y1871380D01*
X1532160D01*
Y1868840D01*
X1529620D01*
Y1863760D01*
X1532160D01*
X1606360Y1804540D02*
Y1802000D01*
X1611440D01*
Y1804540D01*
X1613980D01*
Y1809620D01*
X1611440D01*
Y1812160D01*
X1606360D01*
Y1809620D01*
X1603820D01*
Y1804540D01*
X1606360D01*
X1448810Y1954800D02*
Y1952260D01*
X1453890D01*
Y1954800D01*
X1456430D01*
Y1959880D01*
X1453890D01*
Y1962420D01*
X1448810D01*
Y1959880D01*
X1446270D01*
Y1954800D01*
X1448810D01*
X1627880Y1797790D02*
Y1795250D01*
X1632960D01*
Y1797790D01*
X1635500D01*
Y1802870D01*
X1632960D01*
Y1805410D01*
X1627880D01*
Y1802870D01*
X1625340D01*
Y1797790D01*
X1627880D01*
X2048980Y789870D02*
Y787330D01*
X2054060D01*
Y789870D01*
X2056600D01*
Y794950D01*
X2054060D01*
Y797490D01*
X2048980D01*
Y794950D01*
X2046440D01*
Y789870D01*
X2048980D01*
X1603350Y1865500D02*
Y1862960D01*
X1608430D01*
Y1865500D01*
X1610970D01*
Y1870580D01*
X1608430D01*
Y1873120D01*
X1603350D01*
Y1870580D01*
X1600810D01*
Y1865500D01*
X1603350D01*
X1507230Y1954800D02*
Y1952260D01*
X1512310D01*
Y1954800D01*
X1514850D01*
Y1959880D01*
X1512310D01*
Y1962420D01*
X1507230D01*
Y1959880D01*
X1504690D01*
Y1954800D01*
X1507230D01*
X1627880Y1852070D02*
Y1849530D01*
X1632960D01*
Y1852070D01*
X1635500D01*
Y1857150D01*
X1632960D01*
Y1859690D01*
X1627880D01*
Y1857150D01*
X1625340D01*
Y1852070D01*
X1627880D01*
X1565650Y1954800D02*
Y1952260D01*
X1570730D01*
Y1954800D01*
X1573270D01*
Y1959880D01*
X1570730D01*
Y1962420D01*
X1565650D01*
Y1959880D01*
X1563110D01*
Y1954800D01*
X1565650D01*
X1625340Y1954000D02*
Y1951460D01*
X1630420D01*
Y1954000D01*
X1632960D01*
Y1959080D01*
X1630420D01*
Y1961620D01*
X1625340D01*
Y1959080D01*
X1622800D01*
Y1954000D01*
X1625340D01*
X1933660Y1802320D02*
Y1799780D01*
X1938740D01*
Y1802320D01*
X1941280D01*
Y1807400D01*
X1938740D01*
Y1809940D01*
X1933660D01*
Y1807400D01*
X1931120D01*
Y1802320D01*
X1933660D01*
X1678470Y2075110D02*
Y2072570D01*
X1683550D01*
Y2075110D01*
X1686090D01*
Y2080190D01*
X1683550D01*
Y2082730D01*
X1678470D01*
Y2080190D01*
X1675930D01*
Y2075110D01*
X1678470D01*
X980210Y781859D02*
Y779319D01*
X985290D01*
Y781859D01*
X987830D01*
Y786939D01*
X985290D01*
Y789479D01*
X980210D01*
Y786939D01*
X977670D01*
Y781859D01*
X980210D01*
Y839160D02*
Y836620D01*
X985290D01*
Y839160D01*
X987830D01*
Y844240D01*
X985290D01*
Y846780D01*
X980210D01*
Y844240D01*
X977670D01*
Y839160D01*
X980210D01*
X981310Y901660D02*
Y899120D01*
X986390D01*
Y901660D01*
X988930D01*
Y906740D01*
X986390D01*
Y909280D01*
X981310D01*
Y906740D01*
X978770D01*
Y901660D01*
X981310D01*
X982960Y965660D02*
Y963120D01*
X988040D01*
Y965660D01*
X990580D01*
Y970740D01*
X988040D01*
Y973280D01*
X982960D01*
Y970740D01*
X980420D01*
Y965660D01*
X982960D01*
X1119520Y866520D02*
Y863980D01*
X1124600D01*
Y866520D01*
X1127140D01*
Y871600D01*
X1124600D01*
Y874140D01*
X1119520D01*
Y871600D01*
X1116980D01*
Y866520D01*
X1119520D01*
X1173210Y782960D02*
Y780420D01*
X1178290D01*
Y782960D01*
X1180830D01*
Y788040D01*
X1178290D01*
Y790580D01*
X1173210D01*
Y788040D01*
X1170670D01*
Y782960D01*
X1173210D01*
X1169260Y842560D02*
Y840020D01*
X1174340D01*
Y842560D01*
X1176880D01*
Y847640D01*
X1174340D01*
Y850180D01*
X1169260D01*
Y847640D01*
X1166720D01*
Y842560D01*
X1169260D01*
X1144360Y967660D02*
Y965120D01*
X1149440D01*
Y967660D01*
X1151980D01*
Y972740D01*
X1149440D01*
Y975280D01*
X1144360D01*
Y972740D01*
X1141820D01*
Y967660D01*
X1144360D01*
X1255960Y927360D02*
Y924820D01*
X1261040D01*
Y927360D01*
X1263580D01*
Y932440D01*
X1261040D01*
Y934980D01*
X1255960D01*
Y932440D01*
X1253420D01*
Y927360D01*
X1255960D01*
X1316570Y1107520D02*
Y1104980D01*
X1321650D01*
Y1107520D01*
X1324190D01*
Y1112600D01*
X1321650D01*
Y1115140D01*
X1316570D01*
Y1112600D01*
X1314030D01*
Y1107520D01*
X1316570D01*
X1307140Y1093010D02*
Y1090470D01*
X1312220D01*
Y1093010D01*
X1314760D01*
Y1098090D01*
X1312220D01*
Y1100630D01*
X1307140D01*
Y1098090D01*
X1304600D01*
Y1093010D01*
X1307140D01*
X1366660Y929260D02*
Y926720D01*
X1371740D01*
Y929260D01*
X1374280D01*
Y934340D01*
X1371740D01*
Y936880D01*
X1366660D01*
Y934340D01*
X1364120D01*
Y929260D01*
X1366660D01*
X1357270Y1109520D02*
Y1106980D01*
X1362350D01*
Y1109520D01*
X1364890D01*
Y1114600D01*
X1362350D01*
Y1117140D01*
X1357270D01*
Y1114600D01*
X1354730D01*
Y1109520D01*
X1357270D01*
X1423560Y792860D02*
Y790320D01*
X1428640D01*
Y792860D01*
X1431180D01*
Y797940D01*
X1428640D01*
Y800480D01*
X1423560D01*
Y797940D01*
X1421020D01*
Y792860D01*
X1423560D01*
X1332540Y1170480D02*
Y1167940D01*
X1337620D01*
Y1170480D01*
X1340160D01*
Y1175560D01*
X1337620D01*
Y1178100D01*
X1332540D01*
Y1175560D01*
X1330000D01*
Y1170480D01*
X1332540D01*
X1424560Y868160D02*
Y865620D01*
X1429640D01*
Y868160D01*
X1432180D01*
Y873240D01*
X1429640D01*
Y875780D01*
X1424560D01*
Y873240D01*
X1422020D01*
Y868160D01*
X1424560D01*
X1333810Y1226360D02*
Y1223820D01*
X1338890D01*
Y1226360D01*
X1341430D01*
Y1231440D01*
X1338890D01*
Y1233980D01*
X1333810D01*
Y1231440D01*
X1331270D01*
Y1226360D01*
X1333810D01*
X1411880Y1109520D02*
Y1106980D01*
X1416960D01*
Y1109520D01*
X1419500D01*
Y1114600D01*
X1416960D01*
Y1117140D01*
X1411880D01*
Y1114600D01*
X1409340D01*
Y1109520D01*
X1411880D01*
X1391750Y1179000D02*
Y1176460D01*
X1396830D01*
Y1179000D01*
X1399370D01*
Y1184080D01*
X1396830D01*
Y1186620D01*
X1391750D01*
Y1184080D01*
X1389210D01*
Y1179000D01*
X1391750D01*
X1383750Y1203000D02*
Y1200460D01*
X1388830D01*
Y1203000D01*
X1391370D01*
Y1208080D01*
X1388830D01*
Y1210620D01*
X1383750D01*
Y1208080D01*
X1381210D01*
Y1203000D01*
X1383750D01*
X1407750Y1195000D02*
Y1192460D01*
X1412830D01*
Y1195000D01*
X1415370D01*
Y1200080D01*
X1412830D01*
Y1202620D01*
X1407750D01*
Y1200080D01*
X1405210D01*
Y1195000D01*
X1407750D01*
X1391750Y1235000D02*
Y1232460D01*
X1396830D01*
Y1235000D01*
X1399370D01*
Y1240080D01*
X1396830D01*
Y1242620D01*
X1391750D01*
Y1240080D01*
X1389210D01*
Y1235000D01*
X1391750D01*
X1423750Y1179000D02*
Y1176460D01*
X1428830D01*
Y1179000D01*
X1431370D01*
Y1184080D01*
X1428830D01*
Y1186620D01*
X1423750D01*
Y1184080D01*
X1421210D01*
Y1179000D01*
X1423750D01*
X1465220Y1109520D02*
Y1106980D01*
X1470300D01*
Y1109520D01*
X1472840D01*
Y1114600D01*
X1470300D01*
Y1117140D01*
X1465220D01*
Y1114600D01*
X1462680D01*
Y1109520D01*
X1465220D01*
X1447750Y1179000D02*
Y1176460D01*
X1452830D01*
Y1179000D01*
X1455370D01*
Y1184080D01*
X1452830D01*
Y1186620D01*
X1447750D01*
Y1184080D01*
X1445210D01*
Y1179000D01*
X1447750D01*
X1439750Y1203000D02*
Y1200460D01*
X1444830D01*
Y1203000D01*
X1447370D01*
Y1208080D01*
X1444830D01*
Y1210620D01*
X1439750D01*
Y1208080D01*
X1437210D01*
Y1203000D01*
X1439750D01*
X1423750Y1243000D02*
Y1240460D01*
X1428830D01*
Y1243000D01*
X1431370D01*
Y1248080D01*
X1428830D01*
Y1250620D01*
X1423750D01*
Y1248080D01*
X1421210D01*
Y1243000D01*
X1423750D01*
X1535570Y872770D02*
Y870230D01*
X1540650D01*
Y872770D01*
X1543190D01*
Y877850D01*
X1540650D01*
Y880390D01*
X1535570D01*
Y877850D01*
X1533030D01*
Y872770D01*
X1535570D01*
X1439750Y1211000D02*
Y1208460D01*
X1444830D01*
Y1211000D01*
X1447370D01*
Y1216080D01*
X1444830D01*
Y1218620D01*
X1439750D01*
Y1216080D01*
X1437210D01*
Y1211000D01*
X1439750D01*
X1401920Y1282240D02*
Y1279700D01*
X1407000D01*
Y1282240D01*
X1409540D01*
Y1287320D01*
X1407000D01*
Y1289860D01*
X1401920D01*
Y1287320D01*
X1399380D01*
Y1282240D01*
X1401920D01*
X1518560Y1109520D02*
Y1106980D01*
X1523640D01*
Y1109520D01*
X1526180D01*
Y1114600D01*
X1523640D01*
Y1117140D01*
X1518560D01*
Y1114600D01*
X1516020D01*
Y1109520D01*
X1518560D01*
X1541360Y1054660D02*
Y1052120D01*
X1546440D01*
Y1054660D01*
X1548980D01*
Y1059740D01*
X1546440D01*
Y1062280D01*
X1541360D01*
Y1059740D01*
X1538820D01*
Y1054660D01*
X1541360D01*
X996400Y1737050D02*
Y1734510D01*
X1001480D01*
Y1737050D01*
X1004020D01*
Y1742130D01*
X1001480D01*
Y1744670D01*
X996400D01*
Y1742130D01*
X993860D01*
Y1737050D01*
X996400D01*
X1612110Y781860D02*
Y779320D01*
X1617190D01*
Y781860D01*
X1619730D01*
Y786940D01*
X1617190D01*
Y789480D01*
X1612110D01*
Y786940D01*
X1609570D01*
Y781860D01*
X1612110D01*
Y846560D02*
Y844020D01*
X1617190D01*
Y846560D01*
X1619730D01*
Y851640D01*
X1617190D01*
Y854180D01*
X1612110D01*
Y851640D01*
X1609570D01*
Y846560D01*
X1612110D01*
X1514150Y1231440D02*
Y1228900D01*
X1519230D01*
Y1231440D01*
X1521770D01*
Y1236520D01*
X1519230D01*
Y1239060D01*
X1514150D01*
Y1236520D01*
X1511610D01*
Y1231440D01*
X1514150D01*
X1625360Y941760D02*
Y939220D01*
X1630440D01*
Y941760D01*
X1632980D01*
Y946840D01*
X1630440D01*
Y949380D01*
X1625360D01*
Y946840D01*
X1622820D01*
Y941760D01*
X1625360D01*
X1513680Y1282240D02*
Y1279700D01*
X1518760D01*
Y1282240D01*
X1521300D01*
Y1287320D01*
X1518760D01*
Y1289860D01*
X1513680D01*
Y1287320D01*
X1511140D01*
Y1282240D01*
X1513680D01*
X1644810Y874260D02*
Y871720D01*
X1649890D01*
Y874260D01*
X1652430D01*
Y879340D01*
X1649890D01*
Y881880D01*
X1644810D01*
Y879340D01*
X1642270D01*
Y874260D01*
X1644810D01*
X1637459Y792510D02*
Y789970D01*
X1642539D01*
Y792510D01*
X1645079D01*
Y797590D01*
X1642539D01*
Y800130D01*
X1637459D01*
Y797590D01*
X1634919D01*
Y792510D01*
X1637459D01*
X1558360Y1231660D02*
Y1229120D01*
X1563440D01*
Y1231660D01*
X1565980D01*
Y1236740D01*
X1563440D01*
Y1239280D01*
X1558360D01*
Y1236740D01*
X1555820D01*
Y1231660D01*
X1558360D01*
X1108400Y1801050D02*
Y1798510D01*
X1113480D01*
Y1801050D01*
X1116020D01*
Y1806130D01*
X1113480D01*
Y1808670D01*
X1108400D01*
Y1806130D01*
X1105860D01*
Y1801050D01*
X1108400D01*
X1290060Y1684290D02*
Y1681750D01*
X1295140D01*
Y1684290D01*
X1297680D01*
Y1689370D01*
X1295140D01*
Y1691910D01*
X1290060D01*
Y1689370D01*
X1287520D01*
Y1684290D01*
X1290060D01*
X1249160Y1725800D02*
Y1723260D01*
X1254240D01*
Y1725800D01*
X1256780D01*
Y1730880D01*
X1254240D01*
Y1733420D01*
X1249160D01*
Y1730880D01*
X1246620D01*
Y1725800D01*
X1249160D01*
X1473200Y1556200D02*
Y1553660D01*
X1478280D01*
Y1556200D01*
X1480820D01*
Y1561280D01*
X1478280D01*
Y1563820D01*
X1473200D01*
Y1561280D01*
X1470660D01*
Y1556200D01*
X1473200D01*
X1343470Y1727070D02*
Y1724530D01*
X1348550D01*
Y1727070D01*
X1351090D01*
Y1732150D01*
X1348550D01*
Y1734690D01*
X1343470D01*
Y1732150D01*
X1340930D01*
Y1727070D01*
X1343470D01*
X1406900Y1684290D02*
Y1681750D01*
X1411980D01*
Y1684290D01*
X1414520D01*
Y1689370D01*
X1411980D01*
Y1691910D01*
X1406900D01*
Y1689370D01*
X1404360D01*
Y1684290D01*
X1406900D01*
X1532090Y1559490D02*
Y1556950D01*
X1537170D01*
Y1559490D01*
X1539710D01*
Y1564570D01*
X1537170D01*
Y1567110D01*
X1532090D01*
Y1564570D01*
X1529550D01*
Y1559490D01*
X1532090D01*
X1343470Y1785490D02*
Y1782950D01*
X1348550D01*
Y1785490D01*
X1351090D01*
Y1790570D01*
X1348550D01*
Y1793110D01*
X1343470D01*
Y1790570D01*
X1340930D01*
Y1785490D01*
X1343470D01*
X1396160Y1751760D02*
Y1749220D01*
X1401240D01*
Y1751760D01*
X1403780D01*
Y1756840D01*
X1401240D01*
Y1759380D01*
X1396160D01*
Y1756840D01*
X1393620D01*
Y1751760D01*
X1396160D01*
X1436160Y1735760D02*
Y1733220D01*
X1441240D01*
Y1735760D01*
X1443780D01*
Y1740840D01*
X1441240D01*
Y1743380D01*
X1436160D01*
Y1740840D01*
X1433620D01*
Y1735760D01*
X1436160D01*
X1420160Y1751760D02*
Y1749220D01*
X1425240D01*
Y1751760D01*
X1427780D01*
Y1756840D01*
X1425240D01*
Y1759380D01*
X1420160D01*
Y1756840D01*
X1417620D01*
Y1751760D01*
X1420160D01*
X1255770Y1895580D02*
Y1893040D01*
X1260850D01*
Y1895580D01*
X1263390D01*
Y1900660D01*
X1260850D01*
Y1903200D01*
X1255770D01*
Y1900660D01*
X1253230D01*
Y1895580D01*
X1255770D01*
X1343470Y1843910D02*
Y1841370D01*
X1348550D01*
Y1843910D01*
X1351090D01*
Y1848990D01*
X1348550D01*
Y1851530D01*
X1343470D01*
Y1848990D01*
X1340930D01*
Y1843910D01*
X1343470D01*
X1436160Y1775760D02*
Y1773220D01*
X1441240D01*
Y1775760D01*
X1443780D01*
Y1780840D01*
X1441240D01*
Y1783380D01*
X1436160D01*
Y1780840D01*
X1433620D01*
Y1775760D01*
X1436160D01*
X1580160Y1630550D02*
Y1628010D01*
X1585240D01*
Y1630550D01*
X1587780D01*
Y1635630D01*
X1585240D01*
Y1638170D01*
X1580160D01*
Y1635630D01*
X1577620D01*
Y1630550D01*
X1580160D01*
X1420160Y1807760D02*
Y1805220D01*
X1425240D01*
Y1807760D01*
X1427780D01*
Y1812840D01*
X1425240D01*
Y1815380D01*
X1420160D01*
Y1812840D01*
X1417620D01*
Y1807760D01*
X1420160D01*
X1404160Y1823760D02*
Y1821220D01*
X1409240D01*
Y1823760D01*
X1411780D01*
Y1828840D01*
X1409240D01*
Y1831380D01*
X1404160D01*
Y1828840D01*
X1401620D01*
Y1823760D01*
X1404160D01*
X1452160Y1791760D02*
Y1789220D01*
X1457240D01*
Y1791760D01*
X1459780D01*
Y1796840D01*
X1457240D01*
Y1799380D01*
X1452160D01*
Y1796840D01*
X1449620D01*
Y1791760D01*
X1452160D01*
X1428160Y1823760D02*
Y1821220D01*
X1433240D01*
Y1823760D01*
X1435780D01*
Y1828840D01*
X1433240D01*
Y1831380D01*
X1428160D01*
Y1828840D01*
X1425620D01*
Y1823760D01*
X1428160D01*
X1524160Y1743760D02*
Y1741220D01*
X1529240D01*
Y1743760D01*
X1531780D01*
Y1748840D01*
X1529240D01*
Y1751380D01*
X1524160D01*
Y1748840D01*
X1521620D01*
Y1743760D01*
X1524160D01*
X1484160Y1783760D02*
Y1781220D01*
X1489240D01*
Y1783760D01*
X1491780D01*
Y1788840D01*
X1489240D01*
Y1791380D01*
X1484160D01*
Y1788840D01*
X1481620D01*
Y1783760D01*
X1484160D01*
X1468160Y1791760D02*
Y1789220D01*
X1473240D01*
Y1791760D01*
X1475780D01*
Y1796840D01*
X1473240D01*
Y1799380D01*
X1468160D01*
Y1796840D01*
X1465620D01*
Y1791760D01*
X1468160D01*
Y1807760D02*
Y1805220D01*
X1473240D01*
Y1807760D01*
X1475780D01*
Y1812840D01*
X1473240D01*
Y1815380D01*
X1468160D01*
Y1812840D01*
X1465620D01*
Y1807760D01*
X1468160D01*
X1460160Y1815760D02*
Y1813220D01*
X1465240D01*
Y1815760D01*
X1467780D01*
Y1820840D01*
X1465240D01*
Y1823380D01*
X1460160D01*
Y1820840D01*
X1457620D01*
Y1815760D01*
X1460160D01*
X1524160Y1751760D02*
Y1749220D01*
X1529240D01*
Y1751760D01*
X1531780D01*
Y1756840D01*
X1529240D01*
Y1759380D01*
X1524160D01*
Y1756840D01*
X1521620D01*
Y1751760D01*
X1524160D01*
X1412160Y1855760D02*
Y1853220D01*
X1417240D01*
Y1855760D01*
X1419780D01*
Y1860840D01*
X1417240D01*
Y1863380D01*
X1412160D01*
Y1860840D01*
X1409620D01*
Y1855760D01*
X1412160D01*
X1428160Y1847760D02*
Y1845220D01*
X1433240D01*
Y1847760D01*
X1435780D01*
Y1852840D01*
X1433240D01*
Y1855380D01*
X1428160D01*
Y1852840D01*
X1425620D01*
Y1847760D01*
X1428160D01*
X1343470Y1902330D02*
Y1899790D01*
X1348550D01*
Y1902330D01*
X1351090D01*
Y1907410D01*
X1348550D01*
Y1909950D01*
X1343470D01*
Y1907410D01*
X1340930D01*
Y1902330D01*
X1343470D01*
X1484160Y1807760D02*
Y1805220D01*
X1489240D01*
Y1807760D01*
X1491780D01*
Y1812840D01*
X1489240D01*
Y1815380D01*
X1484160D01*
Y1812840D01*
X1481620D01*
Y1807760D01*
X1484160D01*
X1476160Y1815760D02*
Y1813220D01*
X1481240D01*
Y1815760D01*
X1483780D01*
Y1820840D01*
X1481240D01*
Y1823380D01*
X1476160D01*
Y1820840D01*
X1473620D01*
Y1815760D01*
X1476160D01*
X1540160Y1751760D02*
Y1749220D01*
X1545240D01*
Y1751760D01*
X1547780D01*
Y1756840D01*
X1545240D01*
Y1759380D01*
X1540160D01*
Y1756840D01*
X1537620D01*
Y1751760D01*
X1540160D01*
X1532160Y1775760D02*
Y1773220D01*
X1537240D01*
Y1775760D01*
X1539780D01*
Y1780840D01*
X1537240D01*
Y1783380D01*
X1532160D01*
Y1780840D01*
X1529620D01*
Y1775760D01*
X1532160D01*
X1492160Y1823760D02*
Y1821220D01*
X1497240D01*
Y1823760D01*
X1499780D01*
Y1828840D01*
X1497240D01*
Y1831380D01*
X1492160D01*
Y1828840D01*
X1489620D01*
Y1823760D01*
X1492160D01*
X1444160Y1863760D02*
Y1861220D01*
X1449240D01*
Y1863760D01*
X1451780D01*
Y1868840D01*
X1449240D01*
Y1871380D01*
X1444160D01*
Y1868840D01*
X1441620D01*
Y1863760D01*
X1444160D01*
X1516160Y1807760D02*
Y1805220D01*
X1521240D01*
Y1807760D01*
X1523780D01*
Y1812840D01*
X1521240D01*
Y1815380D01*
X1516160D01*
Y1812840D01*
X1513620D01*
Y1807760D01*
X1516160D01*
X1476160Y1847760D02*
Y1845220D01*
X1481240D01*
Y1847760D01*
X1483780D01*
Y1852840D01*
X1481240D01*
Y1855380D01*
X1476160D01*
Y1852840D01*
X1473620D01*
Y1847760D01*
X1476160D01*
X1381500Y1927000D02*
Y1924460D01*
X1386580D01*
Y1927000D01*
X1389120D01*
Y1932080D01*
X1386580D01*
Y1934620D01*
X1381500D01*
Y1932080D01*
X1378960D01*
Y1927000D01*
X1381500D01*
X822490Y2184330D02*
Y2181790D01*
X827570D01*
Y2184330D01*
X830110D01*
Y2189410D01*
X827570D01*
Y2191950D01*
X822490D01*
Y2189410D01*
X819950D01*
Y2184330D01*
X822490D01*
X1345540Y1958210D02*
Y1955670D01*
X1350620D01*
Y1958210D01*
X1353160D01*
Y1963290D01*
X1350620D01*
Y1965830D01*
X1345540D01*
Y1963290D01*
X1343000D01*
Y1958210D01*
X1345540D01*
X1532160Y1823760D02*
Y1821220D01*
X1537240D01*
Y1823760D01*
X1539780D01*
Y1828840D01*
X1537240D01*
Y1831380D01*
X1532160D01*
Y1828840D01*
X1529620D01*
Y1823760D01*
X1532160D01*
X1516160Y1839760D02*
Y1837220D01*
X1521240D01*
Y1839760D01*
X1523780D01*
Y1844840D01*
X1521240D01*
Y1847380D01*
X1516160D01*
Y1844840D01*
X1513620D01*
Y1839760D01*
X1516160D01*
X1500160Y1863760D02*
Y1861220D01*
X1505240D01*
Y1863760D01*
X1507780D01*
Y1868840D01*
X1505240D01*
Y1871380D01*
X1500160D01*
Y1868840D01*
X1497620D01*
Y1863760D01*
X1500160D01*
X1524160Y1855760D02*
Y1853220D01*
X1529240D01*
Y1855760D01*
X1531780D01*
Y1860840D01*
X1529240D01*
Y1863380D01*
X1524160D01*
Y1860840D01*
X1521620D01*
Y1855760D01*
X1524160D01*
X1579360Y1804540D02*
Y1802000D01*
X1584440D01*
Y1804540D01*
X1586980D01*
Y1809620D01*
X1584440D01*
Y1812160D01*
X1579360D01*
Y1809620D01*
X1576820D01*
Y1804540D01*
X1579360D01*
X1448810Y1927800D02*
Y1925260D01*
X1453890D01*
Y1927800D01*
X1456430D01*
Y1932880D01*
X1453890D01*
Y1935420D01*
X1448810D01*
Y1932880D01*
X1446270D01*
Y1927800D01*
X1448810D01*
X1627880Y1770790D02*
Y1768250D01*
X1632960D01*
Y1770790D01*
X1635500D01*
Y1775870D01*
X1632960D01*
Y1778410D01*
X1627880D01*
Y1775870D01*
X1625340D01*
Y1770790D01*
X1627880D01*
X1507230Y1927800D02*
Y1925260D01*
X1512310D01*
Y1927800D01*
X1514850D01*
Y1932880D01*
X1512310D01*
Y1935420D01*
X1507230D01*
Y1932880D01*
X1504690D01*
Y1927800D01*
X1507230D01*
X1125150Y2209330D02*
Y2206790D01*
X1130230D01*
Y2209330D01*
X1132770D01*
Y2214410D01*
X1130230D01*
Y2216950D01*
X1125150D01*
Y2214410D01*
X1122610D01*
Y2209330D01*
X1125150D01*
X1627880Y1879070D02*
Y1876530D01*
X1632960D01*
Y1879070D01*
X1635500D01*
Y1884150D01*
X1632960D01*
Y1886690D01*
X1627880D01*
Y1884150D01*
X1625340D01*
Y1879070D01*
X1627880D01*
X2097240Y911790D02*
Y909250D01*
X2102320D01*
Y911790D01*
X2104860D01*
Y916870D01*
X2102320D01*
Y919410D01*
X2097240D01*
Y916870D01*
X2094700D01*
Y911790D01*
X2097240D01*
X1225480Y2211870D02*
Y2209330D01*
X1230560D01*
Y2211870D01*
X1233100D01*
Y2216950D01*
X1230560D01*
Y2219490D01*
X1225480D01*
Y2216950D01*
X1222940D01*
Y2211870D01*
X1225480D01*
X2130050Y856390D02*
Y853850D01*
X2135130D01*
Y856390D01*
X2137670D01*
Y861470D01*
X2135130D01*
Y864010D01*
X2130050D01*
Y861470D01*
X2127510D01*
Y856390D01*
X2130050D01*
X2149380Y1172380D02*
Y1169840D01*
X2154460D01*
Y1172380D01*
X2157000D01*
Y1177460D01*
X2154460D01*
Y1180000D01*
X2149380D01*
Y1177460D01*
X2146840D01*
Y1172380D01*
X2149380D01*
X2151840Y1226990D02*
Y1224450D01*
X2156920D01*
Y1226990D01*
X2159460D01*
Y1232070D01*
X2156920D01*
Y1234610D01*
X2151840D01*
Y1232070D01*
X2149300D01*
Y1226990D01*
X2151840D01*
X1933660Y1738320D02*
Y1735780D01*
X1938740D01*
Y1738320D01*
X1941280D01*
Y1743400D01*
X1938740D01*
Y1745940D01*
X1933660D01*
Y1743400D01*
X1931120D01*
Y1738320D01*
X1933660D01*
X1514410Y2158630D02*
Y2156090D01*
X1519490D01*
Y2158630D01*
X1522030D01*
Y2163710D01*
X1519490D01*
Y2166250D01*
X1514410D01*
Y2163710D01*
X1511870D01*
Y2158630D01*
X1514410D01*
X2248700Y787330D02*
Y784790D01*
X2253780D01*
Y787330D01*
X2256320D01*
Y792410D01*
X2253780D01*
Y794950D01*
X2248700D01*
Y792410D01*
X2246160D01*
Y787330D01*
X2248700D01*
X1529410Y2183630D02*
Y2181090D01*
X1534490D01*
Y2183630D01*
X1537030D01*
Y2188710D01*
X1534490D01*
Y2191250D01*
X1529410D01*
Y2188710D01*
X1526870D01*
Y2183630D01*
X1529410D01*
X1544410Y2158630D02*
Y2156090D01*
X1549490D01*
Y2158630D01*
X1552030D01*
Y2163710D01*
X1549490D01*
Y2166250D01*
X1544410D01*
Y2163710D01*
X1541870D01*
Y2158630D01*
X1544410D01*
X1911660Y1794320D02*
Y1791780D01*
X1916740D01*
Y1794320D01*
X1919280D01*
Y1799400D01*
X1916740D01*
Y1801940D01*
X1911660D01*
Y1799400D01*
X1909120D01*
Y1794320D01*
X1911660D01*
X1559410Y2183630D02*
Y2181090D01*
X1564490D01*
Y2183630D01*
X1567030D01*
Y2188710D01*
X1564490D01*
Y2191250D01*
X1559410D01*
Y2188710D01*
X1556870D01*
Y2183630D01*
X1559410D01*
X1574410Y2158630D02*
Y2156090D01*
X1579490D01*
Y2158630D01*
X1582030D01*
Y2163710D01*
X1579490D01*
Y2166250D01*
X1574410D01*
Y2163710D01*
X1571870D01*
Y2158630D01*
X1574410D01*
X1589410Y2183630D02*
Y2181090D01*
X1594490D01*
Y2183630D01*
X1597030D01*
Y2188710D01*
X1594490D01*
Y2191250D01*
X1589410D01*
Y2188710D01*
X1586870D01*
Y2183630D01*
X1589410D01*
X2216610Y1270170D02*
Y1267630D01*
X2221690D01*
Y1270170D01*
X2224230D01*
Y1275250D01*
X2221690D01*
Y1277790D01*
X2216610D01*
Y1275250D01*
X2214070D01*
Y1270170D01*
X2216610D01*
X2045660Y1802320D02*
Y1799780D01*
X2050740D01*
Y1802320D01*
X2053280D01*
Y1807400D01*
X2050740D01*
Y1809940D01*
X2045660D01*
Y1807400D01*
X2043120D01*
Y1802320D01*
X2045660D01*
X2387130Y869950D02*
Y867410D01*
X2392210D01*
Y869950D01*
X2394750D01*
Y875030D01*
X2392210D01*
Y877570D01*
X2387130D01*
Y875030D01*
X2384590D01*
Y869950D01*
X2387130D01*
Y914950D02*
Y912410D01*
X2392210D01*
Y914950D01*
X2394750D01*
Y920030D01*
X2392210D01*
Y922570D01*
X2387130D01*
Y920030D01*
X2384590D01*
Y914950D01*
X2387130D01*
X2363000Y1335970D02*
Y1333430D01*
X2368080D01*
Y1335970D01*
X2370620D01*
Y1341050D01*
X2368080D01*
Y1343590D01*
X2363000D01*
Y1341050D01*
X2360460D01*
Y1335970D01*
X2363000D01*
X2365540Y1395660D02*
Y1393120D01*
X2370620D01*
Y1395660D01*
X2373160D01*
Y1400740D01*
X2370620D01*
Y1403280D01*
X2365540D01*
Y1400740D01*
X2363000D01*
Y1395660D01*
X2365540D01*
X2351950Y812710D02*
X2354490D01*
X2357030Y815250D01*
X2359570Y812710D01*
X2362110D01*
Y815250D01*
X2359570Y817790D01*
X2362110Y820330D01*
Y822870D01*
X2359570D01*
X2357030Y820330D01*
X2354490Y822870D01*
X2351950D01*
Y820330D01*
X2354490Y817790D01*
X2351950Y815250D01*
Y812710D01*
X558710Y815250D02*
X561250D01*
X563790Y817790D01*
X566330Y815250D01*
X568870D01*
Y817790D01*
X566330Y820330D01*
X568870Y822870D01*
Y825410D01*
X566330D01*
X563790Y822870D01*
X561250Y825410D01*
X558710D01*
Y822870D01*
X561250Y820330D01*
X558710Y817790D01*
Y815250D01*
X2349410Y2204630D02*
X2351950D01*
X2354490Y2207170D01*
X2357030Y2204630D01*
X2359570D01*
Y2207170D01*
X2357030Y2209710D01*
X2359570Y2212250D01*
Y2214790D01*
X2357030D01*
X2354490Y2212250D01*
X2351950Y2214790D01*
X2349410D01*
Y2212250D01*
X2351950Y2209710D01*
X2349410Y2207170D01*
Y2204630D01*
X556170Y2205900D02*
X558710D01*
X561250Y2208440D01*
X563790Y2205900D01*
X566330D01*
Y2208440D01*
X563790Y2210980D01*
X566330Y2213520D01*
Y2216060D01*
X563790D01*
X561250Y2213520D01*
X558710Y2216060D01*
X556170D01*
Y2213520D01*
X558710Y2210980D01*
X556170Y2208440D01*
Y2205900D01*
X1090520Y1028020D02*
Y1038180D01*
X1100680D01*
Y1028020D01*
X1090520D01*
X1038620Y846320D02*
Y856480D01*
X1048780D01*
Y846320D01*
X1038620D01*
X1094520Y872020D02*
Y882180D01*
X1104680D01*
Y872020D01*
X1094520D01*
X1452240Y1783950D02*
Y1781410D01*
X1457320D01*
Y1783950D01*
X1459860D01*
Y1789030D01*
X1457320D01*
Y1791570D01*
X1452240D01*
Y1789030D01*
X1449700D01*
Y1783950D01*
X1452240D01*
X1468340Y1784050D02*
Y1781510D01*
X1473420D01*
Y1784050D01*
X1475960D01*
Y1789130D01*
X1473420D01*
Y1791670D01*
X1468340D01*
Y1789130D01*
X1465800D01*
Y1784050D01*
X1468340D01*
X1460540Y1809150D02*
Y1806610D01*
X1465620D01*
Y1809150D01*
X1468160D01*
Y1814230D01*
X1465620D01*
Y1816770D01*
X1460540D01*
Y1814230D01*
X1458000D01*
Y1809150D01*
X1460540D01*
X1452940Y1815750D02*
Y1813210D01*
X1458020D01*
Y1815750D01*
X1460560D01*
Y1820830D01*
X1458020D01*
Y1823370D01*
X1452940D01*
Y1820830D01*
X1450400D01*
Y1815750D01*
X1452940D01*
X1476140Y1792150D02*
Y1789610D01*
X1481220D01*
Y1792150D01*
X1483760D01*
Y1797230D01*
X1481220D01*
Y1799770D01*
X1476140D01*
Y1797230D01*
X1473600D01*
Y1792150D01*
X1476140D01*
X1476340Y1807950D02*
Y1805410D01*
X1481420D01*
Y1807950D01*
X1483960D01*
Y1813030D01*
X1481420D01*
Y1815570D01*
X1476340D01*
Y1813030D01*
X1473800D01*
Y1807950D01*
X1476340D01*
X1342348Y925700D02*
X1347428Y930780D01*
X1352508Y925700D01*
X1347428Y920620D01*
X1342348Y925700D01*
X1468760Y1799360D02*
Y1796820D01*
X1473840D01*
Y1799360D01*
X1476380D01*
Y1804440D01*
X1473840D01*
Y1806980D01*
X1468760D01*
Y1804440D01*
X1466220D01*
Y1799360D01*
X1468760D01*
D121*
X2335030Y1172900D02*
G03*
X2335030Y1172900I-5080J0D01*
G01*
Y1216900D02*
G03*
X2335030Y1216900I-5080J0D01*
G01*
X1313530Y834000D02*
G03*
X1313530Y834000I-5080J0D01*
G01*
X1357530D02*
G03*
X1357530Y834000I-5080J0D01*
G01*
M02*
